<svg width="18" height="22" viewBox="0 0 18 22" fill="none" xmlns="http://www.w3.org/2000/svg">
<path d="M14.9974 21.1173C13.8344 22.2783 12.5645 22.095 11.3422 21.5451C10.0486 20.9829 8.86179 20.9585 7.49699 21.5451C5.78802 22.3027 4.88607 22.0828 3.86544 21.1173C-1.92605 14.9703 -1.07157 5.60929 5.5032 5.26711C7.10535 5.35266 8.22093 6.17144 9.15848 6.24477C10.5589 5.95147 11.8999 5.10824 13.3953 5.21823C15.1873 5.36488 16.5403 6.09812 17.4303 7.41795C13.7276 9.70322 14.6058 14.7259 18 16.1313C17.3235 17.9644 16.4453 19.7853 14.9856 21.1296L14.9974 21.1173ZM9.0398 5.19379C8.86179 2.46858 11.0099 0.219972 13.4784 0C13.8225 3.15294 10.7013 5.49931 9.0398 5.19379Z" fill="black"/>
</svg>
