<svg width="15" height="15" viewBox="0 0 15 15" fill="none" xmlns="http://www.w3.org/2000/svg">
<path fill-rule="evenodd" clip-rule="evenodd" d="M10.2895 0.164505C10.395 0.0591672 10.5379 0 10.687 0C10.8361 0 10.979 0.0591672 11.0845 0.164505L14.4595 3.53951C14.5648 3.64497 14.624 3.78794 14.624 3.93701C14.624 4.08607 14.5648 4.22904 14.4595 4.33451L11.0845 7.70951C11.033 7.76477 10.9709 7.8091 10.9019 7.83984C10.8329 7.87058 10.7584 7.88712 10.6829 7.88845C10.6074 7.88978 10.5323 7.87589 10.4623 7.8476C10.3923 7.81931 10.3286 7.7772 10.2752 7.72378C10.2218 7.67037 10.1797 7.60674 10.1514 7.5367C10.1231 7.46666 10.1092 7.39164 10.1106 7.31611C10.1119 7.24059 10.1284 7.1661 10.1592 7.0971C10.1899 7.0281 10.2342 6.966 10.2895 6.91451L12.7045 4.49951H3.93701C3.78782 4.49951 3.64475 4.44024 3.53926 4.33475C3.43377 4.22926 3.37451 4.08619 3.37451 3.93701C3.37451 3.78782 3.43377 3.64475 3.53926 3.53926C3.64475 3.43377 3.78782 3.37451 3.93701 3.37451H12.7045L10.2895 0.959505C10.1842 0.854036 10.125 0.711068 10.125 0.562005C10.125 0.412942 10.1842 0.269974 10.2895 0.164505ZM4.33451 6.91451C4.43984 7.01997 4.49901 7.16294 4.49901 7.31201C4.49901 7.46107 4.43984 7.60404 4.33451 7.70951L1.91951 10.1245H10.687C10.8362 10.1245 10.9793 10.1838 11.0848 10.2893C11.1902 10.3947 11.2495 10.5378 11.2495 10.687C11.2495 10.8362 11.1902 10.9793 11.0848 11.0848C10.9793 11.1902 10.8362 11.2495 10.687 11.2495H1.91951L4.33451 13.6645C4.38977 13.716 4.4341 13.7781 4.46484 13.8471C4.49558 13.9161 4.51212 13.9906 4.51345 14.0661C4.51478 14.1416 4.50089 14.2167 4.4726 14.2867C4.44431 14.3567 4.4022 14.4204 4.34878 14.4738C4.29537 14.5272 4.23174 14.5693 4.1617 14.5976C4.09166 14.6259 4.01664 14.6398 3.94111 14.6384C3.86559 14.6371 3.7911 14.6206 3.7221 14.5898C3.6531 14.5591 3.591 14.5148 3.53951 14.4595L0.164505 11.0845C0.0591672 10.979 0 10.8361 0 10.687C0 10.5379 0.0591672 10.395 0.164505 10.2895L3.53951 6.91451C3.64497 6.80917 3.78794 6.75 3.93701 6.75C4.08607 6.75 4.22904 6.80917 4.33451 6.91451Z" fill="white"/>
</svg>
