<svg width="8" height="16" viewBox="0 0 8 16" fill="none" xmlns="http://www.w3.org/2000/svg">
<path d="M7.19584 -0.000102103C7.37 -0.000102088 7.54417 0.0640659 7.68167 0.201566C7.9475 0.4674 7.9475 0.907398 7.68167 1.17323L1.705 7.1499C1.265 7.5899 1.265 8.3049 1.705 8.7449L7.68167 14.7215C7.9475 14.9874 7.9475 15.4274 7.68167 15.6932C7.41583 15.959 6.97583 15.959 6.71 15.6932L0.733334 9.71656C0.265834 9.24906 1.58976e-06 8.61656 1.64826e-06 7.9474C1.70676e-06 7.27823 0.256667 6.64573 0.733334 6.17823L6.71 0.201566C6.8475 0.0732326 7.02167 -0.000102118 7.19584 -0.000102103Z" fill="black"/>
</svg>
