<svg width="14" height="23" viewBox="0 0 14 23" fill="none" xmlns="http://www.w3.org/2000/svg">
<path d="M6.75 18C8.3413 18 9.86742 17.3679 10.9926 16.2426C12.1179 15.1174 12.75 13.5913 12.75 12V10.5M6.75 18C5.1587 18 3.63258 17.3679 2.50736 16.2426C1.38214 15.1174 0.75 13.5913 0.75 12V10.5M6.75 18V21.75M3 21.75H10.5M6.75 15C5.95435 15 5.19129 14.6839 4.62868 14.1213C4.06607 13.5587 3.75 12.7956 3.75 12V3.75C3.75 2.95435 4.06607 2.19129 4.62868 1.62868C5.19129 1.06607 5.95435 0.75 6.75 0.75C7.54565 0.75 8.30871 1.06607 8.87132 1.62868C9.43393 2.19129 9.75 2.95435 9.75 3.75V12C9.75 12.7956 9.43393 13.5587 8.87132 14.1213C8.30871 14.6839 7.54565 15 6.75 15Z" stroke="black" stroke-width="1.5" stroke-linecap="round" stroke-linejoin="round"/>
</svg>
