<svg width="15" height="17" viewBox="0 0 15 17" fill="none" xmlns="http://www.w3.org/2000/svg">
<path opacity="0.4" d="M14.1666 12.9583C14.527 12.9583 14.8204 12.6687 14.825 12.3083C14.825 11.8417 14.55 11.475 14.0833 11.2L13.4333 10.925C13.0667 10.8333 12.7833 10.5583 12.7833 10.1833L12.225 4.90833C12.0417 3.60833 11.2083 2.59167 9.99999 2.04167L8.79999 1.575C8.43332 1.39167 8.14999 1.01667 8.05832 0.65L8.00058 0.445133C7.92632 0.181842 7.68607 0 7.41249 0C7.13891 0 6.89874 0.181842 6.82441 0.445133L6.76666 0.65C6.67499 1.01667 6.39999 1.39167 6.02499 1.575L4.825 2.04167C3.625 2.6 2.79167 3.61667 2.6 4.90833L2.04167 10.1833C2.04167 10.55 1.76667 10.8333 1.39167 10.925L0.741667 11.2C0.275 11.475 0 11.85 0 12.3083C0 12.6673 0.291017 12.9583 0.65 12.9583H14.1666Z" fill="#0A70FF"/>
<path d="M3.71664 12.9583C3.71664 14.9916 5.38331 16.6583 7.41667 16.6583C9.45 16.6583 11.1167 14.9916 11.1167 12.9583" fill="#0A70FF"/>
</svg>
