<svg width="46" height="46" viewBox="0 0 46 46" fill="none" xmlns="http://www.w3.org/2000/svg">
<g clip-path="url(#clip0_118_2369)">
<path d="M26.8333 31.5522L38.0056 35.9452C41.6722 37.3865 44.0833 40.9247 44.0833 44.8634V46H12.5312L9.04092 42.8797C7.28333 41.2352 7.20092 38.4579 8.85308 36.6888C10.5033 34.9217 13.2863 34.8297 15.0535 36.4799C15.1187 36.5413 17.1024 38.2011 19.1647 39.8992V23C19.1647 20.6712 21.2405 18.8293 23.6421 19.2184C25.5262 19.5251 26.8314 21.2942 26.8314 23.2051V31.5522H26.8333ZM15.3333 26.8333V23C15.3333 18.7661 18.7661 15.3333 23 15.3333C27.2339 15.3333 30.6667 18.7661 30.6667 23V26.8333H36.4167C41.7086 26.8333 46 22.5419 46 17.25V9.58333C46 4.29142 41.7086 0 36.4167 0H9.58333C4.29142 0 0 4.29142 0 9.58333V17.25C0 22.5419 4.29142 26.8333 9.58333 26.8333H15.3333ZM34.5 19.1667C33.442 19.1667 32.5833 18.308 32.5833 17.25C32.5833 16.192 33.442 15.3333 34.5 15.3333H36.4167C37.4747 15.3333 38.3333 16.192 38.3333 17.25C38.3333 18.308 37.4747 19.1667 36.4167 19.1667H34.5ZM28.75 7.66667H36.4167C37.4766 7.66667 38.3333 8.52533 38.3333 9.58333C38.3333 10.6413 37.4766 11.5 36.4167 11.5H28.75C27.6901 11.5 26.8333 10.6413 26.8333 9.58333C26.8333 8.52533 27.6901 7.66667 28.75 7.66667ZM19.1667 7.66667H21.0833C22.1432 7.66667 23 8.52533 23 9.58333C23 10.6413 22.1432 11.5 21.0833 11.5H19.1667C18.1068 11.5 17.25 10.6413 17.25 9.58333C17.25 8.52533 18.1068 7.66667 19.1667 7.66667ZM9.58333 7.66667H11.5C12.5599 7.66667 13.4167 8.52533 13.4167 9.58333C13.4167 10.6413 12.5599 11.5 11.5 11.5H9.58333C8.52342 11.5 7.66667 10.6413 7.66667 9.58333C7.66667 8.52533 8.52342 7.66667 9.58333 7.66667ZM9.58333 19.1667C8.52533 19.1667 7.66667 18.308 7.66667 17.25C7.66667 16.192 8.52533 15.3333 9.58333 15.3333H11.5C12.558 15.3333 13.4167 16.192 13.4167 17.25C13.4167 18.308 12.558 19.1667 11.5 19.1667H9.58333Z" fill="url(#paint0_linear_118_2369)"/>
</g>
<defs>
<linearGradient id="paint0_linear_118_2369" x1="23" y1="0" x2="23" y2="46" gradientUnits="userSpaceOnUse">
<stop stop-color="#03B7FF"/>
<stop offset="1" stop-color="#0A70FF"/>
</linearGradient>
<clipPath id="clip0_118_2369">
<rect width="46" height="46" fill="white"/>
</clipPath>
</defs>
</svg>
