<svg width="17" height="17" viewBox="0 0 17 17" fill="none" xmlns="http://www.w3.org/2000/svg">
<path d="M13.5391 3.99233C14.1311 4.58431 14.6007 5.28708 14.921 6.06054C15.2414 6.83399 15.4063 7.66298 15.4063 8.50016C15.4063 9.33735 15.2414 10.1663 14.921 10.9398C14.6007 11.7132 14.1311 12.416 13.5391 13.008M11.6613 5.87083C12.3586 6.56821 12.7503 7.514 12.7503 8.50016C12.7503 9.48633 12.3586 10.4321 11.6613 11.1295M4.78125 5.84391L8.12459 2.50058C8.19888 2.42638 8.2935 2.37586 8.39649 2.3554C8.49948 2.33494 8.60622 2.34546 8.70324 2.38563C8.80026 2.4258 8.88319 2.49382 8.94157 2.5811C8.99995 2.66837 9.03116 2.77099 9.03125 2.876V14.1243C9.03116 14.2293 8.99995 14.332 8.94157 14.4192C8.88319 14.5065 8.80026 14.5745 8.70324 14.6147C8.60622 14.6549 8.49948 14.6654 8.39649 14.6449C8.2935 14.6245 8.19888 14.5739 8.12459 14.4997L4.78125 11.1564H3.19459C2.57125 11.1564 1.98759 10.7973 1.82184 10.1973C1.6699 9.64443 1.59319 9.07356 1.59375 8.50016C1.59375 7.91225 1.67309 7.34346 1.82184 6.803C1.98759 6.20233 2.57125 5.84391 3.19459 5.84391H4.78125Z" stroke="white" stroke-width="1.5" stroke-linecap="round" stroke-linejoin="round"/>
</svg>
