<svg width="19" height="20" viewBox="0 0 19 20" fill="none" xmlns="http://www.w3.org/2000/svg">
<path d="M17.24 8.63245L12.57 6.6225L11.53 6.1825C11.37 6.1025 11.23 5.8925 11.23 5.7125V2.6525C11.23 1.6925 10.52 0.5525 9.66004 0.1125C9.36004 -0.0375 9.00004 -0.0375 8.70004 0.1125C7.85004 0.5525 7.14 1.7025 7.14 2.6625V5.7225C7.14 5.9025 7 6.1125 6.84 6.1925L1.14 8.64245C0.51 8.90245 0 9.69245 0 10.3724V11.6925C0 12.5425 0.64 12.9625 1.43 12.6224L6.44 10.4625C6.83 10.2924 7.15 10.5024 7.15 10.9325V12.0424V13.8425C7.15 14.0724 7.02 14.4024 6.86 14.5624L4.54 16.8924C4.3 17.1324 4.19 17.6024 4.3 17.9424L4.75 19.3025C4.93 19.8925 5.6 20.1724 6.15 19.8924L8.53004 17.8924C8.89004 17.5824 9.48004 17.5824 9.84004 17.8924L12.22 19.8924C12.77 20.1624 13.44 19.8925 13.64 19.3025L14.09 17.9424C14.2 17.6124 14.09 17.1324 13.85 16.8924L11.53 14.5624C11.36 14.4024 11.23 14.0724 11.23 13.8425V10.9325C11.23 10.5024 11.54 10.3025 11.94 10.4625L16.95 12.6224C17.74 12.9625 18.38 12.5425 18.38 11.6925V10.3724C18.38 9.69245 17.87 8.90245 17.24 8.63245Z" fill="#10B981"/>
</svg>
