<svg width="20" height="20" viewBox="0 0 20 20" fill="none" xmlns="http://www.w3.org/2000/svg">
<path d="M18.95 2.13C18.66 1.71 18.29 1.34 17.87 1.05C16.92 0.36 15.68 0 14.19 0H5.81C5.61 0 5.41 0.00999997 5.22 0.03C1.94 0.24 0 2.37 0 5.81V14.19C0 15.68 0.36 16.92 1.05 17.87C1.34 18.29 1.71 18.66 2.13 18.95C2.95 19.55 3.99 19.9 5.22 19.98C5.41 19.99 5.61 20 5.81 20H14.19C17.83 20 20 17.83 20 14.19V5.81C20 4.32 19.64 3.08 18.95 2.13ZM16.75 6.9C16.75 7.31 16.41 7.65 16 7.65C15.59 7.65 15.25 7.31 15.25 6.9V5.72C15.25 5.4 14.99 5.14 14.67 5.14H10.75V14.86H12.53C12.94 14.86 13.28 15.2 13.28 15.61C13.28 16.02 12.94 16.36 12.53 16.36H7.47C7.06 16.36 6.72 16.02 6.72 15.61C6.72 15.2 7.06 14.86 7.47 14.86H9.25V5.14H5.33C5.01 5.14 4.75 5.4 4.75 5.72V6.9C4.75 7.31 4.41 7.65 4 7.65C3.59 7.65 3.25 7.31 3.25 6.9V5.72C3.25 4.57 4.18 3.64 5.33 3.64H14.66C15.81 3.64 16.74 4.57 16.74 5.72V6.9H16.75Z" fill="#F96700"/>
</svg>
