<svg width="31" height="31" viewBox="0 0 31 31" fill="none" xmlns="http://www.w3.org/2000/svg">
<path d="M10.1166 7.9579C9.92272 8.26871 9.66407 8.53278 9.35879 8.7316C9.0535 8.93042 8.70896 9.05916 8.34935 9.1088C7.94012 9.1677 7.53412 9.23098 7.12812 9.2997C5.99412 9.49061 5.1875 10.5019 5.1875 11.6659V20.8577C5.1875 21.5087 5.44279 22.133 5.8972 22.5933C6.35162 23.0537 6.96794 23.3123 7.61058 23.3123H23.7644C24.4071 23.3123 25.0234 23.0537 25.4778 22.5933C25.9322 22.133 26.1875 21.5087 26.1875 20.8577V11.6659C26.1875 10.5019 25.3798 9.49061 24.2469 9.2997C23.8406 9.23113 23.4335 9.16749 23.0257 9.1088C22.6662 9.05901 22.3219 8.9302 22.0168 8.73139C21.7117 8.53258 21.4532 8.26858 21.2595 7.9579L20.3743 6.52228C20.1755 6.19512 19.9017 5.9213 19.5763 5.724C19.2509 5.52671 18.8833 5.41174 18.5047 5.38884C16.6279 5.28673 14.7471 5.28673 12.8703 5.38884C12.4917 5.41174 12.1241 5.52671 11.7987 5.724C11.4733 5.9213 11.1995 6.19512 11.0007 6.52228L10.1166 7.9579Z" stroke="url(#paint0_linear_15_199)" stroke-width="2" stroke-linecap="round" stroke-linejoin="round"/>
<path d="M19.9812 14.8123C19.9812 16.0057 19.518 17.1503 18.6934 17.9942C17.8689 18.8381 16.7505 19.3123 15.5844 19.3123C14.4183 19.3123 13.2999 18.8381 12.4753 17.9942C11.6507 17.1503 11.1875 16.0057 11.1875 14.8123C11.1875 13.6188 11.6507 12.4742 12.4753 11.6303C13.2999 10.7864 14.4183 10.3123 15.5844 10.3123C16.7505 10.3123 17.8689 10.7864 18.6934 11.6303C19.518 12.4742 19.9812 13.6188 19.9812 14.8123ZM22.1797 12.5623H22.1875V12.5703H22.1797V12.5623Z" stroke="url(#paint1_linear_15_199)" stroke-width="2" stroke-linecap="round" stroke-linejoin="round"/>
<defs>
<linearGradient id="paint0_linear_15_199" x1="15.6875" y1="5.31226" x2="15.6875" y2="23.3123" gradientUnits="userSpaceOnUse">
<stop stop-color="#03B7FF"/>
<stop offset="1" stop-color="#0A70FF"/>
</linearGradient>
<linearGradient id="paint1_linear_15_199" x1="16.6875" y1="10.3123" x2="16.6875" y2="19.3123" gradientUnits="userSpaceOnUse">
<stop stop-color="#03B7FF"/>
<stop offset="1" stop-color="#0A70FF"/>
</linearGradient>
</defs>
</svg>
