<svg width="31" height="31" viewBox="0 0 31 31" fill="none" xmlns="http://www.w3.org/2000/svg">
<path d="M15.5 20.7857C16.9587 20.7857 18.3576 20.2439 19.3891 19.2794C20.4205 18.3149 21 17.0068 21 15.6429V14.3571M15.5 20.7857C14.0413 20.7857 12.6424 20.2439 11.6109 19.2794C10.5795 18.3149 10 17.0068 10 15.6429V14.3571M15.5 20.7857V24M12.0625 24H18.9375M15.5 18.2143C14.7707 18.2143 14.0712 17.9434 13.5555 17.4611C13.0397 16.9789 12.75 16.3248 12.75 15.6429V8.57143C12.75 7.88944 13.0397 7.23539 13.5555 6.75315C14.0712 6.27092 14.7707 6 15.5 6C16.2293 6 16.9288 6.27092 17.4445 6.75315C17.9603 7.23539 18.25 7.88944 18.25 8.57143V15.6429C18.25 16.3248 17.9603 16.9789 17.4445 17.4611C16.9288 17.9434 16.2293 18.2143 15.5 18.2143Z" stroke="url(#paint0_linear_15_194)" stroke-width="2" stroke-linecap="round" stroke-linejoin="round"/>
<defs>
<linearGradient id="paint0_linear_15_194" x1="15.5" y1="6" x2="15.5" y2="24" gradientUnits="userSpaceOnUse">
<stop stop-color="#03B7FF"/>
<stop offset="1" stop-color="#0A70FF"/>
</linearGradient>
</defs>
</svg>
