<svg width="11" height="14" viewBox="0 0 11 14" fill="none" xmlns="http://www.w3.org/2000/svg">
<path d="M9.03993 2.32667V2.82L6.67993 1.45333C5.7866 0.94 4.53993 0.94 3.65329 1.45333L1.29329 2.82667V2.32667C1.29329 0.826667 2.11329 0 3.61329 0H6.71993C8.21993 0 9.03993 0.826667 9.03993 2.32667Z" fill="white"/>
<path d="M9.06 3.98024L8.96667 3.93357L8.06 3.41357L6.18 2.3269C5.60667 1.99357 4.72667 1.99357 4.15333 2.3269L2.27333 3.4069L1.36667 3.94024L1.24667 4.00024C0.0799999 4.7869 0 4.93357 0 6.19355V9.20688C0 10.4669 0.0799999 10.6136 1.27333 11.4202L4.15333 13.0802C4.44 13.2536 4.8 13.3269 5.16667 13.3269C5.52667 13.3269 5.89333 13.2469 6.18 13.0802L9.08667 11.4002C10.26 10.6136 10.3333 10.4736 10.3333 9.20688V6.19355C10.3333 4.93357 10.2533 4.7869 9.06 3.98024ZM7.02667 7.66688L6.62 8.16688C6.55333 8.24022 6.50667 8.38022 6.51333 8.48022L6.55333 9.12022C6.58 9.51355 6.3 9.71355 5.93333 9.57355L5.34 9.33355C5.24667 9.30022 5.09333 9.30022 5 9.33355L4.40667 9.56688C4.04 9.71355 3.76 9.50688 3.78667 9.11355L3.82667 8.47355C3.83333 8.37355 3.78667 8.23355 3.72 8.16022L3.30667 7.66688C3.05333 7.36688 3.16667 7.03355 3.54667 6.93355L4.16667 6.77355C4.26667 6.74688 4.38 6.65355 4.43333 6.57355L4.78 6.04022C4.99333 5.70688 5.33333 5.70688 5.55333 6.04022L5.9 6.57355C5.95333 6.66022 6.07333 6.74688 6.16667 6.77355L6.78667 6.93355C7.16667 7.03355 7.28 7.36688 7.02667 7.66688Z" fill="white"/>
</svg>
