<svg width="42" height="42" viewBox="0 0 42 42" fill="none" xmlns="http://www.w3.org/2000/svg">
<g clip-path="url(#clip0_118_3235)">
<mask id="mask0_118_3235" style="mask-type:luminance" maskUnits="userSpaceOnUse" x="0" y="0" width="42" height="42">
<path d="M42 0H0V42H42V0Z" fill="white"/>
</mask>
<g mask="url(#mask0_118_3235)">
<path opacity="0.4" d="M11.8303 38.5H30.1703C35.0003 38.5 36.9253 35.5425 37.1528 31.9375L38.0628 17.4825C38.3078 13.7025 35.2978 10.5 31.5003 10.5C30.4328 10.5 29.4528 9.8875 28.9628 8.9425L27.7028 6.405C26.8978 4.8125 24.7978 3.5 23.0128 3.5H19.0053C17.2028 3.5 15.1028 4.8125 14.2978 6.405L13.0378 8.9425C12.5478 9.8875 11.5678 10.5 10.5003 10.5C6.70279 10.5 3.69279 13.7025 3.93779 17.4825L4.84779 31.9375C5.05779 35.5425 7.00029 38.5 11.8303 38.5Z" fill="#0A70FF"/>
<path d="M23.625 15.3125H18.375C17.6575 15.3125 17.0625 14.7175 17.0625 14C17.0625 13.2825 17.6575 12.6875 18.375 12.6875H23.625C24.3425 12.6875 24.9375 13.2825 24.9375 14C24.9375 14.7175 24.3425 15.3125 23.625 15.3125Z" fill="#0A70FF"/>
<path d="M21.0002 31.7275C24.2669 31.7275 26.9152 29.0792 26.9152 25.8125C26.9152 22.5457 24.2669 19.8975 21.0002 19.8975C17.7334 19.8975 15.0852 22.5457 15.0852 25.8125C15.0852 29.0792 17.7334 31.7275 21.0002 31.7275Z" fill="#0A70FF"/>
</g>
</g>
<defs>
<clipPath id="clip0_118_3235">
<rect width="42" height="42" fill="white"/>
</clipPath>
</defs>
</svg>
