<svg width="24" height="21" viewBox="0 0 24 21" fill="none" xmlns="http://www.w3.org/2000/svg">
<path d="M20.5158 8.51068V5.61139C20.5158 4.5117 19.6431 3.61953 18.5673 3.61953H15.5697C15.5618 1.61953 13.9735 0 12.0139 0C10.0544 0 8.46708 1.61851 8.45812 3.61953H5.46061C4.38481 3.61953 3.51203 4.5117 3.51203 5.61139V8.50966C1.56842 8.53306 0 10.1506 0 12.1434C0 14.1363 1.56842 15.7528 3.51203 15.7772V19.0081C3.51203 20.1078 4.38481 21 5.46061 21H18.5663C19.6421 21 20.5148 20.1078 20.5148 19.0081V15.7762C22.4465 15.7375 24 14.1261 24 12.1434C24 10.1607 22.4455 8.54934 20.5148 8.51068H20.5158ZM9.54487 10.1882C10.348 10.1882 10.9998 10.8535 10.9998 11.6755C10.9998 12.4975 10.349 13.1628 9.54487 13.1628C8.74075 13.1628 8.0899 12.4975 8.0899 11.6755C8.0899 10.8535 8.74075 10.1882 9.54487 10.1882ZM16.4684 17.3204H8.22524V15.6684H16.4684V17.3204ZM15.2911 13.1618C14.488 13.1618 13.8361 12.4964 13.8361 11.6745C13.8361 10.8525 14.487 10.1872 15.2911 10.1872C16.0952 10.1872 16.7461 10.8525 16.7461 11.6745C16.7461 12.4964 16.0952 13.1618 15.2911 13.1618Z" fill="#10B981"/>
</svg>
