<svg width="19" height="19" viewBox="0 0 19 19" fill="none" xmlns="http://www.w3.org/2000/svg">
<g clip-path="url(#clip0_118_3211)">
<mask id="mask0_118_3211" style="mask-type:luminance" maskUnits="userSpaceOnUse" x="0" y="0" width="19" height="19">
<path d="M19 0H0V19H19V0Z" fill="white"/>
</mask>
<g mask="url(#mask0_118_3211)">
<path opacity="0.4" d="M17.4167 6.18259V11.0038L16.1262 9.89551C15.5087 9.36509 14.5112 9.36509 13.8937 9.89551L10.6004 12.7218C9.98291 13.2522 8.98541 13.2522 8.36791 12.7218L8.09874 12.5001C7.53666 12.0093 6.64208 11.9618 6.00874 12.3893L2.11374 15.0018L2.02666 15.0651C1.73374 14.4318 1.58333 13.6797 1.58333 12.8168V6.18259C1.58333 3.30092 3.30124 1.58301 6.18291 1.58301H12.8171C15.6987 1.58301 17.4167 3.30092 17.4167 6.18259Z" fill="#FF8D28"/>
<path d="M7.12509 8.21754C8.16572 8.21754 9.00924 7.37398 9.00924 6.33339C9.00924 5.29279 8.16572 4.44922 7.12509 4.44922C6.08449 4.44922 5.24092 5.29279 5.24092 6.33339C5.24092 7.37398 6.08449 8.21754 7.12509 8.21754Z" fill="#FF8D28"/>
<path d="M17.4167 11.0032V12.8161C17.4167 15.6978 15.6988 17.4157 12.8172 17.4157H6.18295C4.1642 17.4157 2.70754 16.5686 2.0267 15.0645L2.11379 15.0011L6.00879 12.3886C6.64212 11.9611 7.5367 12.0086 8.09882 12.4995L8.36798 12.7211C8.98549 13.2515 9.98298 13.2515 10.6005 12.7211L13.8938 9.89488C14.5113 9.36447 15.5088 9.36447 16.1263 9.89488L17.4167 11.0032Z" fill="#FF8D28"/>
</g>
</g>
<defs>
<clipPath id="clip0_118_3211">
<rect width="19" height="19" fill="white"/>
</clipPath>
</defs>
</svg>
