<svg width="68" height="68" viewBox="0 0 68 68" fill="none" xmlns="http://www.w3.org/2000/svg">
<mask id="mask0_642_742" style="mask-type:luminance" maskUnits="userSpaceOnUse" x="0" y="0" width="68" height="68">
<path d="M68 0H0V68H68V0Z" fill="white"/>
</mask>
<g mask="url(#mask0_642_742)">
<path d="M54.1731 25.8408C53.0681 25.8408 52.1897 26.7192 52.1897 27.8242V32.301C52.1897 42.331 44.0297 50.491 33.9997 50.491C23.9698 50.491 15.8098 42.331 15.8098 32.301V27.7958C15.8098 26.6908 14.9315 25.8125 13.8265 25.8125C12.7215 25.8125 11.8431 26.6908 11.8431 27.7958V32.2726C11.8431 43.8043 20.7115 53.296 32.0164 54.316V60.351C32.0164 61.456 32.8947 62.3343 33.9997 62.3343C35.1047 62.3343 35.9831 61.456 35.9831 60.351V54.316C47.2597 53.3243 56.1564 43.8043 56.1564 32.2726V27.7958C56.1281 26.7192 55.2497 25.8408 54.1731 25.8408Z" fill="url(#paint0_linear_642_742)"/>
<path d="M34.0003 5.66699C27.0869 5.66699 21.4769 11.277 21.4769 18.1903V32.697C21.4769 39.6103 27.0869 45.2203 34.0003 45.2203C40.9136 45.2203 46.5236 39.6103 46.5236 32.697V18.1903C46.5236 11.277 40.9136 5.66699 34.0003 5.66699ZM37.712 25.3587C37.5136 26.0953 36.862 26.577 36.1253 26.577C35.9836 26.577 35.842 26.5487 35.7003 26.5203C34.5953 26.2087 33.4336 26.2087 32.3286 26.5203C31.422 26.7753 30.5436 26.237 30.317 25.3587C30.062 24.4803 30.6003 23.5737 31.4786 23.347C33.1503 22.8937 34.907 22.8937 36.5786 23.347C37.4286 23.5737 37.9386 24.4803 37.712 25.3587ZM39.2136 19.862C38.9586 20.542 38.3353 20.9387 37.6553 20.9387C37.457 20.9387 37.287 20.9103 37.0886 20.8537C35.1053 20.117 32.8953 20.117 30.912 20.8537C30.062 21.1653 29.0986 20.712 28.787 19.862C28.4753 19.012 28.9286 18.0487 29.7786 17.7653C32.4986 16.7737 35.502 16.7737 38.222 17.7653C39.072 18.077 39.5253 19.012 39.2136 19.862Z" fill="url(#paint1_linear_642_742)"/>
</g>
<rect opacity="0.4" x="10" y="34" width="21" height="21" rx="10.5" fill="#0A70FF"/>
<path fill-rule="evenodd" clip-rule="evenodd" d="M23.8504 37.1573C23.9514 37.0566 24.0883 37 24.231 37C24.3737 37 24.5106 37.0566 24.6115 37.1573L27.8425 40.3851C27.9434 40.486 28 40.6227 28 40.7653C28 40.9078 27.9434 41.0446 27.8425 41.1454L24.6115 44.3732C24.5622 44.4261 24.5028 44.4685 24.4367 44.4979C24.3707 44.5273 24.2994 44.5431 24.2271 44.5444C24.1548 44.5456 24.0829 44.5323 24.0159 44.5053C23.9488 44.4782 23.8879 44.438 23.8368 44.3869C23.7856 44.3358 23.7453 44.2749 23.7182 44.208C23.6912 44.141 23.6779 44.0692 23.6791 43.997C23.6804 43.9248 23.6962 43.8535 23.7257 43.7875C23.7551 43.7215 23.7975 43.6621 23.8504 43.6129L26.1624 41.3032H17.769C17.6262 41.3032 17.4892 41.2466 17.3882 41.1457C17.2872 41.0448 17.2305 40.9079 17.2305 40.7653C17.2305 40.6226 17.2872 40.4858 17.3882 40.3849C17.4892 40.284 17.6262 40.2273 17.769 40.2273H26.1624L23.8504 37.9177C23.7496 37.8168 23.693 37.6801 23.693 37.5375C23.693 37.3949 23.7496 37.2582 23.8504 37.1573ZM18.1496 43.6129C18.2504 43.7138 18.307 43.8505 18.307 43.9931C18.307 44.1356 18.2504 44.2723 18.1496 44.3732L15.8376 46.6829H24.231C24.3738 46.6829 24.5108 46.7396 24.6118 46.8404C24.7128 46.9413 24.7695 47.0782 24.7695 47.2208C24.7695 47.3635 24.7128 47.5003 24.6118 47.6012C24.5108 47.7021 24.3738 47.7588 24.231 47.7588H15.8376L18.1496 50.0685C18.2025 50.1177 18.2449 50.1771 18.2743 50.2431C18.3038 50.3091 18.3196 50.3803 18.3209 50.4525C18.3221 50.5248 18.3088 50.5965 18.2818 50.6635C18.2547 50.7305 18.2144 50.7914 18.1632 50.8424C18.1121 50.8935 18.0512 50.9338 17.9841 50.9608C17.9171 50.9879 17.8452 51.0012 17.7729 50.9999C17.7006 50.9986 17.6293 50.9828 17.5633 50.9534C17.4972 50.924 17.4378 50.8816 17.3885 50.8288L14.1575 47.601C14.0566 47.5001 14 47.3634 14 47.2208C14 47.0783 14.0566 46.9415 14.1575 46.8407L17.3885 43.6129C17.4894 43.5122 17.6263 43.4556 17.769 43.4556C17.9117 43.4556 18.0486 43.5122 18.1496 43.6129Z" fill="white"/>
<circle cx="50" cy="15" r="11" fill="#34C759"/>
<path d="M50.1624 17.296H46.6704L46.0704 19H44.6424L47.6304 10.648H49.2144L52.2024 19H50.7624L50.1624 17.296ZM49.7784 16.18L48.4224 12.304L47.0544 16.18H49.7784ZM54.1976 11.512C53.9496 11.512 53.7416 11.428 53.5736 11.26C53.4056 11.092 53.3216 10.884 53.3216 10.636C53.3216 10.388 53.4056 10.18 53.5736 10.012C53.7416 9.844 53.9496 9.76 54.1976 9.76C54.4376 9.76 54.6416 9.844 54.8096 10.012C54.9776 10.18 55.0616 10.388 55.0616 10.636C55.0616 10.884 54.9776 11.092 54.8096 11.26C54.6416 11.428 54.4376 11.512 54.1976 11.512ZM54.8696 12.388V19H53.5016V12.388H54.8696Z" fill="white"/>
<defs>
<linearGradient id="paint0_linear_642_742" x1="33.9998" y1="25.8125" x2="33.9998" y2="62.3343" gradientUnits="userSpaceOnUse">
<stop stop-color="#03B7FF"/>
<stop offset="1" stop-color="#0A70FF"/>
</linearGradient>
<linearGradient id="paint1_linear_642_742" x1="34.0003" y1="5.66699" x2="34.0003" y2="45.2203" gradientUnits="userSpaceOnUse">
<stop stop-color="#03B7FF"/>
<stop offset="1" stop-color="#0A70FF"/>
</linearGradient>
</defs>
</svg>
