<svg width="50" height="50" viewBox="0 0 50 50" fill="none" xmlns="http://www.w3.org/2000/svg">
<g clip-path="url(#clip0_118_2613)">
<mask id="mask0_118_2613" style="mask-type:luminance" maskUnits="userSpaceOnUse" x="0" y="0" width="50" height="50">
<path d="M50 0H0V50H50V0Z" fill="white"/>
</mask>
<g mask="url(#mask0_118_2613)">
<path d="M39.8331 19.0003C39.0206 19.0003 38.3748 19.6462 38.3748 20.4587V23.7504C38.3748 31.1254 32.3748 37.1254 24.9998 37.1254C17.6249 37.1254 11.6249 31.1254 11.6249 23.7504V20.4378C11.6249 19.6253 10.979 18.9795 10.1665 18.9795C9.35402 18.9795 8.70819 19.6253 8.70819 20.4378V23.7296C8.70819 32.2088 15.229 39.1879 23.5415 39.9379V44.3754C23.5415 45.1879 24.1873 45.8338 24.9998 45.8338C25.8123 45.8338 26.4581 45.1879 26.4581 44.3754V39.9379C34.7498 39.2088 41.2915 32.2088 41.2915 23.7296V20.4378C41.2706 19.6462 40.6248 19.0003 39.8331 19.0003Z" fill="black"/>
<path d="M25.0002 4.16699C19.9168 4.16699 15.7918 8.29199 15.7918 13.3753V24.042C15.7918 29.1253 19.9168 33.2503 25.0002 33.2503C30.0835 33.2503 34.2085 29.1253 34.2085 24.042V13.3753C34.2085 8.29199 30.0835 4.16699 25.0002 4.16699ZM27.7293 18.6462C27.5835 19.1878 27.1044 19.542 26.5627 19.542C26.4585 19.542 26.3543 19.5212 26.2502 19.5003C25.4377 19.2712 24.5835 19.2712 23.771 19.5003C23.1044 19.6878 22.4585 19.292 22.2919 18.6462C22.1044 18.0003 22.5002 17.3337 23.146 17.167C24.3752 16.8337 25.6669 16.8337 26.896 17.167C27.521 17.3337 27.896 18.0003 27.7293 18.6462ZM28.8335 14.6045C28.646 15.1045 28.1877 15.3962 27.6877 15.3962C27.5419 15.3962 27.4169 15.3753 27.271 15.3337C25.8127 14.792 24.1877 14.792 22.7294 15.3337C22.1044 15.5628 21.396 15.2295 21.1669 14.6045C20.9377 13.9795 21.271 13.2712 21.896 13.0628C23.896 12.3337 26.1044 12.3337 28.1044 13.0628C28.7294 13.292 29.0627 13.9795 28.8335 14.6045Z" fill="black"/>
</g>
</g>
<defs>
<clipPath id="clip0_118_2613">
<rect width="50" height="50" fill="white"/>
</clipPath>
</defs>
</svg>
