<svg width="26" height="26" viewBox="0 0 26 26" fill="none" xmlns="http://www.w3.org/2000/svg">
<path d="M12.4367 3.79049C12.4825 3.67872 12.5605 3.58311 12.6608 3.51582C12.7611 3.44853 12.8792 3.4126 13 3.4126C13.1208 3.4126 13.2389 3.44853 13.3392 3.51582C13.4395 3.58311 13.5175 3.67872 13.5633 3.79049L15.8654 9.32741C15.9085 9.43101 15.9793 9.52072 16.0701 9.58666C16.1609 9.6526 16.2681 9.69222 16.38 9.70116L22.3578 10.18C22.8984 10.2233 23.1173 10.8982 22.7056 11.2503L18.1512 15.1525C18.0662 15.2253 18.0028 15.3201 17.968 15.4265C17.9332 15.533 17.9284 15.6469 17.9541 15.7559L19.3462 21.5897C19.3741 21.7067 19.3668 21.8294 19.3251 21.9423C19.2834 22.0552 19.2091 22.1531 19.1118 22.2239C19.0144 22.2946 18.8983 22.3348 18.778 22.3396C18.6578 22.3443 18.5388 22.3133 18.4362 22.2505L13.3174 19.1251C13.2218 19.0667 13.112 19.0358 13 19.0358C12.888 19.0358 12.7782 19.0667 12.6826 19.1251L7.56383 22.2516C7.46119 22.3144 7.34224 22.3454 7.222 22.3407C7.10175 22.3359 6.9856 22.2956 6.88823 22.2249C6.79086 22.1542 6.71663 22.0562 6.67491 21.9434C6.63319 21.8305 6.62585 21.7078 6.65383 21.5907L8.04592 15.7559C8.07173 15.6469 8.06699 15.5329 8.0322 15.4265C7.99742 15.32 7.93394 15.2252 7.84875 15.1525L3.29442 11.2503C3.2027 11.1721 3.13626 11.0685 3.10349 10.9525C3.07072 10.8366 3.07311 10.7135 3.11035 10.5989C3.14758 10.4842 3.218 10.3833 3.31267 10.3087C3.40734 10.2341 3.52202 10.1893 3.64217 10.18L9.62 9.70116C9.73185 9.69222 9.83907 9.6526 9.92986 9.58666C10.0207 9.52072 10.0915 9.43101 10.1346 9.32741L12.4367 3.79049Z" stroke="#9E9E9E" stroke-width="1.5" stroke-linecap="round" stroke-linejoin="round"/>
</svg>
