<svg width="393" height="90" viewBox="0 0 393 90" fill="none" xmlns="http://www.w3.org/2000/svg">
<g clip-path="url(#clip0_118_2553)">
<path d="M72.4634 89.9996C84.4505 89.9996 96.7497 86.0715 109.769 81.9161C123.423 77.5568 137.543 73.0486 151.959 73.0486C166.376 73.0486 180.493 77.5568 194.15 81.9161C207.169 86.0741 219.468 89.9996 231.455 89.9996C231.663 89.9996 231.832 89.8297 231.832 89.6206C231.832 89.4115 231.663 89.2417 231.455 89.2417C219.585 89.2417 207.341 85.3319 194.376 81.1922C180.667 76.8146 166.49 72.2881 151.959 72.2881C137.429 72.2881 123.252 76.8146 109.543 81.1922C96.5806 85.3319 84.3361 89.2417 72.4634 89.2417C72.2554 89.2417 72.0863 89.4115 72.0863 89.6206C72.0863 89.8297 72.2554 89.9996 72.4634 89.9996Z" fill="#0A70FF"/>
<path d="M231.455 89.9991C238.272 89.9991 245.253 87.7698 252.642 85.4099C260.366 82.9428 268.353 80.392 276.496 80.392C284.639 80.392 292.626 82.9428 300.351 85.4099C307.739 87.7698 314.72 89.9991 321.537 89.9991C321.745 89.9991 321.914 89.8292 321.914 89.6202C321.914 89.4111 321.745 89.2412 321.537 89.2412C314.837 89.2412 307.911 87.0302 300.579 84.6885C292.8 82.2058 284.756 79.6367 276.499 79.6367C268.241 79.6367 260.197 82.2058 252.418 84.6885C245.086 87.0302 238.16 89.2412 231.461 89.2412C231.253 89.2412 231.083 89.4111 231.083 89.6202C231.083 89.8292 231.253 89.9991 231.461 89.9991H231.455Z" fill="#0A70FF"/>
<path d="M14.8662 89.9993C19.2225 89.9993 23.6855 89.1394 28.4112 88.23C33.3501 87.2787 38.458 86.296 43.6648 86.296C48.8716 86.296 53.9796 87.2787 58.9185 88.23C63.6442 89.1394 68.1071 89.9993 72.4635 89.9993C72.6715 89.9993 72.8406 89.8294 72.8406 89.6203C72.8406 89.4113 72.6715 89.2414 72.4635 89.2414C68.1773 89.2414 63.7482 88.3894 59.059 87.4851C54.0862 86.5286 48.9418 85.5381 43.6622 85.5381C38.3826 85.5381 33.2408 86.5286 28.2655 87.4851C23.5763 88.3868 19.1471 89.2414 14.861 89.2414C14.6529 89.2414 14.4839 89.4113 14.4839 89.6203C14.4839 89.8294 14.6529 89.9993 14.861 89.9993H14.8662Z" fill="#0A70FF"/>
<path d="M321.534 89.9993C325.89 89.9993 330.353 89.1394 335.079 88.23C340.018 87.2787 345.126 86.296 350.333 86.296C355.539 86.296 360.647 87.2787 365.586 88.23C370.312 89.1394 374.775 89.9993 379.131 89.9993C379.339 89.9993 379.508 89.8294 379.508 89.6203C379.508 89.4113 379.339 89.2414 379.131 89.2414C374.845 89.2414 370.416 88.3894 365.727 87.4851C360.754 86.5286 355.61 85.5381 350.33 85.5381C345.05 85.5381 339.909 86.5286 334.933 87.4851C330.244 88.3868 325.815 89.2414 321.529 89.2414C321.321 89.2414 321.152 89.4113 321.152 89.6203C321.152 89.8294 321.321 89.9993 321.529 89.9993H321.534Z" fill="#0A70FF"/>
<path d="M72.4634 89.9997C84.4219 89.9997 96.7081 88.037 109.715 85.9619C123.382 83.7796 137.515 81.5242 151.959 81.5242C166.404 81.5242 180.537 83.7796 194.204 85.9619C207.211 88.0396 219.497 89.9997 231.455 89.9997C231.663 89.9997 231.832 89.8298 231.832 89.6207C231.832 89.4116 231.663 89.2418 231.455 89.2418C219.557 89.2418 207.299 87.2843 194.321 85.2118C180.625 83.0243 166.464 80.7637 151.959 80.7637C137.455 80.7637 123.293 83.0243 109.598 85.2118C96.6196 87.2843 84.3621 89.2418 72.4634 89.2418C72.2554 89.2418 72.0863 89.4116 72.0863 89.6207C72.0863 89.8298 72.2554 89.9997 72.4634 89.9997Z" fill="#0A70FF"/>
<path d="M231.455 89.9999C238.243 89.9999 245.211 88.8866 252.587 87.7105C260.324 86.4744 268.324 85.199 276.496 85.199C284.668 85.199 292.668 86.477 300.405 87.7105C307.781 88.8892 314.749 89.9999 321.537 89.9999C321.745 89.9999 321.914 89.8301 321.914 89.621C321.914 89.4119 321.745 89.242 321.537 89.242C314.808 89.242 307.869 88.1339 300.525 86.9605C292.759 85.7217 284.728 84.4385 276.499 84.4385C268.27 84.4385 260.238 85.7217 252.472 86.9605C245.128 88.1339 238.189 89.242 231.461 89.242C231.253 89.242 231.083 89.4119 231.083 89.621C231.083 89.8301 231.253 89.9999 231.461 89.9999H231.455Z" fill="#0A70FF"/>
<path d="M14.8662 89.9998C19.2069 89.9998 23.6595 89.5712 28.3773 89.1165C33.324 88.6408 38.4424 88.1469 43.6674 88.1469C48.8924 88.1469 54.0082 88.6382 58.9575 89.1165C63.6727 89.5712 68.1279 89.9998 72.4686 89.9998C72.6767 89.9998 72.8457 89.83 72.8457 89.6209C72.8457 89.4118 72.6767 89.2419 72.4686 89.2419C68.1643 89.2419 63.7274 88.8159 59.0303 88.3638C54.0654 87.8855 48.9314 87.3916 43.67 87.3916C38.4086 87.3916 33.2746 87.8855 28.3097 88.3638C23.6127 88.8159 19.1757 89.2419 14.8714 89.2419C14.6633 89.2419 14.4943 89.4118 14.4943 89.6209C14.4943 89.83 14.6633 89.9998 14.8714 89.9998H14.8662Z" fill="#0A70FF"/>
<path d="M321.534 89.9998C325.875 89.9998 330.327 89.5712 335.045 89.1165C339.992 88.6408 345.11 88.1469 350.335 88.1469C355.56 88.1469 360.676 88.6382 365.625 89.1165C370.341 89.5712 374.796 89.9998 379.136 89.9998C379.345 89.9998 379.514 89.83 379.514 89.6209C379.514 89.4118 379.345 89.2419 379.136 89.2419C374.832 89.2419 370.395 88.8159 365.698 88.3638C360.733 87.8855 355.599 87.3916 350.338 87.3916C345.076 87.3916 339.942 87.8855 334.978 88.3638C330.281 88.8159 325.844 89.2419 321.539 89.2419C321.331 89.2419 321.162 89.4118 321.162 89.6209C321.162 89.83 321.331 89.9998 321.539 89.9998H321.534Z" fill="#0A70FF"/>
<path d="M72.466 89.9999C84.4869 89.9999 96.7965 83.6309 109.832 76.8881C123.473 69.8291 137.58 62.5323 151.962 62.5323C166.344 62.5323 180.451 69.8317 194.092 76.8881C207.125 83.6309 219.437 89.9999 231.458 89.9999C231.666 89.9999 231.835 89.83 231.835 89.6209C231.835 89.4118 231.666 89.242 231.458 89.242C219.622 89.242 207.388 82.9148 194.438 76.2138C180.716 69.1156 166.529 61.7744 151.962 61.7744C137.395 61.7744 123.208 69.1156 109.486 76.2138C96.5364 82.9148 84.3023 89.242 72.466 89.242C72.258 89.242 72.0889 89.4118 72.0889 89.6209C72.0889 89.83 72.258 89.9999 72.466 89.9999Z" fill="#0A70FF"/>
<path d="M231.455 90.0001C238.306 90.0001 245.297 86.3831 252.699 82.5518C260.41 78.561 268.384 74.4369 276.493 74.4369C284.603 74.4369 292.577 78.5636 300.288 82.5518C307.69 86.3805 314.683 90.0001 321.531 90.0001C321.739 90.0001 321.908 89.8303 321.908 89.6212C321.908 89.4121 321.739 89.2422 321.531 89.2422C314.863 89.2422 307.95 85.6644 300.631 81.8801C292.839 77.8501 284.782 73.6816 276.491 73.6816C268.199 73.6816 260.142 77.8501 252.35 81.8801C245.031 85.667 238.119 89.2448 231.45 89.2448C231.242 89.2448 231.073 89.4147 231.073 89.6238C231.073 89.8329 231.242 90.0028 231.45 90.0028L231.455 90.0001Z" fill="#0A70FF"/>
<path d="M14.8662 89.9996C19.2433 89.9996 23.7167 88.604 28.4527 87.1274C33.3839 85.5907 38.4814 83.9991 43.6674 83.9991C48.8534 83.9991 53.951 85.5881 58.8821 87.1274C63.6155 88.604 68.0889 89.9996 72.4686 89.9996C72.6767 89.9996 72.8457 89.8298 72.8457 89.6207C72.8457 89.4116 72.6767 89.2417 72.4686 89.2417C68.2033 89.2417 63.7846 87.8644 59.1057 86.4035C54.1226 84.8485 48.9704 83.2412 43.67 83.2412C38.3696 83.2412 33.2174 84.8485 28.2343 86.4035C23.5554 87.8618 19.1367 89.2417 14.8714 89.2417C14.6633 89.2417 14.4943 89.4116 14.4943 89.6207C14.4943 89.8298 14.6633 89.9996 14.8714 89.9996H14.8662Z" fill="#0A70FF"/>
<path d="M321.534 89.9996C325.911 89.9996 330.385 88.604 335.121 87.1274C340.052 85.5907 345.149 83.9991 350.335 83.9991C355.521 83.9991 360.619 85.5881 365.55 87.1274C370.286 88.604 374.757 89.9996 379.136 89.9996C379.345 89.9996 379.514 89.8298 379.514 89.6207C379.514 89.4116 379.345 89.2417 379.136 89.2417C374.871 89.2417 370.452 87.8644 365.774 86.4035C360.79 84.8485 355.638 83.2412 350.338 83.2412C345.037 83.2412 339.885 84.8485 334.902 86.4035C330.223 87.8618 325.805 89.2417 321.539 89.2417C321.331 89.2417 321.162 89.4116 321.162 89.6207C321.162 89.8298 321.331 89.9996 321.539 89.9996H321.534Z" fill="#0A70FF"/>
<path d="M72.4661 90.0002C84.513 90.0002 96.8329 81.3105 109.873 72.1111C123.507 62.4935 137.606 52.5492 151.959 52.5492C166.313 52.5492 180.412 62.4935 194.046 72.1111C207.089 81.3105 219.406 90.0002 231.455 90.0002C231.663 90.0002 231.832 89.8304 231.832 89.6213C231.832 89.4122 231.663 89.2423 231.455 89.2423C219.645 89.2423 207.421 80.6205 194.48 71.4917C180.75 61.8088 166.552 51.7939 151.962 51.7939C137.372 51.7939 123.171 61.8088 109.444 71.4917C96.5026 80.6205 84.2789 89.2423 72.4687 89.2423C72.2606 89.2423 72.0916 89.4122 72.0916 89.6213C72.0916 89.8304 72.2606 90.0002 72.4687 90.0002H72.4661Z" fill="#0A70FF"/>
<path d="M231.455 90.0001C238.332 90.0001 245.333 85.0633 252.743 79.8363C260.446 74.4029 268.413 68.784 276.493 68.784C284.574 68.784 292.54 74.4029 300.244 79.8363C307.656 85.0633 314.655 90.0001 321.531 90.0001C321.739 90.0001 321.908 89.8302 321.908 89.6211C321.908 89.4121 321.739 89.2422 321.531 89.2422C314.892 89.2422 307.986 84.3707 300.676 79.2143C292.876 73.713 284.811 68.0234 276.491 68.0234C268.171 68.0234 260.106 73.713 252.306 79.2143C244.995 84.3707 238.09 89.2422 231.45 89.2422C231.242 89.2422 231.073 89.4121 231.073 89.6211C231.073 89.8302 231.242 90.0001 231.45 90.0001H231.455Z" fill="#0A70FF"/>
<path d="M14.8662 90.0006C19.2641 90.0006 23.7427 88.0953 28.4866 86.0777C33.4073 83.9844 38.497 81.8204 43.6648 81.8204C48.8326 81.8204 53.9224 83.9844 58.8431 86.0777C63.5869 88.0953 68.0655 90.0006 72.4634 90.0006C72.6715 90.0006 72.8406 89.8307 72.8406 89.6216C72.8406 89.4125 72.6715 89.2427 72.4634 89.2427C68.2189 89.2427 63.8054 87.3662 59.137 85.3799C54.146 83.2578 48.9834 81.0625 43.6648 81.0625C38.3462 81.0625 33.1836 83.2578 28.1927 85.3799C23.5216 87.3662 19.1107 89.2427 14.8662 89.2427C14.6581 89.2427 14.4891 89.4125 14.4891 89.6216C14.4891 89.8307 14.6581 90.0006 14.8662 90.0006Z" fill="#0A70FF"/>
<path d="M321.534 90.0006C325.932 90.0006 330.411 88.0953 335.154 86.0777C340.075 83.9844 345.165 81.8204 350.333 81.8204C355.5 81.8204 360.59 83.9844 365.511 86.0777C370.255 88.0953 374.733 90.0006 379.131 90.0006C379.339 90.0006 379.508 89.8307 379.508 89.6216C379.508 89.4125 379.339 89.2427 379.131 89.2427C374.887 89.2427 370.473 87.3662 365.805 85.3799C360.814 83.2578 355.651 81.0625 350.333 81.0625C345.014 81.0625 339.851 83.2578 334.86 85.3799C330.189 87.3662 325.778 89.2427 321.534 89.2427C321.326 89.2427 321.157 89.4125 321.157 89.6216C321.157 89.8307 321.326 90.0006 321.534 90.0006Z" fill="#0A70FF"/>
<path d="M72.466 89.9996C84.5363 89.9996 96.8615 79.0152 109.907 67.3852C123.535 55.2352 137.629 42.6749 151.959 42.6749C166.29 42.6749 180.383 55.2378 194.012 67.3852C207.06 79.0152 219.382 89.9996 231.453 89.9996C231.661 89.9996 231.83 89.8297 231.83 89.6206C231.83 89.4116 231.661 89.2417 231.453 89.2417C219.666 89.2417 207.447 78.3487 194.511 66.8181C180.776 54.5766 166.576 41.917 151.959 41.917C137.343 41.917 123.14 54.5766 109.408 66.8181C96.4714 78.3514 84.2503 89.2417 72.466 89.2417C72.258 89.2417 72.0889 89.4116 72.0889 89.6206C72.0889 89.8297 72.258 89.9996 72.466 89.9996Z" fill="#0A70FF"/>
<path d="M231.455 89.9998C238.355 89.9998 245.362 83.7563 252.777 77.1468C260.475 70.2838 268.436 63.1883 276.493 63.1883C284.551 63.1883 292.512 70.2838 300.213 77.1468C307.627 83.7563 314.634 89.9998 321.534 89.9998C321.742 89.9998 321.911 89.83 321.911 89.6209C321.911 89.4118 321.742 89.2419 321.534 89.2419C314.918 89.2419 308.018 83.0898 300.712 76.5771C292.907 69.62 284.837 62.4277 276.496 62.4277C268.155 62.4277 260.082 69.62 252.28 76.5771C244.974 83.0898 238.072 89.2419 231.458 89.2419C231.25 89.2419 231.081 89.4118 231.081 89.6209C231.081 89.83 231.25 89.9998 231.458 89.9998H231.455Z" fill="#0A70FF"/>
<path d="M14.8662 89.9994C19.2824 89.9994 23.7687 87.5872 28.5178 85.0365C33.4333 82.3943 38.5179 79.6632 43.6648 79.6632C48.8118 79.6632 53.8964 82.3943 58.8119 85.0365C63.5609 87.5898 68.0473 89.9994 72.4635 89.9994C72.6715 89.9994 72.8406 89.8296 72.8406 89.6205C72.8406 89.4114 72.6715 89.2415 72.4635 89.2415C68.2372 89.2415 63.8314 86.8737 59.1656 84.3674C54.1668 81.6808 49.0017 78.9053 43.6622 78.9053C38.3228 78.9053 33.1576 81.6834 28.1589 84.3674C23.4956 86.8737 19.0899 89.2415 14.861 89.2415C14.6529 89.2415 14.4839 89.4114 14.4839 89.6205C14.4839 89.8296 14.6529 89.9994 14.861 89.9994H14.8662Z" fill="#0A70FF"/>
<path d="M321.534 89.9994C325.95 89.9994 330.436 87.5872 335.186 85.0365C340.101 82.3943 345.186 79.6632 350.333 79.6632C355.48 79.6632 360.564 82.3943 365.48 85.0365C370.229 87.5898 374.715 89.9994 379.131 89.9994C379.339 89.9994 379.508 89.8296 379.508 89.6205C379.508 89.4114 379.339 89.2415 379.131 89.2415C374.905 89.2415 370.499 86.8737 365.833 84.3674C360.835 81.6808 355.669 78.9053 350.33 78.9053C344.991 78.9053 339.825 81.6834 334.827 84.3674C330.163 86.8737 325.758 89.2415 321.529 89.2415C321.321 89.2415 321.152 89.4114 321.152 89.6205C321.152 89.8296 321.321 89.9994 321.529 89.9994H321.534Z" fill="#0A70FF"/>
<path d="M72.466 90.0003C84.5598 90.0003 96.8849 76.6742 109.933 62.5641C123.559 47.8294 137.65 32.5955 151.959 32.5955C166.269 32.5955 180.36 47.832 193.986 62.5641C207.036 76.6742 219.362 90.0003 231.453 90.0003C231.661 90.0003 231.83 89.8304 231.83 89.6214C231.83 89.4123 231.661 89.2424 231.453 89.2424C219.689 89.2424 207.471 76.0313 194.537 62.0467C180.8 47.1943 166.597 31.835 151.959 31.835C137.322 31.835 123.117 47.1917 109.382 62.0467C96.448 76.0313 84.2295 89.2424 72.466 89.2424C72.258 89.2424 72.0889 89.4123 72.0889 89.6214C72.0889 89.8304 72.258 90.0003 72.466 90.0003Z" fill="#0A70FF"/>
<path d="M231.455 90.0003C238.379 90.0003 245.385 82.4238 252.803 74.4031C260.498 66.0818 268.457 57.4757 276.493 57.4757C284.53 57.4757 292.488 66.0818 300.187 74.4031C307.604 82.4238 314.613 90.0003 321.534 90.0003C321.742 90.0003 321.911 89.8304 321.911 89.6213C321.911 89.4123 321.742 89.2424 321.534 89.2424C314.938 89.2424 308.041 81.7835 300.738 73.8856C292.93 65.4441 284.86 56.7178 276.496 56.7178C268.132 56.7178 260.059 65.4468 252.254 73.8856C244.951 81.7835 238.051 89.2424 231.458 89.2424C231.25 89.2424 231.081 89.4123 231.081 89.6213C231.081 89.8304 231.25 90.0003 231.458 90.0003H231.455Z" fill="#0A70FF"/>
<path d="M14.8662 90.0005C19.2979 90.0005 23.7895 87.0734 28.5438 83.9738C33.4541 80.7723 38.5334 77.4636 43.6648 77.4636C48.7962 77.4636 53.8755 80.7749 58.7859 83.9738C63.5401 87.0734 68.0317 90.0005 72.4634 90.0005C72.6715 90.0005 72.8406 89.8306 72.8406 89.6215C72.8406 89.4124 72.6715 89.2425 72.4634 89.2425C68.2528 89.2425 63.8522 86.373 59.1942 83.3361C54.1902 80.0745 49.0199 76.7031 43.6648 76.7031C38.3098 76.7031 33.1368 80.0745 28.1355 83.3361C23.4774 86.373 19.0769 89.2425 14.8662 89.2425C14.6581 89.2425 14.4891 89.4124 14.4891 89.6215C14.4891 89.8306 14.6581 90.0005 14.8662 90.0005Z" fill="#0A70FF"/>
<path d="M321.534 90.0005C325.966 90.0005 330.457 87.0734 335.212 83.9738C340.122 80.7723 345.201 77.4636 350.333 77.4636C355.464 77.4636 360.543 80.7749 365.454 83.9738C370.208 87.0734 374.699 90.0005 379.131 90.0005C379.339 90.0005 379.508 89.8306 379.508 89.6215C379.508 89.4124 379.339 89.2425 379.131 89.2425C374.921 89.2425 370.52 86.373 365.862 83.3361C360.858 80.0745 355.688 76.7031 350.333 76.7031C344.978 76.7031 339.805 80.0745 334.803 83.3361C330.145 86.373 325.745 89.2425 321.534 89.2425C321.326 89.2425 321.157 89.4124 321.157 89.6215C321.157 89.8306 321.326 90.0005 321.534 90.0005Z" fill="#0A70FF"/>
<path d="M72.466 89.9999C84.578 89.9999 96.9057 74.0028 109.957 57.0702C123.582 39.3874 137.673 21.1036 151.962 21.1036C166.251 21.1036 180.342 39.3874 193.967 57.0702C207.018 74.0054 219.343 89.9999 231.458 89.9999C231.666 89.9999 231.835 89.83 231.835 89.6209C231.835 89.4118 231.666 89.242 231.458 89.242C226.204 89.242 220.316 85.9568 213.463 79.2036C207.278 73.1064 201.101 65.0909 194.563 56.605C180.826 38.7785 166.62 20.3457 151.962 20.3457C137.304 20.3457 123.098 38.7785 109.361 56.605C102.823 65.0909 96.6457 73.1064 90.461 79.2036C83.6079 85.9594 77.7223 89.242 72.466 89.242C72.258 89.242 72.0889 89.4118 72.0889 89.6209C72.0889 89.83 72.258 89.9999 72.466 89.9999Z" fill="#0A70FF"/>
<path d="M231.455 89.9997C238.399 89.9997 245.406 80.9074 252.826 71.2794C260.522 61.2934 268.48 50.9649 276.496 50.9649C284.512 50.9649 292.47 61.2907 300.166 71.2794C307.586 80.9074 314.592 89.9997 321.537 89.9997C321.745 89.9997 321.914 89.8298 321.914 89.6207C321.914 89.4117 321.745 89.2418 321.537 89.2418C314.962 89.2418 308.064 80.2907 300.761 70.8142C292.954 60.6844 284.881 50.207 276.496 50.207C268.111 50.207 260.038 60.6818 252.231 70.8142C244.927 80.2907 238.03 89.2418 231.455 89.2418C231.247 89.2418 231.078 89.4117 231.078 89.6207C231.078 89.8298 231.247 89.9997 231.455 89.9997Z" fill="#0A70FF"/>
<path d="M14.8662 89.9996C19.3161 89.9996 23.8129 86.4819 28.5724 82.7603C33.4801 78.9211 38.5516 74.9513 43.6674 74.9513C48.7832 74.9513 53.8547 78.9211 58.7624 82.7603C63.5219 86.4845 68.0161 89.9996 72.4686 89.9996C72.6767 89.9996 72.8457 89.8297 72.8457 89.6207C72.8457 89.4116 72.6767 89.2417 72.4686 89.2417C68.2761 89.2417 63.8808 85.8024 59.2254 82.1618C54.2188 78.2442 49.0406 74.1934 43.67 74.1934C38.2994 74.1934 33.1212 78.2442 28.1146 82.1618C23.4592 85.8024 19.0639 89.2417 14.8714 89.2417C14.6633 89.2417 14.4943 89.4116 14.4943 89.6207C14.4943 89.8297 14.6633 89.9996 14.8714 89.9996H14.8662Z" fill="#0A70FF"/>
<path d="M321.534 89.9996C325.984 89.9996 330.481 86.4819 335.24 82.7603C340.148 78.9211 345.219 74.9513 350.335 74.9513C355.451 74.9513 360.523 78.9211 365.43 82.7603C370.19 86.4845 374.684 89.9996 379.136 89.9996C379.345 89.9996 379.514 89.8297 379.514 89.6207C379.514 89.4116 379.345 89.2417 379.136 89.2417C374.944 89.2417 370.549 85.8024 365.893 82.1618C360.887 78.2442 355.709 74.1934 350.338 74.1934C344.967 74.1934 339.789 78.2442 334.782 82.1618C330.127 85.8024 325.732 89.2417 321.539 89.2417C321.331 89.2417 321.162 89.4116 321.162 89.6207C321.162 89.8297 321.331 89.9996 321.539 89.9996H321.534Z" fill="#0A70FF"/>
<path d="M72.466 90C84.6091 90 96.9317 69.283 109.983 47.3508C123.608 24.4438 137.699 0.755292 151.959 0.755292C166.22 0.755292 180.311 24.4412 193.939 47.3482C206.987 69.2804 219.312 89.9974 231.455 89.9974C231.663 89.9974 231.832 89.8275 231.832 89.6184C231.832 89.4094 231.663 89.2395 231.455 89.2395C226.22 89.2395 220.345 84.9874 213.494 76.2401C207.307 68.3396 201.127 57.9537 194.586 46.9588C180.852 23.874 166.646 0 151.959 0C137.273 0 123.07 23.874 109.332 46.9614C102.791 57.9563 96.6118 68.3422 90.4245 76.2427C83.574 84.99 77.6988 89.2421 72.4634 89.2421C72.2554 89.2421 72.0863 89.412 72.0863 89.6211C72.0863 89.8301 72.2554 90 72.4634 90H72.466Z" fill="#0A70FF"/>
<path d="M231.455 89.9997C238.428 89.9997 245.432 78.2234 252.849 65.7572C260.548 52.8179 268.506 39.4395 276.493 39.4395C284.48 39.4395 292.441 52.8179 300.137 65.7572C307.555 78.226 314.561 89.9997 321.531 89.9997C321.739 89.9997 321.908 89.8298 321.908 89.6208C321.908 89.4117 321.739 89.2418 321.531 89.2418C318.618 89.2418 315.331 86.8531 311.482 81.9398C307.981 77.4707 304.483 71.593 300.782 65.3678C292.977 52.2482 284.904 38.6816 276.491 38.6816C268.077 38.6816 260.007 52.2482 252.199 65.3678C248.496 71.593 244.998 77.4734 241.5 81.9398C237.65 86.8531 234.363 89.2418 231.45 89.2418C231.242 89.2418 231.073 89.4117 231.073 89.6208C231.073 89.8298 231.242 89.9997 231.45 89.9997H231.455Z" fill="#0A70FF"/>
<path d="M14.8662 90.0001C19.3448 90.0001 23.8441 85.4396 28.6062 80.6125C33.5087 75.6443 38.5777 70.5063 43.6648 70.5063C48.752 70.5063 53.8209 75.6443 58.7234 80.6125C63.4881 85.4396 67.9875 90.0001 72.4634 90.0001C72.6715 90.0001 72.8406 89.8303 72.8406 89.6212C72.8406 89.4121 72.6715 89.2422 72.4634 89.2422C68.2996 89.2422 63.9068 84.7915 59.2566 80.0794C54.2449 75.0014 49.0641 69.751 43.6648 69.751C38.2656 69.751 33.0822 75.0014 28.073 80.0794C23.4228 84.7915 19.0301 89.2422 14.8662 89.2422C14.6581 89.2422 14.4891 89.4121 14.4891 89.6212C14.4891 89.8303 14.6581 90.0001 14.8662 90.0001Z" fill="#0A70FF"/>
<path d="M321.534 90.0001C326.013 90.0001 330.512 85.4396 335.274 80.6125C340.176 75.6443 345.245 70.5063 350.333 70.5063C355.42 70.5063 360.489 75.6443 365.391 80.6125C370.156 85.4396 374.655 90.0001 379.131 90.0001C379.339 90.0001 379.508 89.8303 379.508 89.6212C379.508 89.4121 379.339 89.2422 379.131 89.2422C374.967 89.2422 370.575 84.7915 365.924 80.0794C360.913 75.0014 355.732 69.751 350.333 69.751C344.933 69.751 339.75 75.0014 334.741 80.0794C330.091 84.7915 325.698 89.2422 321.534 89.2422C321.326 89.2422 321.157 89.4121 321.157 89.6212C321.157 89.8303 321.326 90.0001 321.534 90.0001Z" fill="#0A70FF"/>
<path d="M72.466 89.9997C84.5962 89.9997 96.9213 71.3839 109.972 51.6758C123.598 31.0947 137.689 9.81325 151.962 9.81325C166.235 9.81325 180.324 31.0947 193.952 51.6758C207.003 71.3839 219.328 89.9997 231.458 89.9997C231.666 89.9997 231.835 89.8298 231.835 89.6207C231.835 89.4117 231.666 89.2418 231.458 89.2418C226.215 89.2418 220.334 85.4209 213.484 77.5596C207.297 70.4614 201.12 61.1313 194.579 51.2524C180.841 30.5067 166.638 9.05273 151.962 9.05273C137.286 9.05273 123.083 30.5067 109.345 51.2524C102.804 61.1313 96.6274 70.4614 90.4402 77.5596C83.5897 85.4209 77.7093 89.2418 72.466 89.2418C72.258 89.2418 72.0889 89.4117 72.0889 89.6207C72.0889 89.8298 72.258 89.9997 72.466 89.9997Z" fill="#0A70FF"/>
<path d="M231.455 89.9993C238.415 89.9993 245.422 79.4174 252.842 68.2135C260.537 56.5888 268.499 44.5694 276.496 44.5694C284.493 44.5694 292.454 56.5888 300.15 68.2135C307.568 79.4174 314.577 89.9993 321.537 89.9993C321.745 89.9993 321.914 89.8295 321.914 89.6204C321.914 89.4113 321.745 89.2414 321.537 89.2414C314.98 89.2414 308.08 78.8215 300.777 67.7927C292.969 56.0034 284.899 43.8115 276.496 43.8115C268.093 43.8115 260.023 56.0034 252.215 67.7927C244.912 78.8242 238.012 89.2414 231.455 89.2414C231.247 89.2414 231.078 89.4113 231.078 89.6204C231.078 89.8295 231.247 89.9993 231.455 89.9993Z" fill="#0A70FF"/>
<path d="M14.8662 89.9993C19.3317 89.9993 23.8311 85.904 28.5932 81.5682C33.4957 77.1018 38.5672 72.4864 43.6648 72.4864C48.7624 72.4864 53.8339 77.1044 58.739 81.5682C63.5011 85.904 67.9979 89.9993 72.466 89.9993C72.6741 89.9993 72.8431 89.8294 72.8431 89.6203C72.8431 89.4112 72.6741 89.2414 72.466 89.2414C68.2891 89.2414 63.8964 85.2401 59.2436 81.0063C54.2344 76.4458 49.0536 71.7285 43.6648 71.7285C38.2759 71.7285 33.0952 76.4458 28.086 81.0063C23.4332 85.2428 19.0404 89.2414 14.8636 89.2414C14.6555 89.2414 14.4865 89.4112 14.4865 89.6203C14.4865 89.8294 14.6555 89.9993 14.8636 89.9993H14.8662Z" fill="#0A70FF"/>
<path d="M321.534 89.9993C326 89.9993 330.499 85.904 335.261 81.5682C340.164 77.1018 345.235 72.4864 350.333 72.4864C355.43 72.4864 360.502 77.1044 365.407 81.5682C370.169 85.904 374.666 89.9993 379.134 89.9993C379.342 89.9993 379.511 89.8294 379.511 89.6203C379.511 89.4112 379.342 89.2414 379.134 89.2414C374.957 89.2414 370.564 85.2401 365.911 81.0063C360.902 76.4458 355.722 71.7285 350.333 71.7285C344.944 71.7285 339.763 76.4458 334.754 81.0063C330.101 85.2428 325.708 89.2414 321.531 89.2414C321.323 89.2414 321.154 89.4112 321.154 89.6203C321.154 89.8294 321.323 89.9993 321.531 89.9993H321.534Z" fill="#0A70FF"/>
<path d="M-3.62288 90.0001H397.623C397.831 90.0001 398 89.8302 398 89.6211C398 89.4121 397.831 89.2422 397.623 89.2422H-3.62288C-3.83095 89.2422 -4 89.4121 -4 89.6211C-4 89.8302 -3.83095 90.0001 -3.62288 90.0001Z" fill="#0A70FF"/>
</g>
<defs>
<clipPath id="clip0_118_2553">
<rect width="402" height="90" fill="white" transform="translate(-4)"/>
</clipPath>
</defs>
</svg>
