<svg width="14" height="14" viewBox="0 0 14 14" fill="none" xmlns="http://www.w3.org/2000/svg">
<path d="M9.1385 2.268C9.06072 1.99284 8.89522 1.75061 8.66715 1.57814C8.43909 1.40567 8.16094 1.31239 7.875 1.3125H6.125C5.52417 1.3125 5.01667 1.71675 4.8615 2.268M9.1385 2.268C9.17058 2.38117 9.1875 2.50133 9.1875 2.625C9.1875 2.74103 9.14141 2.85231 9.05936 2.93436C8.97731 3.01641 8.86603 3.0625 8.75 3.0625H5.25C5.13397 3.0625 5.02269 3.01641 4.94064 2.93436C4.85859 2.85231 4.8125 2.74103 4.8125 2.625C4.8125 2.50133 4.83 2.38117 4.8615 2.268M9.1385 2.268C9.51533 2.29658 9.88983 2.33217 10.2626 2.37533C10.9042 2.45 11.375 3.00358 11.375 3.64992V11.375C11.375 11.7231 11.2367 12.0569 10.9906 12.3031C10.7444 12.5492 10.4106 12.6875 10.0625 12.6875H3.9375C3.5894 12.6875 3.25556 12.5492 3.00942 12.3031C2.76328 12.0569 2.625 11.7231 2.625 11.375V3.64992C2.625 3.00358 3.09517 2.45 3.73742 2.37533C4.11135 2.33204 4.48612 2.29625 4.8615 2.268" stroke="#0A70FF" stroke-linecap="round" stroke-linejoin="round"/>
</svg>
