<svg width="393" height="330" viewBox="0 0 393 330" fill="none" xmlns="http://www.w3.org/2000/svg">
<g clip-path="url(#clip0_118_2916)">
<path d="M-84.3374 349.634C-83.5138 312.317 -75.4185 276.283 -60.2772 242.52C-45.6512 209.912 -25.0992 180.793 0.804565 155.965C26.7082 131.14 56.6626 111.86 89.833 98.6641C124.173 85.003 160.476 78.4927 197.733 79.315C234.99 80.1374 270.966 88.243 304.674 103.406C337.23 118.053 366.301 138.636 391.088 164.579C415.871 190.522 435.118 220.523 448.291 253.745C461.928 288.14 468.425 324.499 467.602 361.816C466.778 399.133 458.683 435.167 443.542 468.93C428.916 501.538 408.364 530.657 382.46 555.485C356.556 580.31 326.602 599.589 293.431 612.786C259.091 626.447 222.789 632.957 185.531 632.135C148.274 631.313 112.298 623.207 78.5899 608.044C46.0342 593.397 16.9635 572.814 -7.82352 546.871C-32.6067 520.928 -51.8538 490.927 -65.0268 457.705C-78.6637 423.31 -85.1611 386.951 -84.3374 349.634ZM467.202 361.807C470.562 209.61 349.671 83.065 197.72 79.7111C45.7695 76.3573 -80.5866 197.449 -83.9458 349.642C-87.305 501.836 33.5851 628.385 185.536 631.739C337.487 635.092 463.843 514.001 467.202 361.807Z" fill="url(#paint0_linear_118_2916)"/>
<path d="M-87.3979 345.908C-87.3851 345.331 -87.3725 344.759 -87.3518 344.178C-85.8909 298.936 -66.9168 258.935 -49.252 224.992C-31.1468 189.909 -3.72709 165.283 23.2057 143.896C51.1031 121.769 77.331 105.511 103.387 94.1943C134.658 80.6146 165.142 74.2702 196.575 74.7992C224.861 75.1802 252.798 81.9624 281.984 95.5304C309.557 108.348 334.732 125.615 355.716 140.819C408.113 178.773 439.994 216.906 456.046 260.827C466.988 290.554 468.575 322.685 467.594 361.815C466.908 389.677 462.125 417.13 453.376 443.408C445.096 468.269 433.428 491.665 418.691 512.945C393.872 548.81 360.179 578.796 321.248 599.655C300.918 610.549 279.34 618.848 257.124 624.315C233.808 630.052 209.719 632.684 185.527 632.134C135.879 631.007 87.9617 616.606 46.9564 590.489C7.01365 565.051 -24.5236 529.822 -44.2442 488.614L-46.1846 484.564C-66.9962 441.122 -88.5082 396.213 -87.4018 345.912L-87.3979 345.908ZM467.267 359.069C468.102 321.222 466.34 289.932 455.675 260.956C439.652 217.11 407.814 179.033 355.486 141.132C312.063 109.679 260.393 76.0508 196.566 75.1875C139.043 74.2161 84.0304 96.1493 23.4498 144.2C-3.44718 165.56 -30.8308 190.152 -48.9033 225.169C-66.5516 259.073 -85.501 299.027 -86.9602 344.187C-86.9768 344.763 -86.9934 345.336 -87.0061 345.913C-88.1145 396.127 -66.621 440.985 -45.828 484.387L-43.8877 488.437C-3.30787 573.241 86.7487 629.487 185.54 631.734C278.304 633.844 365.345 589.349 418.375 512.714C448.985 468.515 465.869 416.334 467.21 361.799C467.23 360.885 467.255 359.971 467.275 359.065L467.267 359.069Z" fill="url(#paint1_linear_118_2916)"/>
<path d="M-90.4432 341.151C-90.4253 340.343 -90.3998 339.539 -90.3662 338.727C-88.8901 304.341 -73.4993 275.427 -57.2051 244.817C-53.6404 238.122 -49.9572 231.202 -46.4701 224.285C-30.3658 192.341 -5.47978 173.149 20.8652 152.832C23.3446 150.921 25.836 148.997 28.3357 147.055C55.1818 126.223 79.5523 107.84 105.972 93.8906C136.535 77.7521 165.792 70.0306 195.413 70.2762C247.937 70.7134 288.829 100.199 328.371 128.713C336.1 134.288 344.092 140.049 351.989 145.455C400.406 178.591 441.984 210 460.411 258.887C470.483 285.612 469.365 314.43 468.182 344.941C467.971 350.423 467.748 356.093 467.59 361.808C466.83 390.013 461.891 417.828 452.909 444.478C444.603 469.118 433.08 492.152 418.664 512.937C394.514 547.811 361.571 577.327 323.398 598.294C302.907 609.549 281.186 618.139 258.831 623.835C234.975 629.914 210.31 632.701 185.524 632.123C134.215 630.924 85.3535 615.654 44.2263 587.96C24.4503 574.643 7.0301 558.804 -7.55422 540.88C-22.2758 522.784 -33.8043 502.93 -41.8111 481.874C-47.1441 467.856 -53.9008 453.896 -60.4404 440.396C-75.5842 409.12 -91.2338 376.793 -90.447 341.147L-90.4432 341.151ZM468.432 325.791C468.949 302.356 467.965 280.035 460.051 259.032C441.661 210.247 400.133 178.884 351.774 145.784C343.873 140.378 335.881 134.613 328.148 129.038C288.656 100.56 247.818 71.1111 195.416 70.6727C128.13 70.1098 75.2395 111.156 28.5796 147.367C26.0799 149.309 23.5885 151.232 21.1051 153.147C-5.20404 173.438 -30.0541 192.599 -46.1175 224.465C-49.6046 231.382 -53.2918 238.306 -56.8565 245.005C-73.1303 275.576 -88.5006 304.448 -89.9748 338.748C-90.0082 339.552 -90.0338 340.36 -90.0515 341.16C-90.8364 376.719 -75.2091 408.991 -60.0841 440.231C-53.5447 453.739 -46.7803 467.707 -41.4437 481.741C-8.23114 569.063 82.9864 629.341 185.536 631.738C294.653 634.288 377.344 571.93 418.348 512.726C448.402 469.402 465.752 415.801 467.206 361.807C467.364 356.089 467.587 350.419 467.798 344.937C468.05 338.478 468.297 332.094 468.436 325.795L468.432 325.791Z" fill="url(#paint2_linear_118_2916)"/>
<path d="M-96.5234 330.989C-96.5003 329.941 -96.4535 328.887 -96.383 327.825C-94.7575 302.998 -80.5409 283.081 -65.4874 261.996C-56.7052 249.694 -47.6237 236.971 -40.8944 222.877C-28.0025 195.873 -7.43419 183.058 14.3381 169.485C22.3397 164.496 30.6115 159.342 38.6112 153.38C51.7933 143.585 64.3386 132.637 76.4724 122.049C112.159 90.9064 145.863 61.4936 193.116 61.2493C212.491 61.1471 231.058 66.7492 249.884 78.3734C266.661 88.7319 282.09 102.813 297.016 116.435C312.058 130.157 327.606 144.351 344.551 154.752C355.611 161.542 366.786 167.802 377.592 173.856C397.688 185.112 416.669 195.747 432.646 208.427C450.584 222.665 462.184 237.474 469.163 255.033C477.694 276.505 474.628 299.306 471.384 323.441C469.738 335.677 468.041 348.328 467.598 361.815C465.295 435.422 435.924 488.105 418.621 512.955C396.062 545.467 363.773 574.821 327.705 595.602C306.92 607.576 284.903 616.765 262.261 622.905C237.359 629.663 211.543 632.763 185.528 632.126C158.039 631.453 131.226 626.681 105.831 617.942C81.4057 609.538 58.9054 597.687 38.9502 582.725C-0.975522 552.79 -27.9234 512.196 -36.9333 468.414C-41.6718 445.393 -54.547 425.125 -67.0018 405.525C-82.4748 381.173 -97.1222 358.118 -96.5273 330.985L-96.5234 330.989ZM474.265 289.993C474.53 278.013 473.258 266.407 468.796 255.178C453.576 216.868 416.574 196.141 377.396 174.197C366.586 168.143 355.412 161.883 344.34 155.085C327.364 144.663 311.8 130.458 296.748 116.723C266.949 89.531 236.136 61.4178 193.112 61.6416C146.004 61.8852 112.351 91.256 76.7245 122.345C64.5867 132.937 52.0334 143.892 38.8393 153.695C30.8277 159.668 22.5478 164.831 14.5422 169.819C-7.18223 183.358 -27.699 196.147 -40.5415 223.045C-47.2872 237.17 -56.3768 249.905 -65.1712 262.223C-80.1883 283.261 -94.3766 303.136 -95.9956 327.849C-97.845 356.246 -82.7093 380.081 -66.672 405.317C-54.1983 424.948 -41.3002 445.245 -36.5515 468.336C-17.6225 560.327 75.7793 629.048 185.532 631.734C294.42 634.4 377.166 572.008 418.293 512.728C435.572 487.913 464.898 435.307 467.199 361.799C467.642 348.296 469.343 335.633 470.989 323.386C472.527 311.952 474.022 300.815 474.262 289.985L474.265 289.993Z" fill="url(#paint3_linear_118_2916)"/>
<path d="M-99.5649 325.695C-99.5406 324.593 -99.485 323.491 -99.3976 322.374C-97.6603 299.94 -82.9934 282.521 -67.4694 264.084C-56.6291 251.211 -45.4226 237.899 -38.1126 222.174C-25.8578 195.808 -5.73266 184.961 15.5703 173.477C24.9211 168.436 34.593 163.221 43.7409 156.544C60.1757 144.599 74.8944 130.163 89.1323 116.203C120.055 85.8815 149.264 57.2406 191.962 56.7309C210.607 56.5067 228.167 62.2788 245.642 74.3756C261.219 85.1589 275.329 99.8816 288.968 114.123C305.02 130.878 321.616 148.203 340.828 159.396C355.699 168.064 370.847 175.357 385.491 182.411C404.95 191.78 423.332 200.632 438.686 211.56C455.903 223.812 466.975 237.015 473.532 253.102C481.869 273.564 477.965 294.235 473.443 318.174C470.835 331.982 468.141 346.255 467.598 361.816C466.623 391.076 461.216 419.979 451.525 447.724C443.277 471.349 431.889 493.908 418.597 512.959C405.873 531.277 377.423 566.202 329.854 594.253C308.932 606.589 286.768 616.073 263.972 622.438C238.561 629.534 212.169 632.793 185.527 632.127C130.144 630.74 77.1845 612.243 36.4075 580.045C-3.59927 548.451 -28.7796 506.416 -34.4927 461.687C-37.8006 435.802 -53.4003 414.531 -68.4904 393.959C-84.7369 371.811 -100.116 350.84 -99.5649 325.695ZM478 281.791C478.216 272.027 476.982 262.612 473.168 253.25C458.884 218.187 424.792 201.771 385.318 182.76C370.667 175.702 355.511 168.405 340.628 159.733C321.37 148.511 304.751 131.167 288.684 114.391C261.475 85.9927 233.339 56.6238 191.965 57.1196C149.424 57.6288 120.271 86.2159 89.4044 116.48C75.1584 130.447 60.4278 144.895 43.973 156.859C34.8013 163.552 25.1213 168.774 15.7587 173.818C-5.48479 185.268 -25.5505 196.085 -37.7518 222.335C-45.0824 238.107 -56.3089 251.438 -67.1653 264.33C-82.6491 282.721 -97.2718 300.09 -99.0024 322.399C-101.057 348.896 -85.0801 370.669 -68.1678 393.723C-53.0512 414.335 -37.417 435.645 -34.0957 461.633C-22.0714 555.775 72.3537 628.903 185.544 631.735C294.309 634.457 377.087 572.046 418.281 512.732C447.577 470.742 465.413 415.727 467.21 361.8C467.754 346.211 470.452 331.918 473.061 318.099C475.497 305.205 477.751 293.253 478.004 281.787L478 281.791Z" fill="url(#paint4_linear_118_2916)"/>
<path d="M-102.601 320.353C-102.576 319.219 -102.512 318.078 -102.408 316.923C-100.554 296.324 -85.2542 280.924 -69.0564 264.622C-56.2367 251.718 -42.9802 238.376 -35.3267 221.469C-23.4881 195.318 -3.43944 186.161 17.7888 176.464C28.1871 171.718 38.9378 166.806 48.8748 159.706C67.6447 146.352 83.336 128.853 98.5093 111.928C125.698 81.598 151.385 52.9501 190.808 52.2151C209.036 51.8757 225.897 57.8993 242.363 70.637C257.041 81.9931 270.099 97.552 282.724 112.603C299.157 132.188 316.15 152.442 337.108 164.042C355.055 173.979 373.521 181.475 391.382 188.725C410.64 196.544 428.831 203.928 443.926 213.464C460.833 224.147 471.63 236.128 477.912 251.176C486.181 270.982 481.313 290.961 475.673 314.094C472.019 329.08 468.241 344.581 467.605 361.823C466.56 391.443 460.996 420.712 451.07 448.809C442.807 472.206 431.569 494.395 418.581 512.97C406.182 530.8 378.447 564.897 332.015 592.911C310.964 605.613 288.648 615.391 265.694 621.981C239.782 629.415 212.811 632.83 185.539 632.138C128.571 630.685 74.7305 611.227 33.9474 577.352C14.3658 561.088 -1.3124 542.308 -12.652 521.528C-24.2591 500.267 -30.7786 477.871 -32.0364 454.967C-33.5961 426.573 -51.9125 404.823 -69.6256 383.792C-86.8233 363.373 -103.108 344.034 -102.586 320.361L-102.601 320.353ZM481.903 275.919C482.088 267.544 480.92 259.414 477.54 251.321C463.867 218.571 430.204 204.904 391.225 189.083C373.357 181.828 354.878 174.329 336.909 164.379C315.889 152.742 298.873 132.461 282.413 112.847C257.249 82.8572 231.226 51.8435 190.807 52.5997C151.553 53.3345 125.926 81.921 98.7936 112.185C83.6082 129.126 67.9008 146.641 49.0951 160.021C39.1263 167.143 28.3558 172.063 17.9417 176.817C-3.21528 186.48 -23.2006 195.607 -34.9775 221.626C-42.6599 238.599 -55.9405 251.968 -68.7841 264.894C-84.93 281.147 -100.182 296.497 -102.021 316.955C-102.124 318.095 -102.185 319.231 -102.209 320.353C-102.729 343.89 -86.4896 363.169 -69.3416 383.527C-51.5865 404.61 -33.2281 426.408 -31.6595 454.936C-26.3765 551.107 69.0262 628.766 185.54 631.738C294.178 634.509 376.984 572.082 418.253 512.743C432.066 492.989 464.489 438.736 467.206 361.803C467.842 344.521 471.625 329.004 475.283 313.995C478.596 300.41 481.638 287.915 481.903 275.919Z" fill="url(#paint5_linear_118_2916)"/>
<path d="M-105.641 314.976C-105.615 313.818 -105.542 312.651 -105.422 311.472C-103.457 292.387 -87.435 278.714 -70.4704 264.241C-55.6901 251.632 -40.4107 238.598 -32.5486 220.761C-21.0071 194.58 -0.816033 186.957 20.5567 178.881C31.8258 174.624 43.4822 170.223 54.0009 162.865C74.5789 148.543 90.5097 128.18 105.916 108.489C130 77.7097 152.746 48.6358 189.642 47.6959C207.63 47.2373 223.982 53.5637 239.625 67.0329C253.576 79.044 265.746 95.5488 277.514 111.511C293.96 133.82 310.97 156.888 333.37 168.685C353.976 179.537 375.415 186.729 396.151 193.682C435.21 206.781 468.944 218.094 482.265 249.24C490.54 268.59 484.722 288.089 477.99 310.672C473.233 326.618 468.312 343.111 467.59 361.815C464.71 439.196 432.33 493.301 418.542 512.969C409.376 526.13 397.726 539.664 384.85 552.103C369.336 567.094 352.28 580.368 334.149 591.553C312.976 604.618 290.513 614.695 267.385 621.504C240.977 629.277 213.434 632.852 185.52 632.126C126.962 630.606 72.2692 610.188 31.5154 574.63C12.0209 557.618 -3.21403 538.102 -13.7699 516.614C-24.5958 494.573 -29.9302 471.563 -29.6188 448.223C-29.2116 417.525 -50.2673 395.617 -70.6297 374.429C-88.8701 355.452 -106.145 337.476 -105.648 314.972L-105.641 314.976ZM485.937 271.216C486.101 263.814 484.986 256.592 481.913 249.401C468.663 218.418 435.006 207.129 396.036 194.06C375.286 187.103 353.831 179.906 333.197 169.039C310.716 157.2 293.684 134.093 277.207 111.748C253.767 79.9548 229.529 47.077 189.657 48.0926C152.945 49.0287 130.252 78.0292 106.228 108.735C90.8055 128.449 74.8545 148.835 54.2287 163.191C43.6703 170.576 31.9942 174.985 20.7013 179.253C-0.596331 187.299 -20.7124 194.897 -32.1839 220.927C-40.0831 238.841 -55.3984 251.909 -70.2106 264.545C-87.1153 278.964 -103.078 292.583 -105.028 311.516C-105.147 312.683 -105.22 313.839 -105.245 314.981C-105.738 337.332 -88.517 355.251 -70.3379 374.165C-49.9218 395.408 -28.8087 417.377 -29.2155 448.235C-30.5142 546.311 65.8239 628.633 185.54 631.742C325.6 635.379 403.945 533.259 418.229 512.75C431.997 493.109 464.333 439.086 467.206 361.807C467.934 343.055 472.859 326.539 477.624 310.565C481.825 296.483 485.668 283.596 485.941 271.22L485.937 271.216Z" fill="url(#paint6_linear_118_2916)"/>
<path d="M-108.68 309.579C-108.654 308.406 -108.573 307.219 -108.433 306.017C-106.359 288.237 -89.5718 276.108 -71.8007 263.266C-55.0569 251.167 -37.7437 238.657 -29.759 220.058C-18.4408 193.695 2.02448 187.502 23.6889 180.943C35.7243 177.3 48.1699 173.532 59.1385 166.027C81.1894 151.012 96.8873 127.893 112.071 105.536C133.455 74.0456 153.652 44.2993 188.496 43.1806C206.36 42.6055 222.31 49.2566 237.265 63.5152C250.597 76.2269 261.981 93.7426 272.994 110.685C289.226 135.655 306.006 161.476 329.658 173.336C352.671 184.876 376.883 191.423 400.296 197.752C439.645 208.393 473.63 217.585 486.645 247.315C494.971 266.333 488.228 285.493 480.418 307.68C474.791 323.67 468.412 341.79 467.598 361.819C466.41 392.178 460.537 422.169 450.137 450.966C439.67 479.942 427.171 500.683 418.526 512.98C409.021 526.605 381.984 561.4 336.311 590.211C315.02 603.642 292.413 614.015 269.108 621.043C242.209 629.158 214.091 632.89 185.531 632.134C151.168 631.227 118.492 623.943 88.4219 610.489C60.1557 597.844 34.9906 579.797 15.6458 558.306C-15.1344 524.107 -30.3389 482.622 -27.1626 441.503C-24.6307 408.631 -48.458 386.779 -71.5094 365.638C-90.8393 347.912 -109.151 331.115 -108.676 309.583L-108.68 309.579ZM490.057 267.225C490.205 260.537 489.139 253.991 486.281 247.468C473.341 217.909 439.441 208.742 400.186 198.127C376.753 191.789 352.522 185.238 329.474 173.682C305.729 161.776 288.914 135.911 272.657 110.893C249.729 75.6151 228.071 42.2959 188.499 43.5692C153.855 44.6844 133.711 74.3495 112.383 105.755C97.1797 128.143 81.4615 151.288 59.3508 166.35C48.3305 173.889 35.8573 177.664 23.7943 181.318C2.21664 187.848 -18.1619 194.019 -29.4097 220.21C-37.4398 238.911 -54.7967 251.451 -71.5804 263.581C-89.2798 276.369 -105.996 288.453 -108.05 306.061C-110.741 329.129 -91.5613 346.719 -71.2521 365.342C-59.8915 375.761 -48.1469 386.531 -39.5511 398.832C-29.8159 412.767 -25.6376 426.733 -26.7791 441.523C-26.9763 444.066 -27.1029 446.61 -27.159 449.152C-28.0085 487.638 -12.8807 526.029 15.9261 558.034C56.4818 603.097 118.301 629.956 185.532 631.734C325.395 635.425 403.882 533.261 418.198 512.745C431.92 493.221 464.168 439.432 467.202 361.799C468.018 341.711 474.406 323.559 480.045 307.546C485.137 293.078 489.778 279.896 490.057 267.225Z" fill="url(#paint7_linear_118_2916)"/>
<path d="M-111.722 304.167C-111.696 302.982 -111.607 301.783 -111.447 300.566C-109.27 283.954 -91.7142 273.231 -73.1255 261.875C-54.398 250.436 -35.0349 238.611 -26.9807 219.35C-15.8326 192.705 4.99425 187.878 27.0459 182.772C39.7752 179.823 52.9338 176.774 64.2685 169.19C87.5689 153.665 102.703 127.849 117.341 102.882C136.311 70.522 154.226 39.9561 187.342 38.6659C205.154 37.9719 220.787 44.9653 235.132 60.0463C247.923 73.4918 258.594 92.0632 268.91 110.022C284.766 137.613 301.162 166.146 325.935 177.98C351.193 190.048 379.259 195.966 404.018 201.187C443.839 209.581 478.227 216.836 491.017 245.383C499.427 264.16 491.773 283.064 482.908 304.96C476.153 321.644 468.498 340.556 467.598 361.82C466.344 392.53 460.306 422.883 449.651 452.028C439.197 480.623 426.942 500.957 418.503 512.98C409.161 526.286 382.659 560.313 338.43 588.838C317.032 602.636 294.282 613.311 270.807 620.563C243.431 629.021 214.737 632.913 185.531 632.131C150.177 631.182 116.731 623.513 86.1241 609.328C57.3945 596.018 32.1505 577.105 13.1211 554.644C-13.2024 523.569 -26.7869 487.155 -25.9808 450.635C-25.864 445.343 -25.4456 440.054 -24.7178 434.772C-19.9108 399.839 -46.5712 378.175 -72.35 357.222C-92.7977 340.605 -112.171 324.859 -111.715 304.167L-111.722 304.167ZM494.241 263.715C494.377 257.572 493.346 251.549 490.657 245.544C477.949 217.175 443.651 209.942 403.935 201.57C379.153 196.344 351.063 190.422 325.763 178.333C300.881 166.446 284.455 137.861 268.569 110.215C258.26 92.2756 247.6 73.728 234.844 60.3147C220.583 45.3218 205.047 38.3659 187.353 39.0546C154.453 40.3379 136.591 70.8108 117.678 103.078C103.019 128.084 87.8606 153.942 64.4887 169.513C53.0981 177.138 39.9002 180.195 27.1394 183.151C5.19015 188.235 -15.5461 193.037 -26.6118 219.5C-34.7156 238.877 -54.1343 250.736 -72.9135 262.206C-91.4186 273.508 -108.899 284.186 -111.052 300.61C-113.973 322.892 -93.6374 339.417 -72.1081 356.913C-59.4362 367.212 -46.3292 377.862 -36.9464 390.365C-26.2959 404.553 -22.1734 419.094 -24.3347 434.819C-25.0583 440.082 -25.4766 445.363 -25.5929 450.635C-26.3969 487.062 -12.8456 523.381 13.4168 554.384C53.4804 601.681 116.218 629.871 185.54 631.731C324.838 635.468 403.772 533.271 418.183 512.746C428.859 497.538 463.95 441.703 467.21 361.792C468.112 340.462 475.779 321.514 482.547 304.803C488.531 290.026 493.961 276.609 494.245 263.708L494.241 263.715Z" fill="url(#paint8_linear_118_2916)"/>
<path d="M-114.765 298.746C-114.739 297.554 -114.637 296.343 -114.457 295.111C-112.186 279.564 -93.864 270.146 -74.4674 260.177C-54.6944 250.013 -32.2817 238.495 -24.195 218.646C-19.2527 206.518 -11.6562 198.055 -0.975807 192.777C8.56763 188.062 19.2565 186.305 30.5669 184.443C43.9379 182.242 57.765 179.969 69.3983 172.353C93.7923 156.455 108.12 127.96 121.976 100.409C138.738 67.0783 154.569 35.5991 186.179 34.15C195.722 33.7131 204.334 35.5319 212.498 39.7073C219.774 43.4315 226.533 48.9574 233.155 56.6075C245.451 70.8113 255.459 90.463 265.137 109.468C280.509 139.658 296.403 170.872 322.204 182.626C349.596 195.103 380.34 199.906 407.463 204.147C447.871 210.463 482.765 215.915 495.382 243.454C503.898 262.04 495.346 280.76 485.448 302.437C477.538 319.755 468.575 339.384 467.594 361.819C466.273 392.912 460.078 423.623 449.181 453.108C438.175 482.888 425.215 503.407 418.471 512.987C409.317 525.987 383.403 559.277 340.575 587.492C319.08 601.652 296.178 612.626 272.514 620.098C244.66 628.899 215.391 632.946 185.523 632.134C149.23 631.145 115.067 623.11 83.9811 608.245C54.8304 594.309 29.5376 574.586 10.8338 551.218C-13.3075 521.051 -25.5828 486.388 -24.8191 451.609C-24.6455 443.744 -23.8057 435.878 -22.285 428.051C-15.1107 391.133 -45.9647 368.8 -73.1898 349.106C-94.7607 333.497 -115.205 318.705 -114.769 298.754L-114.765 298.746ZM498.465 260.531C498.591 254.82 497.59 249.209 495.03 243.615C482.503 216.27 447.702 210.832 407.408 204.534C380.261 200.293 349.49 195.481 322.047 182.984C296.122 171.176 280.194 139.894 264.793 109.645C255.126 90.6597 245.128 71.0278 232.863 56.86C219.154 41.0277 203.892 33.7286 186.202 34.5391C154.82 35.9775 139.037 67.3597 122.329 100.582C108.448 128.183 94.096 156.72 69.6145 172.679C57.9097 180.341 44.0431 182.625 30.6328 184.829C8.24034 188.51 -12.9095 191.992 -23.8339 218.795C-31.9785 238.78 -54.4584 250.333 -74.291 260.527C-93.5964 270.45 -111.832 279.823 -114.071 295.17C-117.223 316.753 -95.722 332.31 -72.9593 348.781C-58.9554 358.914 -44.4769 369.386 -34.2943 382.048C-22.7235 396.432 -18.6675 411.502 -21.8987 428.122C-23.4149 435.922 -24.2543 443.773 -24.4273 451.614C-25.1931 486.307 -12.9471 520.874 11.137 550.974C50.0813 599.635 115.275 629.83 185.532 631.742C324.539 635.524 403.693 533.292 418.147 512.76C428.79 497.642 463.789 442.072 467.198 361.803C468.185 339.289 477.165 319.625 485.087 302.273C491.955 287.24 498.168 273.629 498.457 260.531L498.465 260.531Z" fill="url(#paint9_linear_118_2916)"/>
<path d="M-117.807 293.322C-117.781 292.122 -117.668 290.904 -117.468 289.66C-115.109 275.105 -96.0457 266.915 -75.8589 258.244C-54.1292 248.908 -29.5039 238.329 -21.4091 217.943C-16.5215 205.629 -8.85405 197.321 2.02698 192.542C11.7447 188.274 23.1686 187.121 34.2157 186.003C48.1923 184.593 62.6442 183.13 74.536 175.516C99.9041 159.337 113.244 128.18 126.146 98.0488C140.858 63.6878 154.756 31.2278 185.029 29.6354C194.597 29.1324 203.152 31.0166 211.186 35.4011C218.349 39.3072 224.929 45.1275 231.31 53.1921C243.154 68.1631 252.531 88.9193 261.602 108.994C276.407 141.762 291.717 175.647 318.485 187.278C347.935 200.075 381.3 203.621 410.736 206.747C451.806 211.111 487.275 214.877 499.754 241.526C508.391 259.966 498.961 278.545 488.043 300.058C478.957 317.962 468.659 338.256 467.594 361.824C464.032 442.581 429.077 497.947 418.447 512.995C409.456 525.72 384.082 558.323 342.729 586.143C321.139 600.666 298.089 611.935 274.225 619.63C245.894 628.769 216.052 632.973 185.523 632.131C166.782 631.615 148.318 629.155 130.639 624.824C113.624 620.658 97.2543 614.735 81.9817 607.224C52.4482 592.702 27.1252 572.222 8.74581 548.002C-13.5249 518.649 -24.7084 485.474 -23.9734 452.174C-23.7459 441.865 -22.3778 431.546 -19.8403 421.32C-15.535 403.966 -19.4807 388.518 -31.8968 374.084C-42.8498 361.354 -58.6968 351.106 -74.0221 341.192C-96.7225 326.511 -118.237 312.595 -117.811 293.318L-117.807 293.322ZM502.723 257.588C502.841 252.226 501.864 246.949 499.402 241.691C487.016 215.244 451.649 211.485 410.697 207.135C381.233 204.004 347.837 200.457 318.332 187.636C291.428 175.943 276.085 141.99 261.246 109.155C252.186 89.104 242.817 68.3675 231.003 53.4326C217.806 36.7482 202.772 29.093 185.048 30.0283C155.014 31.6103 141.166 63.9575 126.503 98.2059C113.58 128.391 100.216 159.603 74.7441 175.85C62.7728 183.518 48.2739 184.979 34.2501 186.397C11.3667 188.71 -10.2482 190.893 -21.048 218.092C-29.2049 238.63 -53.9094 249.246 -75.7062 258.608C-95.7902 267.235 -114.759 275.384 -117.081 289.728C-120.471 310.685 -97.8056 325.345 -73.8035 340.871C-58.4549 350.798 -42.5848 361.062 -31.5935 373.835C-19.0856 388.37 -15.1151 403.936 -19.4545 421.419C-21.9835 431.61 -23.3471 441.906 -23.5778 452.183C-24.311 485.401 -13.1568 518.484 9.0644 547.769C47.4527 598.361 113.423 629.754 185.54 631.743C320.735 635.472 397.75 541.619 418.131 512.768C428.745 497.743 463.647 442.458 467.206 361.807C468.277 338.158 478.596 317.821 487.699 299.882C495.441 284.629 502.43 270.855 502.722 257.592L502.723 257.588Z" fill="url(#paint10_linear_118_2916)"/>
<path d="M-120.868 288.003C-120.84 286.751 -120.71 285.49 -120.482 284.208C-118.046 270.585 -99.1722 263.878 -77.3244 256.115C-53.6007 247.686 -26.7136 238.131 -18.6312 217.238C-13.7901 204.723 -6.03935 196.55 5.05425 192.258C14.9583 188.427 26.6417 187.947 37.9368 187.482C52.4911 186.885 67.5435 186.263 79.6581 178.678C105.92 162.291 118.124 128.467 129.931 95.757C136.45 77.6868 142.611 60.6172 150.831 47.6669C160.091 33.0754 170.59 25.9092 183.867 25.1152C193.472 24.5422 201.99 26.4963 209.914 31.0864C216.975 35.1787 223.395 41.2937 229.544 49.777C240.963 65.5274 249.739 87.4047 258.23 108.557C272.41 143.894 287.073 180.434 314.754 191.916C346.205 204.965 382.155 207.128 413.871 209.041C455.656 211.56 491.743 213.734 504.115 239.588C512.883 257.917 502.594 276.387 490.676 297.772C480.39 316.23 468.734 337.15 467.582 361.815C466.126 393.686 459.621 425.128 448.244 455.261C437.24 484.41 424.83 503.943 418.412 512.989C407.416 528.492 383.241 558.437 344.871 584.788C323.191 599.674 299.997 611.238 275.928 619.157C247.127 628.635 216.706 632.999 185.516 632.126C166.343 631.589 147.493 629.038 129.482 624.535C112.16 620.204 95.5412 614.061 80.0907 606.267C50.201 591.192 24.8584 570.001 6.79835 544.983C-7.19719 525.593 -16.4714 504.619 -20.7668 482.644C-25.2203 459.842 -24.0919 436.947 -17.4073 414.587C-11.9709 396.406 -15.8203 380.501 -29.1784 365.96C-40.9485 353.149 -58.1996 343.138 -74.8821 333.46C-87.831 325.949 -100.056 318.854 -108.696 311.007C-117.112 303.36 -121.055 295.958 -120.879 287.995L-120.868 288.003ZM507.004 254.821C507.116 249.745 506.16 244.747 503.774 239.761C491.504 214.114 455.522 211.946 413.859 209.437C382.111 207.523 346.126 205.356 314.613 192.282C286.777 180.733 272.084 144.118 257.874 108.707C249.395 87.5737 240.622 65.72 229.233 50.0096C216.335 32.2172 201.93 24.4346 183.898 25.5083C170.754 26.2935 160.354 33.3991 151.167 47.8784C142.971 60.79 136.819 77.8401 130.308 95.891C124.503 111.983 118.497 128.621 110.641 143.318C101.74 159.97 91.678 171.647 79.874 179.012C67.672 186.655 52.5648 187.275 37.9595 187.875C14.5456 188.838 -7.57013 189.747 -18.2621 217.383C-26.4109 238.443 -53.3889 248.028 -77.1916 256.487C-98.0243 263.888 -117.7 270.879 -120.096 284.28C-121.759 293.576 -118.049 301.978 -108.419 310.726C-99.8107 318.546 -87.6007 325.632 -74.671 333.131C-57.9615 342.825 -40.6834 352.849 -28.8751 365.708C-15.4175 380.357 -11.5394 396.385 -17.0183 414.713C-30.1884 458.759 -21.6116 504.945 7.12845 544.763C44.948 597.159 111.642 629.675 185.536 631.742C320.366 635.51 397.636 541.632 418.104 512.77C428.687 497.851 463.501 442.866 467.202 361.806C468.356 337.052 480.037 316.089 490.343 297.592C498.948 282.147 506.704 268.232 507 254.824L507.004 254.821Z" fill="url(#paint11_linear_118_2916)"/>
<path d="M-123.914 282.579C-123.886 281.324 -123.745 280.051 -123.489 278.758C-120.982 266.015 -101.461 260.367 -78.8606 253.821C-53.0973 246.36 -23.8951 237.907 -15.8375 216.535C-11.0385 203.799 -3.19656 195.754 8.12948 191.938C18.2317 188.535 30.1865 188.72 41.7495 188.901C56.8614 189.136 72.4903 189.379 84.8036 181.841C111.896 165.308 122.85 128.803 133.445 93.5038C139.04 74.8558 144.327 57.2411 151.745 43.8924C160.106 28.8533 169.948 21.4528 182.725 20.6006C192.378 19.9581 200.872 21.9784 208.692 26.7821C215.663 31.0607 221.932 37.4706 227.867 46.3771C238.881 62.9113 247.084 85.9179 255.014 108.165C268.522 146.065 282.488 185.254 311.05 196.568C344.464 209.805 382.974 210.494 416.953 211.107C459.489 211.869 496.225 212.531 508.507 237.664C517.422 255.907 506.28 274.295 493.377 295.588C481.873 314.568 468.836 336.086 467.606 361.824C466.082 394.094 459.42 425.897 447.804 456.351C436.388 486.275 423.446 505.938 418.412 513.005C407.547 528.252 383.826 557.677 347.047 583.451C325.289 598.697 301.944 610.559 277.663 618.701C248.391 628.518 217.395 633.038 185.539 632.138C109.821 629.996 42.3286 596.36 4.99941 542.165C-8.83189 522.08 -17.6717 500.425 -21.2669 477.791C-25.0068 454.262 -22.8732 430.738 -14.9356 407.88C-0.16473 365.337 -40.3122 344.38 -75.7336 325.891C-89.3305 318.793 -102.176 312.089 -111.211 304.609C-119.962 297.368 -124.072 290.283 -123.902 282.587L-123.914 282.579ZM511.305 252.192C511.412 247.356 510.471 242.59 508.147 237.837C495.966 212.914 459.344 212.258 416.936 211.499C382.926 210.89 344.377 210.196 310.897 196.933C282.172 185.554 268.173 146.277 254.635 108.298C246.713 86.0706 238.521 63.0878 227.534 46.5934C215.093 27.9202 200.861 19.7843 182.743 20.9935C170.112 21.8371 160.369 29.1731 152.082 44.0843C144.684 57.3942 139.402 74.9894 133.814 93.6179C128.612 110.956 123.232 128.883 115.734 144.616C107.233 162.458 97.1817 174.744 85.004 182.175C72.5913 189.774 56.9075 189.53 41.7369 189.293C17.7608 188.921 -4.87954 188.566 -15.4761 216.672C-23.6005 238.227 -52.9052 246.713 -78.7552 254.196C-101.234 260.705 -120.648 266.324 -123.106 278.833C-124.885 287.883 -121.032 295.974 -110.973 304.301C-101.969 311.752 -89.1426 318.448 -75.5652 325.537C-40.0003 344.101 0.305728 365.147 -14.5779 408.005C-19.6659 422.654 -22.3502 437.575 -22.6786 452.453C-23.3601 483.329 -13.8975 514.052 5.31001 541.94C42.567 596.036 109.943 629.606 185.54 631.746C319.938 635.548 397.51 541.649 418.084 512.778C425.593 502.238 463.26 445.428 467.206 361.807C468.443 335.971 481.508 314.411 493.037 295.388C502.499 279.772 511.011 265.726 511.309 252.196L511.305 252.192Z" fill="url(#paint12_linear_118_2916)"/>
<path d="M-126.968 277.151C-126.94 275.888 -126.783 274.608 -126.503 273.303C-123.937 261.405 -103.807 256.759 -80.5034 251.379C-52.6507 244.949 -21.0764 237.663 -13.0555 215.827C-8.29456 202.863 -0.357225 194.934 11.2091 191.59C21.5215 188.608 33.7634 189.455 45.5984 190.273C61.2519 191.357 77.4375 192.475 89.9336 185C117.8 168.359 127.842 127.399 136.696 91.2565C141.407 72.0238 145.859 53.8609 152.522 40.1108C160.027 24.6251 169.255 16.9913 181.567 16.0817C191.277 15.3659 199.757 17.4526 207.483 22.4661C214.367 26.9312 220.5 33.6403 226.223 42.9699C236.851 60.2923 244.488 84.4364 251.876 107.786C264.673 148.245 277.911 190.083 307.32 201.211C342.662 214.589 383.726 213.714 419.957 212.944C463.283 212.02 500.705 211.225 512.872 235.732C521.977 253.888 509.985 272.226 496.1 293.458C483.355 312.945 468.914 335.036 467.598 361.82C463.5 446.085 425.88 502.543 418.377 513.005C399.484 539.362 375.56 563.253 349.193 582.101C327.36 597.707 303.864 609.864 279.366 618.233C249.628 628.389 218.057 633.065 185.527 632.135C165.548 631.564 145.978 628.832 127.354 624.026C109.459 619.404 92.3862 612.85 76.61 604.546C46.0684 588.472 20.6958 565.977 3.24012 539.497C-10.462 518.708 -18.8866 496.344 -21.8005 473.027C-24.834 448.741 -21.7064 424.56 -12.5028 401.156C4.92092 356.831 -38.4243 336.424 -76.6659 318.418C-90.91 311.71 -104.359 305.377 -113.786 298.25C-122.859 291.39 -127.129 284.6 -126.964 277.163L-126.968 277.151ZM515.639 249.69C515.742 245.05 514.805 240.469 512.519 235.909C500.461 211.624 463.157 212.417 419.964 213.336C383.698 214.109 342.594 214.984 307.182 201.581C277.595 190.382 264.332 148.453 251.505 107.907C244.124 84.5814 236.494 60.461 225.889 43.1784C213.888 23.6161 199.812 15.1344 181.593 16.4787C169.434 17.3759 160.31 24.9414 152.875 40.2874C146.232 53.9986 141.784 72.146 137.077 91.3552C132.522 109.944 127.811 129.165 120.716 145.935C112.663 164.972 102.661 177.86 90.1337 185.342C77.5343 192.882 61.2861 191.758 45.574 190.669C33.7703 189.851 21.5636 189.009 11.3182 191.974C-0.279783 195.328 -7.90866 202.954 -12.6903 215.969C-20.7861 238.003 -52.463 245.318 -80.418 251.769C-103.592 257.117 -123.607 261.738 -126.121 273.394C-128.024 282.214 -124.031 290.014 -113.552 297.937C-104.16 305.04 -90.7221 311.365 -76.5013 318.064C-38.1007 336.145 5.42286 356.638 -12.1377 401.302C-18.7219 418.052 -22.1801 435.193 -22.5571 452.272C-23.2179 482.21 -14.4201 511.988 3.57017 539.281C40.2787 594.969 108.307 629.535 185.54 631.746C315.759 635.472 391.527 549.794 418.06 512.782C425.548 502.335 463.115 445.963 467.206 361.807C468.529 334.918 483.002 312.78 495.772 293.251C506.08 277.489 515.338 263.33 515.639 249.698L515.639 249.69Z" fill="url(#paint13_linear_118_2916)"/>
<path d="M-130.022 271.726C-129.994 270.455 -129.825 269.167 -129.514 267.848C-126.89 256.756 -106.206 253.068 -82.2529 248.797C-52.2651 243.45 -18.2766 237.391 -10.2735 215.119C-5.56597 201.911 2.46685 194.089 14.2816 191.211C24.8081 188.645 37.349 190.15 49.4794 191.607C65.6664 193.55 82.4084 195.56 95.0635 188.158C107.841 180.693 117.71 167.269 125.236 147.113C131.878 129.328 135.873 108.816 139.739 88.9842C143.605 69.1599 147.251 50.4336 153.194 36.287C159.882 20.3594 168.531 12.5009 180.409 11.5621C190.187 10.7536 198.658 12.895 206.302 18.1069C213.115 22.751 219.112 29.7514 224.642 39.5045C234.904 57.6155 241.998 82.9171 248.864 107.382C260.927 150.391 273.397 194.861 303.597 205.854C340.827 219.238 384.356 216.757 422.765 214.571C444.826 213.315 465.663 212.127 482.159 214.253C500.52 216.617 511.667 222.828 517.24 233.799C526.487 251.911 513.674 270.2 498.842 291.375C484.852 311.349 468.996 333.989 467.594 361.816C465.939 394.918 458.971 427.453 446.886 458.516C435.43 487.965 423.114 506.433 418.349 513.008L418.232 513.174C399.193 539.622 376.574 562.447 351.004 581.023C329.125 596.913 305.514 609.308 280.824 617.856C250.696 628.286 218.632 633.093 185.523 632.134C165.161 631.543 145.251 628.737 126.344 623.787C108.182 619.034 90.8939 612.291 74.966 603.756C44.1171 587.224 18.7304 564.128 1.55208 536.975C-12.0519 515.47 -20.0845 492.385 -22.3244 468.356C-24.6628 443.285 -20.5364 418.415 -10.0622 394.432C-4.44553 381.573 -3.71442 370.286 -7.82729 359.925C-16.9808 336.854 -49.2082 323.136 -77.6432 311.037C-92.5226 304.704 -106.575 298.727 -116.382 291.933C-125.764 285.434 -130.185 278.932 -130.026 271.734L-130.022 271.726ZM519.961 247.242C520.059 242.778 519.134 238.37 516.891 233.98C504.86 210.288 466.827 212.455 422.788 214.964C384.344 217.153 340.768 219.637 303.463 206.228C273.073 195.168 260.574 150.595 248.485 107.491C241.631 83.0464 234.54 57.7723 224.3 39.701C212.714 19.2571 198.779 10.4409 180.439 11.9552C168.722 12.8819 160.181 20.6642 153.555 36.4441C147.629 50.5558 143.983 69.2625 140.126 89.0634C136.255 108.911 132.256 129.439 125.605 147.255C118.046 167.496 108.121 180.99 95.2636 188.5C82.4935 195.966 65.6889 193.95 49.4355 191.998C37.3402 190.546 24.8345 189.046 14.379 191.593C2.54053 194.48 -5.17607 201.998 -9.90032 215.253C-17.9827 237.743 -52.0892 243.823 -82.1792 249.187C-105.999 253.434 -126.565 257.101 -129.128 267.943C-131.159 276.544 -127.038 284.06 -116.151 291.604C-106.379 298.374 -92.3423 304.347 -77.4824 310.672C-48.9776 322.804 -16.6684 336.551 -7.45563 359.776C-3.30193 370.24 -4.03529 381.629 -9.69734 394.589C-17.9057 413.379 -22.1994 432.692 -22.6239 451.925C-23.2668 481.051 -15.0425 510.004 1.8858 536.767C38.0634 593.962 106.721 629.469 185.54 631.746C315.382 635.503 391.301 549.922 417.919 512.951L418.037 512.785C422.793 506.222 435.089 487.789 446.525 458.383C458.593 427.362 465.552 394.867 467.206 361.807C468.61 333.867 484.503 311.176 498.526 291.16C509.664 275.256 519.661 260.987 519.964 247.25L519.961 247.242Z" fill="url(#paint14_linear_118_2916)"/>
<path d="M-133.084 266.301C-133.056 265.026 -132.871 263.727 -132.524 262.397C-129.859 252.083 -108.658 249.317 -84.1136 246.114C-51.9137 241.912 -15.4188 237.152 -7.49163 214.415C-2.80231 200.967 5.34575 193.254 17.4206 190.84C28.1691 188.691 41.009 190.847 53.4273 192.934C70.1242 195.74 87.3912 198.64 100.197 191.325C113.289 183.847 123.053 169.832 130.049 148.479C136.22 129.648 139.476 107.84 142.626 86.7481C145.67 66.3483 148.548 47.0792 153.798 32.5327C159.704 16.16 167.794 8.06544 179.258 7.05082C189.105 6.18103 197.566 8.40076 205.13 13.8306C211.869 18.6693 217.734 25.969 223.066 36.1534C232.962 55.0608 239.514 81.4965 245.853 107.064C257.151 152.643 268.834 199.776 299.877 210.509C339.032 224.049 385.154 219.859 425.841 216.166C448.284 214.126 469.486 212.204 486.207 213.723C504.805 215.412 516.057 221.183 521.612 231.878C531.005 249.954 517.386 268.209 501.614 289.353C486.363 309.797 469.077 332.967 467.594 361.827C465.87 395.341 458.749 428.241 446.424 459.605C434.637 489.6 421.938 508.075 418.325 513.019C418.055 513.39 417.735 513.83 417.372 514.336C413.968 519.049 406.891 528.854 395.767 541.089C381.969 556.259 366.703 569.925 350.389 581.704C328.636 597.409 305.138 609.649 280.54 618.086C250.546 628.373 218.577 633.099 185.523 632.134C164.793 631.528 144.552 628.644 125.37 623.562C106.944 618.681 89.4518 611.764 73.3721 603.007C42.2233 586.04 16.8177 562.379 -0.0993965 534.576C-13.6248 512.347 -21.2844 488.52 -22.8617 463.76C-24.5083 437.884 -19.3785 412.295 -7.61751 387.704C-1.25832 374.406 -0.195548 362.825 -4.37914 352.293C-13.722 328.751 -48.2354 315.454 -78.6809 303.726C-94.1873 297.752 -108.831 292.111 -119.001 285.639C-128.673 279.487 -133.242 273.256 -133.088 266.301L-133.084 266.301ZM524.288 244.865C524.383 240.554 523.466 236.295 521.264 232.051C515.776 221.487 504.625 215.785 486.167 214.106C469.481 212.588 448.299 214.515 425.872 216.551C385.145 220.252 338.981 224.441 299.744 210.875C268.498 200.071 256.79 152.835 245.467 107.154C239.135 81.6098 232.59 55.1979 222.713 36.33C211.547 14.9887 197.749 5.81061 179.289 7.44004C167.998 8.43492 160.011 16.4493 154.164 32.6624C148.93 47.1739 146.056 66.4236 143.012 86.8037C139.862 107.911 136.603 129.735 130.422 148.598C123.393 170.044 113.573 184.132 100.39 191.663C87.4605 199.05 70.1272 196.136 53.36 193.317C40.9808 191.239 28.1761 189.084 17.4983 191.223C5.40775 193.64 -2.41632 201.054 -7.12227 214.545C-10.6947 224.792 -20.375 232.333 -36.7171 237.596C-50.9637 242.184 -68.549 244.48 -84.0674 246.504C-108.475 249.69 -129.554 252.439 -132.15 262.495C-136.897 280.879 -109.855 291.296 -78.5396 303.36C-48.0164 315.117 -13.4214 328.444 -4.01147 352.148C0.208897 362.787 -0.852283 374.47 -7.26074 387.873C-17.0213 408.281 -22.1103 429.723 -22.5866 451.125C-23.2195 479.796 -15.5674 508.399 0.234237 534.372C35.9062 592.992 105.179 629.392 185.532 631.738C315.111 635.524 390.605 550.731 417.052 514.102C417.415 513.596 417.735 513.155 418.005 512.784C422.567 506.535 462.707 449.211 467.198 361.803C468.688 332.825 486.011 309.601 501.294 289.114C513.258 273.079 523.975 258.708 524.28 244.869L524.288 244.865Z" fill="url(#paint15_linear_118_2916)"/>
</g>
<defs>
<linearGradient id="paint0_linear_118_2916" x1="197.729" y1="79.315" x2="185.527" y2="632.131" gradientUnits="userSpaceOnUse">
<stop stop-color="#03B7FF"/>
<stop offset="1" stop-color="#0A70FF"/>
</linearGradient>
<linearGradient id="paint1_linear_118_2916" x1="205.392" y1="75.1233" x2="174.837" y2="631.684" gradientUnits="userSpaceOnUse">
<stop stop-color="#03B7FF"/>
<stop offset="1" stop-color="#0A70FF"/>
</linearGradient>
<linearGradient id="paint2_linear_118_2916" x1="213.256" y1="71.404" x2="164.112" y2="630.826" gradientUnits="userSpaceOnUse">
<stop stop-color="#03B7FF"/>
<stop offset="1" stop-color="#0A70FF"/>
</linearGradient>
<linearGradient id="paint3_linear_118_2916" x1="229.531" y1="65.644" x2="142.743" y2="627.799" gradientUnits="userSpaceOnUse">
<stop stop-color="#03B7FF"/>
<stop offset="1" stop-color="#0A70FF"/>
</linearGradient>
<linearGradient id="paint4_linear_118_2916" x1="237.853" y1="63.6857" x2="132.143" y2="625.599" gradientUnits="userSpaceOnUse">
<stop stop-color="#03B7FF"/>
<stop offset="1" stop-color="#0A70FF"/>
</linearGradient>
<linearGradient id="paint5_linear_118_2916" x1="246.271" y1="62.3796" x2="121.657" y2="623.011" gradientUnits="userSpaceOnUse">
<stop stop-color="#03B7FF"/>
<stop offset="1" stop-color="#0A70FF"/>
</linearGradient>
<linearGradient id="paint6_linear_118_2916" x1="254.745" y1="61.7426" x2="111.311" y2="620.004" gradientUnits="userSpaceOnUse">
<stop stop-color="#03B7FF"/>
<stop offset="1" stop-color="#0A70FF"/>
</linearGradient>
<linearGradient id="paint7_linear_118_2916" x1="263.196" y1="61.7798" x2="101.103" y2="616.552" gradientUnits="userSpaceOnUse">
<stop stop-color="#03B7FF"/>
<stop offset="1" stop-color="#0A70FF"/>
</linearGradient>
<linearGradient id="paint8_linear_118_2916" x1="271.605" y1="62.5036" x2="91.0879" y2="612.688" gradientUnits="userSpaceOnUse">
<stop stop-color="#03B7FF"/>
<stop offset="1" stop-color="#0A70FF"/>
</linearGradient>
<linearGradient id="paint9_linear_118_2916" x1="279.952" y1="63.8844" x2="81.3008" y2="608.436" gradientUnits="userSpaceOnUse">
<stop stop-color="#03B7FF"/>
<stop offset="1" stop-color="#0A70FF"/>
</linearGradient>
<linearGradient id="paint10_linear_118_2916" x1="288.165" y1="66.0051" x2="71.7578" y2="603.797" gradientUnits="userSpaceOnUse">
<stop stop-color="#03B7FF"/>
<stop offset="1" stop-color="#0A70FF"/>
</linearGradient>
<linearGradient id="paint11_linear_118_2916" x1="296.171" y1="68.8103" x2="62.4463" y2="598.818" gradientUnits="userSpaceOnUse">
<stop stop-color="#03B7FF"/>
<stop offset="1" stop-color="#0A70FF"/>
</linearGradient>
<linearGradient id="paint12_linear_118_2916" x1="303.958" y1="72.3107" x2="53.4176" y2="593.496" gradientUnits="userSpaceOnUse">
<stop stop-color="#03B7FF"/>
<stop offset="1" stop-color="#0A70FF"/>
</linearGradient>
<linearGradient id="paint13_linear_118_2916" x1="311.452" y1="76.4874" x2="44.6671" y2="587.875" gradientUnits="userSpaceOnUse">
<stop stop-color="#03B7FF"/>
<stop offset="1" stop-color="#0A70FF"/>
</linearGradient>
<linearGradient id="paint14_linear_118_2916" x1="318.657" y1="81.3125" x2="36.238" y2="581.961" gradientUnits="userSpaceOnUse">
<stop stop-color="#03B7FF"/>
<stop offset="1" stop-color="#0A70FF"/>
</linearGradient>
<linearGradient id="paint15_linear_118_2916" x1="325.389" y1="86.8181" x2="28.0718" y2="575.74" gradientUnits="userSpaceOnUse">
<stop stop-color="#03B7FF"/>
<stop offset="1" stop-color="#0A70FF"/>
</linearGradient>
<clipPath id="clip0_118_2916">
<rect width="625.083" height="657.139" fill="white" transform="translate(529.772 14.501) rotate(91.2644)"/>
</clipPath>
</defs>
</svg>
