<svg width="21" height="21" viewBox="0 0 21 21" fill="none" xmlns="http://www.w3.org/2000/svg">
<path d="M7.54688 10.5C7.54688 10.587 7.51231 10.6705 7.45077 10.732C7.38923 10.7936 7.30577 10.8281 7.21875 10.8281C7.13173 10.8281 7.04827 10.7936 6.98673 10.732C6.9252 10.6705 6.89062 10.587 6.89062 10.5C6.89062 10.413 6.9252 10.3295 6.98673 10.268C7.04827 10.2064 7.13173 10.1719 7.21875 10.1719C7.30577 10.1719 7.38923 10.2064 7.45077 10.268C7.51231 10.3295 7.54688 10.413 7.54688 10.5ZM7.54688 10.5H7.21875M10.8281 10.5C10.8281 10.587 10.7936 10.6705 10.732 10.732C10.6705 10.7936 10.587 10.8281 10.5 10.8281C10.413 10.8281 10.3295 10.7936 10.268 10.732C10.2064 10.6705 10.1719 10.587 10.1719 10.5C10.1719 10.413 10.2064 10.3295 10.268 10.268C10.3295 10.2064 10.413 10.1719 10.5 10.1719C10.587 10.1719 10.6705 10.2064 10.732 10.268C10.7936 10.3295 10.8281 10.413 10.8281 10.5ZM10.8281 10.5H10.5M14.1094 10.5C14.1094 10.587 14.0748 10.6705 14.0133 10.732C13.9517 10.7936 13.8683 10.8281 13.7812 10.8281C13.6942 10.8281 13.6108 10.7936 13.5492 10.732C13.4877 10.6705 13.4531 10.587 13.4531 10.5C13.4531 10.413 13.4877 10.3295 13.5492 10.268C13.6108 10.2064 13.6942 10.1719 13.7812 10.1719C13.8683 10.1719 13.9517 10.2064 14.0133 10.268C14.0748 10.3295 14.1094 10.413 14.1094 10.5ZM14.1094 10.5H13.7812M18.375 10.5C18.375 11.5342 18.1713 12.5582 17.7756 13.5136C17.3798 14.4691 16.7997 15.3372 16.0685 16.0685C15.3372 16.7997 14.4691 17.3798 13.5136 17.7756C12.5582 18.1713 11.5342 18.375 10.5 18.375C9.46584 18.375 8.44181 18.1713 7.48637 17.7756C6.53093 17.3798 5.6628 16.7997 4.93153 16.0685C4.20027 15.3372 3.6202 14.4691 3.22445 13.5136C2.82869 12.5582 2.625 11.5342 2.625 10.5C2.625 8.41142 3.45469 6.40838 4.93153 4.93153C6.40838 3.45469 8.41142 2.625 10.5 2.625C12.5886 2.625 14.5916 3.45469 16.0685 4.93153C17.5453 6.40838 18.375 8.41142 18.375 10.5Z" stroke="black" stroke-width="1.5" stroke-linecap="round" stroke-linejoin="round"/>
</svg>
