<svg width="22" height="22" viewBox="0 0 22 22" fill="none" xmlns="http://www.w3.org/2000/svg">
<path fill-rule="evenodd" clip-rule="evenodd" d="M15.125 4.10479V4.31287C16.3157 4.42176 17.5016 4.57833 18.6798 4.7822C18.7688 4.79761 18.8539 4.83039 18.9301 4.87867C19.0064 4.92695 19.0725 4.98978 19.1245 5.06358C19.1765 5.13738 19.2135 5.2207 19.2333 5.30878C19.2531 5.39687 19.2553 5.48799 19.2399 5.57695C19.2245 5.66591 19.1917 5.75097 19.1435 5.82726C19.0952 5.90355 19.0323 5.96958 18.9585 6.02159C18.8847 6.0736 18.8014 6.11056 18.7133 6.13037C18.6253 6.15018 18.5341 6.15244 18.4452 6.13704L18.2536 6.10495L17.3323 18.0858C17.2792 18.7766 16.9673 19.4218 16.459 19.8926C15.9507 20.3634 15.2834 20.6249 14.5906 20.625H7.41034C6.71752 20.6249 6.05024 20.3634 5.54192 19.8926C5.0336 19.4218 4.72171 18.7766 4.66859 18.0858L3.74642 6.10495L3.55484 6.13704C3.46588 6.15244 3.37476 6.15018 3.28667 6.13037C3.19859 6.11056 3.11527 6.0736 3.04147 6.02159C2.89242 5.91656 2.79121 5.75661 2.76009 5.57695C2.72897 5.39729 2.7705 5.21262 2.87553 5.06358C2.98057 4.91454 3.14051 4.81332 3.32017 4.7822C4.49833 4.57808 5.68424 4.42151 6.87501 4.31287V4.10479C6.87501 2.67112 7.98692 1.44645 9.45634 1.3997C10.4855 1.36677 11.5154 1.36677 12.5446 1.3997C14.014 1.44645 15.125 2.67112 15.125 4.10479ZM9.50034 2.77379C10.5002 2.74181 11.5008 2.74181 12.5006 2.77379C13.1908 2.79579 13.75 3.37695 13.75 4.10479V4.20837C11.9184 4.09713 10.0817 4.09713 8.25001 4.20837V4.10479C8.25001 3.37695 8.80826 2.79579 9.50034 2.77379ZM9.17492 8.22337C9.17143 8.13308 9.15019 8.04437 9.11242 7.9623C9.07464 7.88022 9.02107 7.80639 8.95476 7.74502C8.88845 7.68365 8.81071 7.63594 8.72596 7.60461C8.64121 7.57329 8.55112 7.55896 8.46084 7.56245C8.37056 7.56594 8.28184 7.58718 8.19977 7.62496C8.11769 7.66273 8.04386 7.7163 7.98249 7.78261C7.92112 7.84892 7.87341 7.92667 7.84208 8.01142C7.81076 8.09616 7.79643 8.18625 7.79992 8.27654L8.11801 16.5265C8.12506 16.7087 8.2042 16.8807 8.33803 17.0046C8.4043 17.0659 8.482 17.1136 8.56669 17.1449C8.65138 17.1762 8.74141 17.1905 8.83163 17.187C8.92185 17.1835 9.01051 17.1623 9.09253 17.1245C9.17455 17.0868 9.24833 17.0332 9.30966 16.967C9.37099 16.9007 9.41866 16.823 9.44997 16.7383C9.48127 16.6536 9.49558 16.5636 9.49209 16.4734L9.17492 8.22337ZM14.1983 8.27654C14.205 8.18452 14.1931 8.09209 14.1634 8.00475C14.1336 7.91742 14.0866 7.83697 14.0251 7.76819C13.9636 7.69941 13.8889 7.64372 13.8054 7.60442C13.7219 7.56513 13.6314 7.54304 13.5392 7.53947C13.447 7.5359 13.355 7.55092 13.2688 7.58365C13.1825 7.61637 13.1037 7.66612 13.0371 7.72994C12.9704 7.79375 12.9173 7.87033 12.8809 7.9551C12.8445 8.03987 12.8255 8.13111 12.8251 8.22337L12.507 16.4734C12.5 16.6557 12.5656 16.8334 12.6896 16.9673C12.8135 17.1012 12.9856 17.1804 13.1679 17.1875C13.3503 17.1945 13.5279 17.1288 13.6618 17.0049C13.7958 16.8809 13.875 16.7089 13.882 16.5265L14.1983 8.27654Z" fill="white"/>
</svg>
