<svg width="26" height="26" viewBox="0 0 26 26" fill="none" xmlns="http://www.w3.org/2000/svg">
<mask id="mask0_125_1889" style="mask-type:luminance" maskUnits="userSpaceOnUse" x="0" y="0" width="26" height="26">
<path d="M26 0H0V26H26V0Z" fill="white"/>
</mask>
<g mask="url(#mask0_125_1889)">
<path opacity="0.4" d="M22.8475 23.291C22.8475 23.5943 22.6092 23.8327 22.3058 23.8327H3.69419C3.39086 23.8327 3.15253 23.5943 3.15253 23.291C3.15253 18.806 7.57253 15.166 13 15.166C14.1158 15.166 15.1992 15.3177 16.1958 15.6102C15.5567 16.3685 15.1667 17.3543 15.1667 18.416C15.1667 19.2285 15.3942 19.9977 15.795 20.6477C16.0117 21.016 16.2933 21.3518 16.6183 21.6335C17.3767 22.3268 18.3842 22.7493 19.5 22.7493C20.7133 22.7493 21.8075 22.251 22.5875 21.4493C22.7608 22.0343 22.8475 22.6518 22.8475 23.291Z" fill="#E63D4F"/>
<path d="M23.7033 17.376C23.595 16.9535 23.4217 16.5309 23.1833 16.1518C23.0208 15.8701 22.8042 15.5993 22.5658 15.3501C21.7858 14.5701 20.7675 14.1476 19.7275 14.0934C18.5467 14.0176 17.3442 14.4509 16.4342 15.3501C15.5783 16.2059 15.145 17.3434 15.1667 18.4809C15.1775 19.5643 15.6108 20.6476 16.4342 21.4818C17.0083 22.0559 17.7125 22.4351 18.46 22.6085C18.8717 22.7168 19.305 22.7601 19.7383 22.7276C20.7675 22.6843 21.775 22.2726 22.5658 21.4818C23.6817 20.3659 24.0608 18.7951 23.7033 17.376ZM21.2333 20.1493C20.9192 20.4634 20.3992 20.4634 20.085 20.1493L19.4892 19.5535L18.915 20.1276C18.6008 20.4418 18.0808 20.4418 17.7667 20.1276C17.4525 19.8026 17.4525 19.2935 17.7667 18.9793L18.3408 18.4051L17.7883 17.8634C17.4742 17.5384 17.4742 17.0293 17.7883 16.7043C18.1133 16.3901 18.6225 16.3901 18.9475 16.7043L19.4892 17.2568L20.0633 16.6826C20.3775 16.3685 20.8867 16.3685 21.2117 16.6826C21.5258 16.9968 21.5258 17.5168 21.2117 17.831L20.6375 18.4051L21.2333 19.001C21.5475 19.3151 21.5475 19.8351 21.2333 20.1493Z" fill="#E63D4F"/>
<path d="M13 12.9993C15.9916 12.9993 18.4167 10.5742 18.4167 7.58268C18.4167 4.59114 15.9916 2.16602 13 2.16602C10.0085 2.16602 7.58337 4.59114 7.58337 7.58268C7.58337 10.5742 10.0085 12.9993 13 12.9993Z" fill="#E63D4F"/>
</g>
</svg>
