<svg width="22" height="22" viewBox="0 0 22 22" fill="none" xmlns="http://www.w3.org/2000/svg">
<path fill-rule="evenodd" clip-rule="evenodd" d="M8.25 2.0625C8.43233 2.0625 8.6072 2.13493 8.73613 2.26386C8.86506 2.3928 8.9375 2.56766 8.9375 2.75V4.1305C10.575 4.15518 12.21 4.26871 13.8352 4.47058C13.9249 4.48178 14.0114 4.51052 14.0899 4.55516C14.1684 4.5998 14.2374 4.65946 14.2929 4.73075C14.3483 4.80204 14.3892 4.88355 14.4131 4.97064C14.4371 5.05772 14.4437 5.14867 14.4325 5.23829C14.4213 5.32791 14.3925 5.41445 14.3479 5.49297C14.3032 5.57148 14.2436 5.64044 14.1723 5.69589C14.101 5.75135 14.0195 5.79222 13.9324 5.81617C13.8453 5.84013 13.7544 5.8467 13.6647 5.8355C13.0597 5.75942 12.452 5.69708 11.8406 5.64667C11.3058 7.73278 10.3822 9.69922 9.11808 11.4427C9.40958 11.7948 9.71391 12.133 10.0347 12.4575C10.1626 12.5876 10.2336 12.7631 10.2321 12.9455C10.2305 13.1279 10.1566 13.3022 10.0265 13.4301C9.89643 13.558 9.72089 13.6289 9.5385 13.6274C9.3561 13.6258 9.18179 13.5519 9.05391 13.4218C8.77601 13.1393 8.50788 12.8473 8.25 12.5464C6.80293 14.2375 5.04236 15.6326 3.06533 16.6549C2.90329 16.7385 2.71467 16.7544 2.54096 16.6989C2.36725 16.6435 2.22267 16.5213 2.13904 16.3593C2.05541 16.1973 2.03957 16.0086 2.09501 15.8349C2.15045 15.6612 2.27263 15.5166 2.43466 15.433C4.33548 14.4498 6.01794 13.0925 7.381 11.4427C6.58126 10.3386 5.91596 9.1431 5.39916 7.8815C5.33419 7.71359 5.33768 7.52688 5.40888 7.36152C5.48009 7.19615 5.61332 7.06531 5.77996 6.99712C5.94659 6.92893 6.13333 6.92883 6.30003 6.99684C6.46674 7.06485 6.60012 7.19554 6.6715 7.36083C7.09302 8.38968 7.62213 9.37107 8.25 10.2887C9.23892 8.84341 9.97968 7.24323 10.4417 5.55408C7.90288 5.42817 5.35787 5.52233 2.83525 5.8355C2.65425 5.85811 2.47168 5.80789 2.32771 5.69589C2.18373 5.58389 2.09015 5.41929 2.06754 5.23829C2.04493 5.05729 2.09515 4.87472 2.20715 4.73075C2.31914 4.58678 2.48375 4.49319 2.66475 4.47058C4.28994 4.26831 5.92495 4.15478 7.5625 4.1305V2.75C7.5625 2.56766 7.63493 2.3928 7.76386 2.26386C7.89279 2.13493 8.06766 2.0625 8.25 2.0625ZM14.4375 8.25C14.5684 8.24995 14.6966 8.28728 14.807 8.35759C14.9174 8.4279 15.0055 8.52828 15.0608 8.64692L19.8733 18.9594C19.9115 19.0413 19.9332 19.1298 19.9371 19.2201C19.941 19.3103 19.9271 19.4004 19.8962 19.4853C19.8653 19.5702 19.818 19.6481 19.757 19.7147C19.696 19.7813 19.6224 19.8352 19.5406 19.8733C19.3753 19.9504 19.1861 19.9586 19.0147 19.8962C18.8433 19.8338 18.7037 19.7059 18.6267 19.5406L17.5285 17.1875H11.3465L10.2483 19.5406C10.1713 19.7059 10.0317 19.8338 9.86029 19.8962C9.68889 19.9586 9.49973 19.9504 9.33441 19.8733C9.1691 19.7963 9.04116 19.6567 8.97876 19.4853C8.91636 19.3139 8.9246 19.1247 9.00166 18.9594L13.8142 8.64692C13.8695 8.52828 13.9575 8.4279 14.068 8.35759C14.1784 8.28728 14.3066 8.24995 14.4375 8.25ZM11.9882 15.8125H16.8868L14.4375 10.5637L11.9882 15.8125Z" fill="#069185"/>
</svg>
