<svg width="13" height="17" viewBox="0 0 13 17" fill="none" xmlns="http://www.w3.org/2000/svg">
<path d="M10.9354 2.81452V3.41129L8.08058 1.75806C6.99994 1.1371 5.49187 1.1371 4.41932 1.75806L1.56448 3.41935V2.81452C1.56448 1 2.55642 0 4.37094 0H8.12897C9.94348 0 10.9354 1 10.9354 2.81452Z" fill="#F59E0B"/>
<path d="M10.9597 4.81511L10.8468 4.75866L9.75 4.12963L7.47581 2.81511C6.78226 2.41189 5.71774 2.41189 5.02419 2.81511L2.75 4.12157L1.65323 4.76673L1.50806 4.83931C0.0967741 5.79092 0 5.96834 0 7.49251V11.1377C0 12.6619 0.0967741 12.8393 1.54032 13.8151L5.02419 15.8232C5.37097 16.0328 5.80645 16.1215 6.25 16.1215C6.68548 16.1215 7.12903 16.0248 7.47581 15.8232L10.9919 13.7909C12.4113 12.8393 12.5 12.6699 12.5 11.1377V7.49251C12.5 5.96834 12.4032 5.79092 10.9597 4.81511ZM8.5 9.27477L8.00807 9.87961C7.92742 9.96832 7.87097 10.1377 7.87903 10.2586L7.92742 11.0328C7.95968 11.5086 7.62097 11.7506 7.17742 11.5812L6.45968 11.2909C6.34677 11.2506 6.16129 11.2506 6.04839 11.2909L5.33065 11.5732C4.8871 11.7506 4.54839 11.5006 4.58065 11.0248L4.62903 10.2506C4.6371 10.1296 4.58065 9.96025 4.5 9.87154L4 9.27477C3.69355 8.91186 3.83064 8.50864 4.29032 8.38767L5.04032 8.19412C5.16129 8.16186 5.29839 8.04896 5.3629 7.95219L5.78226 7.30703C6.04032 6.9038 6.45161 6.9038 6.71774 7.30703L7.1371 7.95219C7.20161 8.05703 7.34677 8.16186 7.45968 8.19412L8.20968 8.38767C8.66936 8.50864 8.80645 8.91186 8.5 9.27477Z" fill="#F59E0B"/>
</svg>
