<svg width="22" height="22" viewBox="0 0 22 22" fill="none" xmlns="http://www.w3.org/2000/svg">
<g clip-path="url(#clip0_118_3496)">
<mask id="mask0_118_3496" style="mask-type:luminance" maskUnits="userSpaceOnUse" x="0" y="0" width="22" height="22">
<path d="M22 0H0V22H22V0Z" fill="white"/>
</mask>
<g mask="url(#mask0_118_3496)">
<path d="M7.69073 16.9501V7.63681C7.69073 7.27014 7.80074 6.91264 8.0024 6.61014L10.5049 2.88847C10.8991 2.29264 11.8799 1.87097 12.7141 2.18264C13.6124 2.48514 14.2082 3.49347 14.0157 4.39181L13.5391 7.38931C13.5024 7.66431 13.5757 7.91181 13.7316 8.10431C13.8874 8.27847 14.1166 8.38847 14.3641 8.38847H18.1316C18.8557 8.38847 19.4791 8.68181 19.8457 9.19513C20.1941 9.69013 20.2582 10.3318 20.0291 10.9826L17.7741 17.8485C17.4899 18.9851 16.2524 19.911 15.0241 19.911H11.4491C10.8349 19.911 9.97324 19.7001 9.57908 19.306L8.40574 18.3985C7.95657 18.0593 7.69073 17.5185 7.69073 16.9501Z" fill="#EA580C"/>
<path d="M4.77584 5.84961H3.83167C2.41084 5.84961 1.83334 6.39961 1.83334 7.75628V16.978C1.83334 18.3346 2.41084 18.8846 3.83167 18.8846H4.77584C6.19667 18.8846 6.77417 18.3346 6.77417 16.978V7.75628C6.77417 6.39961 6.19667 5.84961 4.77584 5.84961Z" fill="#EA580C"/>
</g>
</g>
<defs>
<clipPath id="clip0_118_3496">
<rect width="22" height="22" fill="white"/>
</clipPath>
</defs>
</svg>
