<svg width="24" height="24" viewBox="0 0 24 24" fill="none" xmlns="http://www.w3.org/2000/svg">
<g clip-path="url(#clip0_118_3518)">
<mask id="mask0_118_3518" style="mask-type:luminance" maskUnits="userSpaceOnUse" x="0" y="0" width="24" height="24">
<path d="M24 0H0V24H24V0Z" fill="white"/>
</mask>
<g mask="url(#mask0_118_3518)">
<path d="M12 12C14.7614 12 17 9.76142 17 7C17 4.23858 14.7614 2 12 2C9.23858 2 7 4.23858 7 7C7 9.76142 9.23858 12 12 12Z" fill="#2563EB"/>
<path opacity="0.4" d="M12 14.5C6.99 14.5 2.90997 17.86 2.90997 22C2.90997 22.28 3.12997 22.5 3.40997 22.5H20.59C20.87 22.5 21.09 22.28 21.09 22C21.09 17.86 17.01 14.5 12 14.5Z" fill="#2563EB"/>
<path d="M21.43 14.7403C20.53 13.8403 19.82 14.1303 19.21 14.7403L15.67 18.2804C15.53 18.4204 15.4 18.6803 15.37 18.8703L15.18 20.2203C15.11 20.7103 15.45 21.0503 15.94 20.9803L17.29 20.7903C17.48 20.7603 17.75 20.6303 17.88 20.4903L21.42 16.9503C22.04 16.3503 22.33 15.6403 21.43 14.7403Z" fill="#2563EB"/>
</g>
</g>
<defs>
<clipPath id="clip0_118_3518">
<rect width="24" height="24" fill="white"/>
</clipPath>
</defs>
</svg>
