<svg width="53" height="53" viewBox="0 0 53 53" fill="none" xmlns="http://www.w3.org/2000/svg">
<g clip-path="url(#clip0_7_58)">
<path d="M0.782346 20.1355C4.29698 5.92765 18.6628 -2.73368 32.865 0.782385C47.0711 4.29577 55.7322 18.6593 52.2176 32.8645C48.7016 47.0696 34.3398 55.7337 20.1336 52.2176C5.93151 48.7042 -2.73497 34.3393 0.782346 20.1355Z" fill="#F1F2F2"/>
<path d="M17.6255 1.53392C9.5374 4.4179 3.00064 11.1709 0.78235 20.1355C-2.52294 33.4832 4.92905 46.9704 17.6255 51.4647V1.53392Z" fill="#223C72"/>
<path d="M35.4161 1.55002V51.45C43.4867 48.5579 50.0047 41.8103 52.2176 32.8645C55.5162 19.5316 48.0884 6.05917 35.4161 1.55002Z" fill="#EF3827"/>
</g>
<defs>
<clipPath id="clip0_7_58">
<rect width="53" height="53" fill="white"/>
</clipPath>
</defs>
</svg>
