<svg width="70" height="68" viewBox="0 0 70 68" fill="none" xmlns="http://www.w3.org/2000/svg">
<g clip-path="url(#clip0_7_48)">
<mask id="mask0_7_48" style="mask-type:luminance" maskUnits="userSpaceOnUse" x="3" y="0" width="64" height="65">
<path d="M34.9743 0C20.7343 0 7.78602 9.84223 4.21115 24.5655C2.81334e-05 41.897 10.3744 59.4235 27.3795 63.7101C44.3879 68 61.5826 57.4291 65.7921 40.0976C70 22.766 59.6305 5.24122 42.6221 0.954587C40.0627 0.309463 37.5 0 34.9759 0H34.9743Z" fill="white"/>
</mask>
<g mask="url(#mask0_7_48)">
<path d="M70 0H0V68H70V0Z" fill="url(#paint0_radial_7_48)"/>
</g>
<path d="M4.21115 24.5671C8.41905 7.23226 25.617 -3.33532 42.6221 0.954586C59.6305 5.24286 70 22.766 65.7921 40.0976C61.5826 57.4291 44.3879 68 27.3795 63.7101C10.3744 59.4218 2.81334e-05 41.897 4.21115 24.5671Z" fill="#223C72"/>
<path d="M57.5032 9.54096L44.7478 18.2059V1.57188C44.0521 1.34428 43.3435 1.13634 42.6221 0.954589C36.6372 -0.555067 30.6298 -0.222681 25.1719 1.59644V18.2092L12.4663 9.57862C9.55656 12.5652 7.19313 16.1608 5.58645 20.233L8.95084 22.5188H4.7815C4.57263 23.1901 4.37983 23.8729 4.21113 24.5671C2.71852 30.7089 3.05913 36.8752 4.8779 42.4685H9.03439L5.70534 44.7297C7.32006 48.6823 9.69313 52.2862 12.688 55.312L25.1719 46.8321V63.065C25.8949 63.304 26.6308 63.5202 27.3811 63.7085C33.3355 65.2116 39.3124 64.889 44.7478 63.0944V46.8304L57.2815 55.3431C60.2249 52.3893 62.6301 48.8215 64.2818 44.7723L60.8837 42.4636H65.1221C65.3728 41.6891 65.5961 40.8982 65.7921 40.0927C67.2542 34.0688 66.9537 28.0203 65.2282 22.5138H60.9688L64.3991 20.1839C62.8165 16.2149 60.474 12.5881 57.5032 9.53605" fill="#EFEBE7"/>
<path d="M20.2924 22.5188L8.51384 14.5349C7.72978 15.7466 7.02123 17.0188 6.39623 18.35L12.545 22.5188H20.2924ZM61.4396 14.4727C60.6491 13.2545 59.7751 12.092 58.8271 10.99L44.7478 20.5326V22.5204H49.5694L61.4396 14.4744V14.4727ZM8.6006 50.2509C9.3943 51.4658 10.2699 52.6267 11.2195 53.7254L25.1703 44.2696V42.4668H20.0852L8.6006 50.2509ZM66.2388 26.6728H40.6716V0.528872C36.7963 -0.191571 32.937 -0.160461 29.2497 0.535421V26.6728H3.77251C3.07843 30.6221 3.12502 34.5534 3.82072 38.3079H29.2481V64.1194C33.1234 64.8513 36.9827 64.8301 40.67 64.144V38.3079H66.1729C66.9055 34.3619 66.8943 30.4305 66.2372 26.6728M49.841 42.4685L61.3834 50.2918C62.1739 49.0851 62.8888 47.8161 63.5219 46.4899L57.5884 42.4685H49.841Z" fill="#EF3827"/>
<path d="M44.7477 4.93667V7.03251C44.8731 6.63463 44.9373 6.25803 44.9389 5.90436C44.9389 5.55724 44.8779 5.23304 44.7477 4.93504" fill="#303F66"/>
</g>
<defs>
<radialGradient id="paint0_radial_7_48" cx="0" cy="0" r="1" gradientUnits="userSpaceOnUse" gradientTransform="translate(33.8392 31.6153) scale(31.7272 32.3332)">
<stop stop-color="white"/>
<stop offset="0.78" stop-color="white"/>
<stop offset="0.82" stop-color="#F9F8F7"/>
<stop offset="0.88" stop-color="#E9E5E3"/>
<stop offset="0.94" stop-color="#CFC8C1"/>
<stop offset="1" stop-color="#B6ABA1"/>
</radialGradient>
<clipPath id="clip0_7_48">
<rect width="70" height="68" fill="white"/>
</clipPath>
</defs>
</svg>
