<svg width="40" height="40" viewBox="0 0 40 40" fill="none" xmlns="http://www.w3.org/2000/svg">
<g clip-path="url(#clip0_105_1776)">
<mask id="mask0_105_1776" style="mask-type:luminance" maskUnits="userSpaceOnUse" x="0" y="0" width="40" height="40">
<path d="M40 0H0V40H40V0Z" fill="white"/>
</mask>
<g mask="url(#mask0_105_1776)">
<path d="M10.7496 14.1675C10.6496 14.1675 10.5496 14.1508 10.4496 14.1341C10.133 14.0508 9.84962 13.8508 9.68295 13.5675L7.08297 9.30082C6.44963 8.26749 6.24962 7.03412 6.54962 5.83412C6.83295 4.65079 7.56628 3.6341 8.61628 3.00077C9.64962 2.36744 10.883 2.16742 12.083 2.46742C13.283 2.75075 14.283 3.48407 14.9163 4.53407L17.5163 8.80084C17.883 9.38417 17.683 10.1508 17.0997 10.5175L11.3996 13.9841C11.1996 14.1008 10.983 14.1675 10.7496 14.1675ZM10.983 4.83415C10.5996 4.83415 10.233 4.93415 9.91628 5.13415C9.44962 5.41749 9.1163 5.88407 8.98297 6.4174C8.84962 6.9674 8.93295 7.51742 9.21628 7.98409L11.1663 11.1842L14.733 9.0174L12.783 5.81744C12.4996 5.35077 12.033 5.01744 11.4996 4.8841C11.3163 4.85077 11.1496 4.83415 10.983 4.83415Z" fill="#0A70FF"/>
<path d="M19.033 37.6818C18.533 37.6818 18.033 37.6152 17.5497 37.4652C16.0831 37.0318 14.8997 36.0318 14.2164 34.6152L10.7997 27.6485C8.98308 23.9485 10.2664 19.5485 13.7831 17.3985L19.0497 14.1985C22.5663 12.0485 27.0832 12.9318 29.5332 16.2485L34.1498 22.4818C35.0832 23.7485 35.433 25.2652 35.1497 26.7485C34.8663 28.2318 33.9665 29.5152 32.6165 30.3318L21.8997 36.8485C20.9997 37.3985 20.0163 37.6818 19.033 37.6818ZM23.1663 15.5318C22.1997 15.5318 21.233 15.7984 20.333 16.3318L15.0664 19.5317C12.6497 20.9983 11.7831 24.0152 13.0164 26.5485L16.4331 33.5152C16.8163 34.2818 17.4498 34.8318 18.2332 35.0652C19.0165 35.2985 19.8497 35.1652 20.5663 34.7318L31.2832 28.2152C32.0165 27.7652 32.4998 27.0818 32.6665 26.2818C32.8165 25.4818 32.6332 24.6652 32.1165 23.9818L27.4997 17.7485C26.4497 16.2985 24.833 15.5318 23.1663 15.5318Z" fill="#0A70FF"/>
<path d="M12.7999 20.7182C12.6999 20.7182 12.5999 20.7015 12.4999 20.6848C12.1832 20.6015 11.8999 20.4015 11.7332 20.1182L8.26657 14.4182C7.89991 13.8349 8.09991 13.0682 8.68324 12.7015L17.2165 7.50151C17.7998 7.15151 18.5832 7.33484 18.9332 7.91818L22.3998 13.6181C22.5665 13.9015 22.6332 14.2348 22.5498 14.5682C22.4665 14.8848 22.2665 15.1682 21.9832 15.3349L13.4499 20.5348C13.2499 20.6682 13.0165 20.7182 12.7999 20.7182ZM11.0499 14.2015L13.2165 17.7682L19.6165 13.8682L17.4498 10.3015L11.0499 14.2015Z" fill="#0A70FF"/>
<path d="M26.5998 33.7847C26.1832 33.7847 25.7665 33.5679 25.5332 33.1846L22.7832 28.6681C22.4165 28.0847 22.6165 27.3179 23.1998 26.9512C23.7832 26.6012 24.5665 26.7846 24.9165 27.3679L27.6665 31.8847C28.0332 32.4681 27.8332 33.2346 27.2498 33.6012C27.0498 33.7179 26.8165 33.7847 26.5998 33.7847Z" fill="#0A70FF"/>
<path d="M22.333 36.3824C21.9163 36.3824 21.4997 36.1655 21.2663 35.7822L18.5163 31.2657C18.1497 30.6824 18.3497 29.9155 18.933 29.5489C19.5163 29.1989 20.2997 29.3822 20.6497 29.9655L23.3997 34.4822C23.7663 35.0655 23.5663 35.8322 22.983 36.1989C22.783 36.3155 22.5497 36.3824 22.333 36.3824Z" fill="#0A70FF"/>
<path d="M30.8667 31.1835C30.45 31.1835 30.0333 30.9668 29.8 30.5835L27.05 26.0668C26.6833 25.4835 26.8833 24.7168 27.4667 24.3501C28.05 24.0001 28.8333 24.1835 29.1833 24.7668L31.9333 29.2835C32.3 29.8668 32.1 30.6335 31.5167 31.0001C31.3167 31.1168 31.1 31.1835 30.8667 31.1835Z" fill="#0A70FF"/>
</g>
</g>
<defs>
<clipPath id="clip0_105_1776">
<rect width="40" height="40" fill="white"/>
</clipPath>
</defs>
</svg>
