<svg width="62" height="53" viewBox="0 0 62 53" fill="none" xmlns="http://www.w3.org/2000/svg">
<path d="M52.9992 21.4793V14.1621C52.9992 11.3867 50.7446 9.13501 47.9654 9.13501H40.2218C40.2013 4.08739 36.0981 0 31.036 0C25.9739 0 21.8733 4.08482 21.8501 9.13501H14.1066C11.3274 9.13501 9.07273 11.3867 9.07273 14.1621V21.4768C4.05175 21.5358 0 25.6181 0 30.6477C0 35.6774 4.05175 39.7571 9.07273 39.8187V47.9729C9.07273 50.7483 11.3274 53 14.1066 53H47.9628C50.742 53 52.9967 50.7483 52.9967 47.9729V39.8161C57.9868 39.7186 62 35.6517 62 30.6477C62 25.6438 57.9842 21.5769 52.9967 21.4793H52.9992ZM24.6576 25.7131C26.7323 25.7131 28.4162 27.3922 28.4162 29.4667C28.4162 31.5412 26.7349 33.2203 24.6576 33.2203C22.5803 33.2203 20.8989 31.5412 20.8989 29.4667C20.8989 27.3922 22.5803 25.7131 24.6576 25.7131ZM42.5434 43.7135H21.2485V39.544H42.5434V43.7135ZM39.502 33.2178C37.4273 33.2178 35.7433 31.5386 35.7433 29.4641C35.7433 27.3896 37.4247 25.7105 39.502 25.7105C41.5793 25.7105 43.2607 27.3896 43.2607 29.4641C43.2607 31.5386 41.5793 33.2178 39.502 33.2178Z" fill="#0A70FF"/>
</svg>
