<svg width="21" height="21" viewBox="0 0 21 21" fill="none" xmlns="http://www.w3.org/2000/svg">
<path d="M4.35653 0.387157C4.63021 -0.129053 5.36979 -0.129053 5.64347 0.387157L5.97132 1.00552C6.65391 2.29299 7.70701 3.34609 8.99443 4.02868L9.61283 4.35653C10.129 4.63021 10.129 5.36979 9.61283 5.64347L8.99443 5.97132C7.70701 6.65391 6.65391 7.70701 5.97132 8.99452L5.64347 9.61282C5.36979 10.129 4.63021 10.129 4.35653 9.61282L4.02868 8.99452C3.34609 7.70701 2.29299 6.65391 1.00552 5.97132L0.387161 5.64347C-0.129049 5.36979 -0.129059 4.63021 0.387161 4.35653L1.00552 4.02868C2.29299 3.3461 3.34609 2.29299 4.02868 1.00553L4.35653 0.387157Z" fill="#00A2E8"/>
<path d="M14.8956 10.9272C15.1692 10.411 15.9088 10.411 16.1825 10.9272L16.5103 11.5456C17.1929 12.833 18.246 13.8862 19.5335 14.5687L20.1519 14.8966C20.6681 15.1703 20.6681 15.9098 20.1519 16.1835L19.5335 16.5114C18.246 17.194 17.1929 18.2471 16.5103 19.5345L16.1825 20.1529C15.9088 20.6691 15.1692 20.6691 14.8956 20.1529L14.5677 19.5345C13.8851 18.2471 12.832 17.194 11.5446 16.5114L10.9262 16.1835C10.41 15.9098 10.41 15.1703 10.9262 14.8966L11.5446 14.5687C12.832 13.8862 13.8851 12.833 14.5677 11.5456L14.8956 10.9272Z" fill="#00A2E8"/>
</svg>
