<svg width="20" height="21" viewBox="0 0 20 21" fill="none" xmlns="http://www.w3.org/2000/svg">
<path d="M19.0871 5.21C18.2371 4.27 16.8171 3.8 14.7571 3.8H14.5171V3.76C14.5171 2.08 14.5171 0 10.7571 0H9.23707C5.47711 0 5.47711 2.09 5.47711 3.76V3.81H5.23711C3.16711 3.81 1.75711 4.28 0.907108 5.22C-0.0828924 6.32 -0.0528923 7.8 0.0471077 8.80997L0.0571077 8.87997L0.134558 9.69327C0.148828 9.84307 0.229488 9.97837 0.355378 10.0608C0.595188 10.2177 0.996528 10.4764 1.23711 10.61C1.37711 10.7 1.52711 10.78 1.67711 10.86C3.38711 11.8 5.26711 12.43 7.17711 12.74C7.26711 13.68 7.67711 14.78 9.86707 14.78C12.0571 14.78 12.4871 13.69 12.5571 12.72C14.5971 12.39 16.5671 11.68 18.3471 10.64C18.4071 10.61 18.4471 10.58 18.4971 10.55C18.8939 10.3258 19.3054 10.0495 19.6806 9.77887C19.7936 9.69727 19.8659 9.57127 19.8813 9.43277L19.8971 9.28997L19.9471 8.81997C19.9571 8.75997 19.9571 8.70997 19.9671 8.63997C20.0471 7.63 20.0271 6.25 19.0871 5.21ZM11.0871 12.06C11.0871 13.12 11.0871 13.28 9.85707 13.28C8.62707 13.28 8.62707 13.09 8.62707 12.07V10.81H11.0871V12.06ZM6.90711 3.8V3.76C6.90711 2.06 6.90711 1.43 9.23707 1.43H10.7571C13.0871 1.43 13.0871 2.07 13.0871 3.76V3.81H6.90711V3.8Z" fill="#00BAD6"/>
<path d="M18.8707 11.9654C19.2243 11.7971 19.6315 12.0774 19.5961 12.4674L19.2372 16.4212C19.0272 18.4212 18.2072 20.4612 13.8072 20.4612H6.18716C1.78716 20.4612 0.967162 18.4212 0.757162 16.4312L0.416452 12.6834C0.381402 12.2979 0.779362 12.0179 1.132 12.1775C2.27141 12.693 4.37455 13.6076 5.67373 13.9479C5.83804 13.9909 5.97093 14.1085 6.04287 14.2624C6.64984 15.5605 7.96627 16.2512 9.86717 16.2512C11.7493 16.2512 13.0823 15.5339 13.6913 14.2326C13.7634 14.0786 13.8964 13.961 14.0608 13.9178C15.4404 13.5548 17.679 12.5324 18.8707 11.9654Z" fill="#00BAD6"/>
</svg>
