<svg width="18" height="19" viewBox="0 0 18 19" fill="none" xmlns="http://www.w3.org/2000/svg">
<path opacity="0.987" fill-rule="evenodd" clip-rule="evenodd" d="M7.93849 0.0809279C8.9043 -0.026976 9.47579 -0.026976 10.5135 0.0809279C12.3505 0.352813 14.0533 1.20191 15.3759 2.50544C14.4821 3.3502 13.6002 4.20729 12.7302 5.07648C11.0641 3.6644 9.20447 3.33847 7.1512 4.09868C5.64499 4.7914 4.59614 5.91396 4.00467 7.46635C3.03812 6.74677 2.08416 6.01042 1.14323 5.25765C1.07784 5.22323 1.00315 5.21063 0.930084 5.22168C2.42475 2.33981 4.76044 0.625776 7.93716 0.0795957" fill="#F44336"/>
<path opacity="0.997" fill-rule="evenodd" clip-rule="evenodd" d="M0.927508 5.22178C1.003 5.21023 1.07449 5.22222 1.14198 5.25775C2.08292 6.01051 3.03688 6.74686 4.00343 7.46645C3.85133 8.07132 3.75545 8.68895 3.71702 9.31147C3.74988 9.9136 3.84535 10.5046 4.00343 11.0846L0.999444 13.4758C-0.308722 10.7422 -0.3327 7.99087 0.927508 5.22178Z" fill="#FFC107"/>
<path opacity="0.999" fill-rule="evenodd" clip-rule="evenodd" d="M15.2332 16.3718C14.2979 15.5469 13.3186 14.7731 12.2998 14.0538C13.3211 13.3327 13.941 12.3433 14.1595 11.0858H9.15463V7.61023C12.0409 7.58625 14.9259 7.61067 17.8096 7.6835C18.3566 10.6542 17.7248 13.3327 15.9139 15.719C15.6986 15.9479 15.4705 16.1658 15.2332 16.3718Z" fill="#448AFF"/>
<path opacity="0.993" fill-rule="evenodd" clip-rule="evenodd" d="M4.00332 11.0857C5.09568 13.8006 7.09834 15.0679 10.0113 14.8876C10.829 14.793 11.613 14.5073 12.2999 14.0537C13.3194 14.7749 14.2972 15.5475 15.2333 16.3717C13.7501 17.7044 11.8591 18.4952 9.86875 18.615C9.41654 18.6511 8.96217 18.6511 8.50996 18.615C5.11921 18.2153 2.61567 16.5022 0.999336 13.4756L4.00332 11.0857Z" fill="#43A047"/>
</svg>
