<svg width="23" height="22" viewBox="0 0 23 22" fill="none" xmlns="http://www.w3.org/2000/svg">
<path d="M7.1875 7.5625H15.8125M7.1875 10.3125H11.5M2.15625 11.6967C2.15625 13.1633 3.23246 14.4412 4.75046 14.6548C5.83242 14.8069 6.92588 14.9233 8.03083 15.0022C8.36625 15.026 8.67292 15.1947 8.85979 15.4614L11.5 19.25L14.1402 15.4614C14.2328 15.3297 14.3556 15.2198 14.4993 15.1403C14.6429 15.0607 14.8036 15.0135 14.9692 15.0022C16.0666 14.9238 17.1608 14.8079 18.2495 14.6548C19.7675 14.4412 20.8437 13.1643 20.8437 11.6958V6.17925C20.8437 4.71075 19.7675 3.43384 18.2495 3.22025C16.0147 2.90649 13.7588 2.74932 11.5 2.75C9.20767 2.75 6.95367 2.91042 4.75046 3.22025C3.23246 3.43384 2.15625 4.71167 2.15625 6.17925V11.6958V11.6967Z" stroke="url(#paint0_linear_15_204)" stroke-width="2" stroke-linecap="round" stroke-linejoin="round"/>
<defs>
<linearGradient id="paint0_linear_15_204" x1="11.5" y1="2.75" x2="11.5" y2="19.25" gradientUnits="userSpaceOnUse">
<stop stop-color="#03B7FF"/>
<stop offset="1" stop-color="#0A70FF"/>
</linearGradient>
</defs>
</svg>
