<svg width="16" height="17" viewBox="0 0 16 17" fill="none" xmlns="http://www.w3.org/2000/svg">
<path d="M13.425 2.84792L9.11668 0.35625C8.29168 -0.11875 7.00002 -0.11875 6.17502 0.35625L1.825 2.86458C0.1 4.03125 0 4.20625 0 6.06458V10.5896C0 12.448 0.1 12.6313 1.85833 13.8146L6.16668 16.3063C6.58335 16.548 7.11668 16.6646 7.64168 16.6646C8.16668 16.6646 8.70002 16.548 9.10835 16.3063L13.4584 13.798C15.1833 12.6313 15.2833 12.4563 15.2833 10.598V6.06458C15.2833 4.20625 15.1833 4.03125 13.425 2.84792ZM7.64168 11.0396C6.15002 11.0396 4.93333 9.82296 4.93333 8.33129C4.93333 6.83962 6.15002 5.62292 7.64168 5.62292C9.13335 5.62292 10.35 6.83962 10.35 8.33129C10.35 9.82296 9.13335 11.0396 7.64168 11.0396Z" fill="#0A70FF"/>
</svg>
