<svg width="17" height="20" viewBox="0 0 17 20" fill="none" xmlns="http://www.w3.org/2000/svg">
<path d="M11.2899 19.9984C11.2299 19.9984 11.1599 19.9884 11.0999 19.9684C9.08993 19.3984 6.97993 19.3984 4.96994 19.9684C4.59994 20.0684 4.20994 19.8584 4.10994 19.4884C3.99994 19.1184 4.21994 18.7284 4.58994 18.6284C6.84993 17.9884 9.22993 17.9884 11.4899 18.6284C11.8599 18.7384 12.0799 19.1184 11.9699 19.4884C11.8699 19.7984 11.5899 19.9984 11.2899 19.9984Z" fill="#F59900"/>
<path d="M15.24 4.35757C14.2 2.25757 12.19 0.707569 9.86003 0.197569C7.42003 -0.342431 4.92 0.237569 3.01 1.77757C1.09 3.30757 0 5.59757 0 8.04755C0 10.6376 1.55 13.3476 3.89 14.9176V15.7476C3.88 16.0275 3.87 16.4575 4.21 16.8075C4.56 17.1675 5.08 17.2075 5.49 17.2075H10.62C11.16 17.2075 11.57 17.0575 11.85 16.7775C12.23 16.3875 12.22 15.8875 12.21 15.6175V14.9176C15.31 12.8275 17.26 8.41755 15.24 4.35757ZM9.75003 9.61755L8.68003 11.4775C8.54003 11.7175 8.29003 11.8575 8.03003 11.8575C7.90003 11.8575 7.77003 11.8275 7.66003 11.7575C7.30003 11.5475 7.18003 11.0876 7.38003 10.7375L8.23003 9.25755H7.39003C6.89003 9.25755 6.48003 9.03755 6.26003 8.66755C6.04003 8.28755 6.06003 7.82757 6.31003 7.38757L7.38003 5.52757C7.59003 5.16757 8.05003 5.04757 8.40003 5.24757C8.76003 5.45757 8.88003 5.91757 8.68003 6.26757L7.83003 7.74757H8.67003C9.17003 7.74757 9.58003 7.96757 9.80003 8.33755C10.02 8.71755 10 9.18755 9.75003 9.61755Z" fill="#F59900"/>
</svg>
