<svg width="98" height="98" viewBox="0 0 98 98" fill="none" xmlns="http://www.w3.org/2000/svg">
<g clip-path="url(#clip0_7_44)">
<path d="M8.32842 48.5105C8.49583 26.1427 26.7632 8.1574 49.125 8.3285C71.4903 8.49665 89.4744 26.7607 89.3061 49.1245C89.1357 71.4887 70.8733 89.4771 48.5075 89.3069C26.1487 89.1394 8.15558 70.8733 8.32842 48.5105Z" fill="#EF3827"/>
<path d="M48.537 65.5868C39.374 67.7808 30.1701 62.1329 27.976 52.9697C25.7819 43.8064 31.431 34.6084 40.594 32.4143C45.1636 31.3202 49.7421 32.1747 53.4538 34.4473C48.4726 30.0259 41.4829 28.0236 34.5139 29.6923C23.1748 32.4074 16.1751 43.8037 18.8908 55.1451C21.6064 66.4864 33.0086 73.4765 44.3477 70.7614C51.3167 69.0927 56.6414 64.1418 59.0819 57.9518C56.802 61.6506 53.107 64.4946 48.5375 65.5888" fill="white"/>
<path d="M62.3405 35.4323L67.495 40.0399L73.4761 36.562L70.6821 42.8958L75.836 47.5099L68.9548 46.806L66.1593 53.1338L64.6975 46.3681L57.8163 45.6643L63.8018 42.1959L62.3405 35.4323Z" fill="white"/>
</g>
<defs>
<clipPath id="clip0_7_44">
<rect width="81" height="81" fill="white" transform="translate(0 18.8618) rotate(-13.4656)"/>
</clipPath>
</defs>
</svg>
