<svg width="59" height="59" viewBox="0 0 59 59" fill="none" xmlns="http://www.w3.org/2000/svg">
<g clip-path="url(#clip0_7_67)">
<path d="M0.870724 22.4151C4.78324 6.59879 20.7754 -3.04158 36.5853 0.871041C52.3997 4.78366 62.0414 20.7718 58.1288 36.5851C54.2148 52.3984 38.2271 62.0432 22.4127 58.1291C6.60281 54.218 -3.04478 38.2269 0.870724 22.4151Z" fill="#EF3E43"/>
<path d="M1.71948 19.593H57.282C54.0657 10.601 46.5528 3.33745 36.5856 0.870965C21.7392 -2.80412 6.7345 5.47378 1.71948 19.593Z" fill="#EFEBE7"/>
<path d="M58.3636 35.5631C58.3771 35.5004 58.389 35.4376 58.4025 35.3749C58.4249 35.2658 58.4473 35.1553 58.4667 35.0462C58.4786 34.982 58.4921 34.9193 58.504 34.855C58.525 34.7415 58.5444 34.6279 58.5653 34.5144C58.5757 34.4576 58.5862 34.3994 58.5952 34.3426C58.6191 34.2007 58.6415 34.0587 58.6624 33.9168C58.6669 33.8884 58.6714 33.8615 58.6758 33.8332C58.7012 33.6629 58.7251 33.4925 58.7475 33.3222C58.7535 33.2774 58.7595 33.2326 58.764 33.1863C58.7804 33.0608 58.7954 32.9368 58.8088 32.8113C58.8163 32.7516 58.8222 32.6918 58.8282 32.6335C58.8402 32.5215 58.8521 32.4094 58.8626 32.2974C58.8685 32.2361 58.8745 32.1734 58.8805 32.1121C58.891 31.9986 58.8999 31.8866 58.9089 31.773C58.9134 31.7163 58.9179 31.658 58.9223 31.6012C58.9313 31.4712 58.9403 31.3413 58.9477 31.2113C58.9492 31.171 58.9522 31.1321 58.9552 31.0933C58.9642 30.923 58.9731 30.7527 58.9791 30.5824C58.9791 30.554 58.9806 30.5271 58.9821 30.4987C58.9866 30.3583 58.9911 30.2163 58.994 30.0759C58.994 30.0221 58.9955 29.9698 58.997 29.9161C58.997 29.7995 59 29.6845 59 29.568C59 29.5097 59 29.4514 59 29.3932C59 29.2796 58.9985 29.1661 58.997 29.0526C58.997 28.9958 58.9955 28.9405 58.994 28.8838C58.9911 28.7598 58.9881 28.6343 58.9836 28.5103C58.9836 28.4669 58.9821 28.4236 58.9791 28.3803C58.9671 28.0427 58.9477 27.7065 58.9238 27.3704C58.9208 27.3256 58.9164 27.2823 58.9134 27.2374C58.9044 27.1149 58.8939 26.9924 58.8835 26.8684C58.879 26.8147 58.8745 26.7624 58.8686 26.7086C58.8581 26.5936 58.8461 26.477 58.8327 26.362C58.8267 26.3097 58.8222 26.2559 58.8163 26.2036C58.8028 26.0811 58.7879 25.9586 58.7729 25.8361C58.767 25.7928 58.7625 25.751 58.7565 25.7076C58.7132 25.373 58.6639 25.0399 58.6101 24.7082C58.6056 24.6783 58.5997 24.6484 58.5952 24.6186C58.5728 24.4841 58.5504 24.3512 58.525 24.2167C58.516 24.1719 58.5085 24.1256 58.4996 24.0793C58.4771 23.9597 58.4547 23.8402 58.4308 23.7207C58.4219 23.6729 58.4114 23.6251 58.4025 23.5788C58.3771 23.4563 58.3517 23.3338 58.3248 23.2128C58.3158 23.1724 58.3068 23.1321 58.2979 23.0903C58.265 22.9409 58.2292 22.7915 58.1948 22.6421L58.1873 22.6092C58.15 22.4524 58.1111 22.297 58.0708 22.1416C57.8482 21.2766 57.5853 20.4251 57.2865 19.5885H1.71949C1.39382 20.5058 1.10998 21.4454 0.87096 22.4105C-0.109037 26.368 -0.237512 30.3359 0.366023 34.1245C0.369011 34.1409 0.371999 34.1588 0.373492 34.1753C0.395901 34.3142 0.418309 34.4517 0.443706 34.5891C0.448187 34.6175 0.454163 34.6474 0.458645 34.6757C0.481053 34.8042 0.504955 34.9342 0.530352 35.0627C0.537821 35.1 0.545291 35.1389 0.55276 35.1777C0.576663 35.3002 0.600565 35.4212 0.625961 35.5422C0.636418 35.5885 0.645382 35.6334 0.655839 35.6797C0.679741 35.7947 0.705138 35.9097 0.732028 36.0248C0.743979 36.0785 0.757424 36.1308 0.769375 36.1846C0.794772 36.2922 0.818674 36.3997 0.845564 36.5058C0.864985 36.5865 0.885899 36.6672 0.906814 36.7478C0.938186 36.8688 0.969558 36.9898 1.00093 37.1109C1.0323 37.2304 1.06517 37.3484 1.09803 37.4679C1.11297 37.5202 1.12791 37.5725 1.14285 37.6248C1.17572 37.7368 1.20709 37.8504 1.24145 37.9624C1.25788 38.0147 1.27431 38.067 1.28925 38.1193C1.32361 38.2313 1.35797 38.3419 1.39382 38.4539C1.41026 38.5062 1.42669 38.557 1.44462 38.6078C1.48047 38.7198 1.51782 38.8319 1.55666 38.9424C1.57309 38.9932 1.59102 39.0425 1.60745 39.0933C1.64629 39.2054 1.68663 39.3174 1.72547 39.4294C1.73443 39.4563 1.7434 39.4817 1.75236 39.5086C1.77776 39.5773 1.80166 39.6476 1.82705 39.7163H57.1625C57.1879 39.6476 57.2103 39.5773 57.2357 39.5086H57.2402C57.3029 39.3353 57.3612 39.162 57.4195 38.9872C57.4254 38.9708 57.4314 38.9529 57.4374 38.9364C57.5136 38.7094 57.5883 38.4793 57.66 38.2492C57.6704 38.2179 57.6809 38.185 57.6899 38.1536C57.7556 37.9385 57.8183 37.7219 57.8796 37.5038C57.893 37.4574 57.9065 37.4126 57.9184 37.3663C57.9901 37.1064 58.0589 36.8464 58.1246 36.5835C58.1664 36.4147 58.2068 36.2444 58.2456 36.0741C58.2575 36.0203 58.2695 35.965 58.2815 35.9112C58.3068 35.7947 58.3322 35.6782 58.3576 35.5616" fill="#005B95"/>
</g>
<defs>
<clipPath id="clip0_7_67">
<rect width="59" height="59" fill="white"/>
</clipPath>
</defs>
</svg>
