<svg width="23" height="23" viewBox="0 0 23 23" fill="none" xmlns="http://www.w3.org/2000/svg">
<g clip-path="url(#clip0_118_3680)">
<mask id="mask0_118_3680" style="mask-type:luminance" maskUnits="userSpaceOnUse" x="1" y="0" width="23" height="23">
<path d="M24 0H1V23H24V0Z" fill="white"/>
</mask>
<g mask="url(#mask0_118_3680)">
<path d="M12.4998 21.8027C12.2698 21.8027 12.0399 21.7739 11.8195 21.7069C6.8457 20.3364 3.24235 15.6885 3.24235 10.6477V6.44057C3.24235 5.36723 4.01861 4.2077 5.01527 3.79561L10.3532 1.61059C11.7428 1.04517 13.2665 1.04517 14.6465 1.61059L19.9844 3.79561C20.9811 4.2077 21.7574 5.36723 21.7574 6.44057V10.6477C21.7574 15.6789 18.1444 20.3269 13.1802 21.7069C12.9598 21.7739 12.7298 21.8027 12.4998 21.8027ZM12.4998 2.63601C11.9536 2.63601 11.4169 2.74145 10.8994 2.95228L5.56153 5.13724C5.10153 5.32891 4.67985 5.95183 4.67985 6.45016V10.6573C4.67985 15.056 7.84236 19.1194 12.2027 20.3269C12.3944 20.3844 12.6052 20.3844 12.7969 20.3269C17.1573 19.1194 20.3199 15.056 20.3199 10.6573V6.45016C20.3199 5.95183 19.8981 5.32891 19.4381 5.13724L14.1003 2.95228C13.5828 2.74145 13.0461 2.63601 12.4998 2.63601Z" fill="#46D7EA"/>
<path d="M12.5 12.6976C11.0433 12.6976 9.86459 11.5188 9.86459 10.0622C9.86459 8.60551 11.0433 7.42676 12.5 7.42676C13.9567 7.42676 15.1354 8.60551 15.1354 10.0622C15.1354 11.5188 13.9567 12.6976 12.5 12.6976ZM12.5 8.86426C11.8388 8.86426 11.3021 9.40092 11.3021 10.0622C11.3021 10.7234 11.8388 11.2601 12.5 11.2601C13.1613 11.2601 13.6979 10.7234 13.6979 10.0622C13.6979 9.40092 13.1613 8.86426 12.5 8.86426Z" fill="#46D7EA"/>
<path d="M12.5 15.5732C12.1071 15.5732 11.7812 15.2474 11.7812 14.8545V11.9795C11.7812 11.5866 12.1071 11.2607 12.5 11.2607C12.8929 11.2607 13.2188 11.5866 13.2188 11.9795V14.8545C13.2188 15.2474 12.8929 15.5732 12.5 15.5732Z" fill="#46D7EA"/>
</g>
</g>
<defs>
<clipPath id="clip0_118_3680">
<rect width="23" height="23" fill="white"/>
</clipPath>
</defs>
</svg>
