<svg width="41" height="41" viewBox="0 0 41 41" fill="none" xmlns="http://www.w3.org/2000/svg">
<g clip-path="url(#clip0_6_138)">
<path d="M0.605343 15.5766C3.32421 4.5856 14.4364 -2.11468 25.424 0.605297C36.4136 3.32423 43.1138 14.4346 40.3949 25.4235C37.675 36.4124 26.5649 43.1148 15.5752 40.3948C4.58762 37.6769 -2.1156 26.5645 0.605343 15.5766Z" fill="#F1F2F2"/>
<path d="M28.7054 19.3388C29.0937 23.6212 25.9388 27.4074 21.6586 27.7977C17.3784 28.1881 13.5913 25.0362 13.202 20.7538C12.8116 16.4735 15.9665 12.6853 20.2457 12.297C24.5259 11.9066 28.3109 15.0585 28.7044 19.3388" fill="#EF3827"/>
<path d="M14.2961 16.024C13.1843 17.8636 13.7667 20.2534 15.6042 21.3653C17.4417 22.4792 19.8314 21.8927 20.9454 20.0551C22.0551 18.2176 24.4439 17.6352 26.2834 18.7471C28.1188 19.8589 28.7054 22.2488 27.5915 24.0832C25.3657 27.7583 20.5893 28.9273 16.9143 26.7035C13.2414 24.4777 12.0704 19.698 14.2961 16.024Z" fill="#223C72"/>
<path d="M8.31024 28.7404L10.3325 31.7375L11.3447 31.0586L9.32034 28.0614L8.31024 28.7414V28.7404ZM7.98945 28.267L9.00163 27.5849L6.97727 24.5846L5.9651 25.2636L7.98945 28.2659V28.267ZM4.41205 26.3163L8.78051 32.7892L9.78854 32.1102L5.42111 25.6363L4.41309 26.3163H4.41205ZM7.52229 24.2171L11.8897 30.6911L12.8967 30.009L8.53136 23.533L7.52126 24.2171H7.52229ZM34.3819 15.8786L32.3617 12.8763L31.3516 13.5584L33.3739 16.5586L34.3819 15.8786ZM32.0378 12.4029L30.0176 9.40053L29.0075 10.0826L31.0298 13.0818L32.0378 12.4029ZM36.4893 14.4605L37.4973 13.7784L35.473 10.7792L34.4629 11.4613L36.4893 14.4615V14.4605ZM35.1532 10.3016L33.1289 7.30241L32.1188 7.98448L34.1431 10.9848L35.1532 10.3027V10.3016ZM35.9391 14.8301L31.5758 8.35406L30.5636 9.03302L34.9311 15.507L35.9391 14.8301ZM32.1188 32.1102L33.1289 32.7892L35.1532 29.7889L34.141 29.1079L32.1188 32.1102ZM34.4629 28.6345L35.473 29.3134L37.4973 26.3163L36.4851 25.6363L34.4629 28.6335V28.6345ZM32.5859 28.0614L30.5636 31.0586L31.5706 31.7427L33.595 28.7425L32.5849 28.0604L32.5859 28.0614ZM35.9391 25.2667L34.9311 24.5846L32.9067 27.5849L33.9147 28.267L35.9391 25.2667ZM31.0308 27.0098L29.0064 30.0101L30.0186 30.6921L32.0388 27.6918L31.0308 27.0098ZM32.3617 27.2174L34.3819 24.2171L33.3739 23.533L31.3495 26.5333L32.3617 27.2174ZM7.52229 15.8786L8.5324 16.5586L12.8977 10.0826L11.8908 9.4026L7.52333 15.8786H7.52229ZM6.9752 15.5091L11.3457 9.03302L10.3336 8.35406L5.96613 14.8301L6.97624 15.5091H6.9752ZM9.7875 7.98448L8.77947 7.30241L4.40894 13.7784L5.41904 14.4605L9.78646 7.98448H9.7875Z" fill="#3E3E3F"/>
</g>
<defs>
<clipPath id="clip0_6_138">
<rect width="41" height="41" fill="white"/>
</clipPath>
</defs>
</svg>
