<svg width="39" height="39" viewBox="0 0 39 39" fill="none" xmlns="http://www.w3.org/2000/svg">
<g clip-path="url(#clip0_7_63)">
<path d="M0.575254 14.8165C3.16149 4.36162 13.7326 -2.01181 24.1832 0.575481C34.6368 3.16179 41.0101 13.7302 38.4238 24.1831C35.8366 34.6359 25.2685 41.0113 14.8149 38.424C4.36426 35.8387 -2.01296 25.2683 0.575254 14.8165Z" fill="#FFD203"/>
<path d="M1.1366 12.9513H37.8634C35.7383 7.00742 30.7712 2.20612 24.1827 0.575727C14.37 -1.85356 4.45062 3.61827 1.1366 12.9513Z" fill="#191407"/>
<path d="M38.5783 23.5078C38.5872 23.4664 38.5951 23.4249 38.604 23.3834C38.6188 23.3113 38.6326 23.2383 38.6465 23.1662C38.6544 23.1247 38.6623 23.0822 38.6702 23.0398C38.684 22.9647 38.6978 22.8897 38.7106 22.8146C38.7176 22.7771 38.7235 22.7386 38.7304 22.701C38.7462 22.6072 38.761 22.5134 38.7748 22.4196C38.7778 22.4008 38.7808 22.3821 38.7837 22.3643C38.8005 22.2517 38.8163 22.1391 38.8311 22.0266C38.8351 21.9969 38.839 21.9673 38.842 21.9377C38.8528 21.8547 38.8627 21.7728 38.8726 21.6898C38.8765 21.6503 38.8815 21.6108 38.8854 21.5723C38.8933 21.4982 38.9012 21.4242 38.9081 21.3501C38.9121 21.3096 38.916 21.2682 38.92 21.2277C38.9269 21.1526 38.9328 21.0786 38.9387 21.0035C38.9417 20.965 38.9447 20.9275 38.9476 20.8899C38.9536 20.804 38.9595 20.7181 38.9644 20.6322C38.9654 20.6065 38.9674 20.5799 38.9694 20.5542C38.9753 20.4416 38.9812 20.329 38.9852 20.2165C38.9852 20.1977 38.9852 20.1799 38.9871 20.1611C38.9901 20.0683 38.9931 19.9745 38.995 19.8817C38.995 19.8461 38.995 19.8106 38.997 19.776C38.998 19.699 38.999 19.623 38.999 19.5459C38.999 19.5074 38.999 19.4689 38.999 19.4304C38.999 19.3553 38.999 19.2803 38.997 19.2052C38.997 19.1677 38.996 19.1312 38.995 19.0936C38.9931 19.0117 38.9911 18.9287 38.9881 18.8468C38.9881 18.8181 38.9861 18.7895 38.9852 18.7609C38.9773 18.5377 38.9644 18.3155 38.9486 18.0933C38.9466 18.0647 38.9437 18.035 38.9417 18.0054C38.9358 17.9244 38.9289 17.8434 38.922 17.7625C38.919 17.7269 38.915 17.6914 38.9121 17.6568C38.9052 17.5808 38.8973 17.5037 38.8894 17.4277C38.8854 17.3931 38.8815 17.3576 38.8775 17.323C38.8686 17.2421 38.8588 17.1611 38.8489 17.0801C38.8459 17.0515 38.842 17.0238 38.838 16.9952C38.8094 16.774 38.7768 16.5538 38.7412 16.3355C38.7383 16.3158 38.7343 16.296 38.7314 16.2763C38.7166 16.1874 38.7008 16.0995 38.685 16.0106C38.679 15.98 38.6741 15.9504 38.6682 15.9198C38.6534 15.8408 38.6385 15.7618 38.6227 15.6828C38.6168 15.6512 38.6099 15.6205 38.604 15.5889C38.5872 15.508 38.5704 15.427 38.5526 15.346C38.5467 15.3194 38.5408 15.2927 38.5349 15.266C38.5131 15.1673 38.4904 15.0685 38.4667 14.9698L38.4618 14.9471C38.4371 14.8434 38.4114 14.7407 38.3848 14.638C38.2376 14.0662 38.0638 13.5033 37.8663 12.9503H1.13658C0.921305 13.5566 0.733682 14.1778 0.575683 14.8157C-0.0721112 17.4317 -0.157035 20.0555 0.241911 22.5588C0.243886 22.5697 0.245861 22.5816 0.246849 22.5924C0.261661 22.6843 0.276473 22.7751 0.293261 22.866C0.296223 22.8847 0.300173 22.9045 0.303136 22.9232C0.317948 23.0082 0.333748 23.0941 0.350535 23.179C0.355473 23.2047 0.36041 23.2294 0.365348 23.255C0.381147 23.335 0.396947 23.416 0.413735 23.496C0.41966 23.5256 0.426572 23.5562 0.433485 23.5868C0.449284 23.6629 0.466072 23.7389 0.483847 23.814C0.491747 23.8495 0.500634 23.8841 0.508534 23.9196C0.525321 23.9907 0.541121 24.0618 0.558896 24.132C0.571733 24.1853 0.585558 24.2386 0.599383 24.2919C0.62012 24.3719 0.640858 24.4519 0.661595 24.5319C0.682332 24.6109 0.704057 24.6889 0.725782 24.7679C0.735657 24.8025 0.745532 24.837 0.755407 24.8716C0.777132 24.9457 0.797869 25.0207 0.820581 25.0948C0.831444 25.1293 0.842306 25.1639 0.852181 25.1985C0.874893 25.2725 0.897606 25.3466 0.921305 25.4197C0.932168 25.4533 0.94303 25.4878 0.953893 25.5214C0.977592 25.5955 1.00228 25.6695 1.02697 25.7436C1.03783 25.7762 1.04968 25.8097 1.06153 25.8433C1.0872 25.9174 1.11288 25.9915 1.13954 26.0655C1.14547 26.0823 1.15139 26.1001 1.15732 26.1179C1.1741 26.1633 1.1899 26.2097 1.20669 26.2551H37.7844C37.8012 26.2097 37.816 26.1633 37.8328 26.1179H37.8357C37.8762 26.0033 37.9157 25.8887 37.9552 25.7732C37.9592 25.7623 37.9631 25.7505 37.9671 25.7396C38.0174 25.5895 38.0668 25.4375 38.1142 25.2854C38.1211 25.2636 38.128 25.2429 38.1339 25.2212C38.1774 25.079 38.2189 24.9358 38.2594 24.7916C38.2682 24.761 38.2771 24.7314 38.285 24.7018C38.3324 24.5299 38.3778 24.3581 38.4213 24.1843C38.449 24.0717 38.4756 23.9601 38.5013 23.8476C38.5092 23.811 38.5171 23.7755 38.525 23.7399C38.5418 23.6629 38.5596 23.5859 38.5754 23.5088" fill="#EC463A"/>
</g>
<defs>
<clipPath id="clip0_7_63">
<rect width="39" height="39" fill="white"/>
</clipPath>
</defs>
</svg>
