<svg width="41" height="41" viewBox="0 0 41 41" fill="none" xmlns="http://www.w3.org/2000/svg">
<g clip-path="url(#clip0_7_71)">
<path d="M0.604978 15.5764C3.32385 4.58541 14.4371 -2.11486 25.4236 0.605114C36.4133 3.32405 43.1134 14.4344 40.3945 25.4233C37.6746 36.4122 26.5645 43.1146 15.5748 40.3946C4.58829 37.6767 -2.11597 26.5643 0.604978 15.5764Z" fill="#F1F2F2"/>
<path d="M39.4563 12.705H23.5781V15.8433H40.4643C40.2131 14.7678 39.8736 13.7193 39.4563 12.705ZM35.4034 6.4262H23.5781V9.56767H37.8358C37.1299 8.4475 36.3149 7.39481 35.4034 6.4262ZM5.69729 34.6776H35.3059C36.2225 33.7225 37.051 32.6729 37.7745 31.5393H3.23276C3.94907 32.6594 4.77439 33.7111 5.69729 34.6776ZM25.4239 0.60421C24.8083 0.451601 24.1927 0.331174 23.5781 0.236702V3.28785H31.6371C29.7788 2.08566 27.6932 1.16585 25.4239 0.60421ZM40.944 18.9817H23.5791V22.1232H40.9325C41.0177 21.0663 41.0197 20.0167 40.944 18.9817ZM1.58836 28.4019H39.4137C39.8103 27.45 40.1394 26.4554 40.3948 25.4235C40.4083 25.3695 40.4197 25.3155 40.4332 25.2605H0.561646C0.82014 26.337 1.16376 27.3877 1.58836 28.4009M15.5762 40.3937C16.7887 40.6937 18.0033 40.8785 19.2075 40.9564H21.8164C25.2848 40.7342 28.5974 39.6307 31.4637 37.816H9.52696C11.3437 38.9663 13.3732 39.8497 15.5762 40.3937Z" fill="#EF3827"/>
<path d="M22.025 20.9718L21.5828 20.649L21.1385 20.9718L21.3077 20.4517L20.8654 20.1289H21.4125L21.5828 19.6087L21.7499 20.1289H22.2981L21.8558 20.4517L22.025 20.9718ZM19.847 4.4537L20.0152 4.97693L19.573 4.65406L19.1297 4.97693L19.2999 4.4537L18.8567 4.13395H19.4038L19.574 3.61071L19.7432 4.13395H20.2914L19.8481 4.4537H19.847ZM19.847 9.17317L20.0152 9.69329L19.573 9.37042L19.1297 9.69329L19.2999 9.17317L18.8567 8.8503H19.4038L19.574 8.33018L19.7432 8.8503H20.2914L19.8481 9.17317H19.847ZM19.8066 13.7961L19.9758 14.3162L19.5325 13.9933L19.0902 14.3162L19.2595 13.7961L18.8151 13.4732H19.3633L19.5325 12.9531L19.7007 13.4732H20.2488L19.8066 13.7961ZM19.9353 18.8862L19.492 18.5633L19.0498 18.8862L19.2179 18.3661L18.7747 18.0432H19.3228L19.492 17.5231L19.6602 18.0432H20.2083L19.765 18.3661L19.9353 18.8862ZM17.7562 6.73972L17.9265 7.25984L17.4843 6.94009L17.0389 7.25984L17.2091 6.73972L16.7669 6.41686H17.314L17.4843 5.89674L17.6514 6.41686H18.1985L17.7562 6.73972ZM17.7562 11.3128L17.9265 11.8329L17.4843 11.5101L17.0389 11.8329L17.2091 11.3128L16.7669 10.9899H17.314L17.4843 10.4698L17.6514 10.9899H18.1985L17.7562 11.3128ZM17.7562 15.9866L17.9265 16.5098L17.4843 16.187L17.0389 16.5098L17.2091 15.9866L16.7669 15.6669H17.314L17.4843 15.1436L17.6514 15.6669H18.1985L17.7562 15.9866ZM17.9275 20.9718L17.4853 20.649L17.0399 20.9718L17.2102 20.4517L16.7679 20.1289H17.315L17.4853 19.6087L17.6524 20.1289H18.1995L17.7573 20.4517L17.9275 20.9718ZM15.7485 4.4537L15.9187 4.97693L15.4755 4.65406L15.0311 4.97693L15.2014 4.4537L14.7592 4.13395H15.3063L15.4755 3.61071L15.6447 4.13395H16.1928L15.7495 4.4537H15.7485ZM15.7485 9.17317L15.9187 9.69329L15.4755 9.37042L15.0311 9.69329L15.2014 9.17317L14.7592 8.8503H15.3063L15.4755 8.33018L15.6447 8.8503H16.1928L15.7495 9.17317H15.7485ZM15.7101 13.7961L15.8793 14.3162L15.435 13.9933L14.9927 14.3162L15.162 13.7961L14.7187 13.4732H15.2658L15.436 12.9531L15.6052 13.4732H16.1534L15.7111 13.7961H15.7101ZM15.8367 18.8862L15.3945 18.5633L14.9512 18.8862L15.1194 18.3661L14.6771 18.0432H15.2242L15.3945 17.5231L15.5637 18.0432H16.1108L15.6686 18.3661L15.8378 18.8862H15.8367ZM13.6598 2.17079L13.829 2.69091L13.3867 2.36804L12.9424 2.69091L13.1116 2.17079L12.6694 1.84792H13.2175L13.3867 1.3278L13.556 1.84792H14.1041L13.6608 2.17079H13.6598ZM13.6598 6.73972L13.829 7.25984L13.3867 6.94009L12.9424 7.25984L13.1116 6.73972L12.6694 6.41686H13.2175L13.3867 5.89674L13.556 6.41686H14.1041L13.6608 6.73972H13.6598ZM13.6598 11.3128L13.829 11.8329L13.3867 11.5101L12.9424 11.8329L13.1116 11.3128L12.6694 10.9899H13.2175L13.3867 10.4698L13.556 10.9899H14.1041L13.6608 11.3128H13.6598ZM13.6598 15.9866L13.829 16.5098L13.3867 16.187L12.9424 16.5098L13.1116 15.9866L12.6694 15.6669H13.2175L13.3867 15.1436L13.556 15.6669H14.1041L13.6608 15.9866H13.6598ZM13.829 20.9718L13.3867 20.649L12.9424 20.9718L13.1116 20.4517L12.6694 20.1289H13.2175L13.3867 19.6087L13.556 20.1289H14.1041L13.6608 20.4517L13.83 20.9718H13.829ZM11.651 4.28967L11.8212 4.8129L11.3759 4.49003L10.9336 4.8129L11.1039 4.28967L10.6606 3.96992H11.2077L11.3769 3.4498L11.5472 3.96992H12.0943L11.652 4.28967H11.651ZM11.651 9.0081L11.8212 9.52822L11.3759 9.20847L10.9336 9.52822L11.1039 9.0081L10.6606 8.68523H11.2077L11.3769 8.16512L11.5472 8.68523H12.0943L11.652 9.0081H11.651ZM11.6095 13.6321L11.7797 14.1522L11.3375 13.8293L10.8921 14.1522L11.0624 13.6321L10.6201 13.3092H11.1672L11.3375 12.7891L11.5046 13.3092H12.0527L11.6095 13.6321ZM11.7392 18.7242L11.2959 18.4014L10.8537 18.7242L11.0229 18.201L10.5786 17.8812H11.1257L11.2959 17.3611L11.4652 17.8812H12.0133L11.571 18.201L11.7403 18.7242H11.7392ZM9.56226 6.73972L9.73252 7.25984L9.29027 6.94009L8.84491 7.25984L9.01517 6.73972L8.57292 6.41686H9.11794L9.28924 5.89674L9.45637 6.41686H10.0035L9.56122 6.73972H9.56226ZM9.56226 11.3128L9.73252 11.8329L9.29027 11.5101L8.84491 11.8329L9.01517 11.3128L8.57292 10.9899H9.11794L9.28924 10.4698L9.45637 10.9899H10.0035L9.56122 11.3128H9.56226ZM9.56226 15.9866L9.73252 16.5098L9.29027 16.187L8.84491 16.5098L9.01517 15.9866L8.57292 15.6669H9.11794L9.28924 15.1436L9.45637 15.6669H10.0035L9.56122 15.9866H9.56226ZM9.73252 20.9718L9.29027 20.649L8.84491 20.9718L9.01517 20.4517L8.57292 20.1289H9.11794L9.28924 19.6087L9.45637 20.1289H10.0035L9.56122 20.4517L9.73148 20.9718H9.73252ZM7.55452 8.96346L7.72373 9.48358L7.28149 9.16071L6.83717 9.48358L7.00742 8.96346L6.56414 8.64059H7.11227L7.28149 8.12048L7.44966 8.64059H7.99884L7.55555 8.96346H7.55452ZM7.51403 13.5874L7.68324 14.1075L7.241 13.7847L6.79668 14.1075L6.96589 13.5874L6.52365 13.2646H7.07075L7.241 12.7444L7.40814 13.2646H7.95627L7.51403 13.5874ZM7.64068 18.6765L7.19844 18.3536L6.75619 18.6765L6.92437 18.1564L6.48005 17.8335H7.02818L7.1974 17.3134L7.36765 17.8335H7.91475L7.47043 18.1564L7.63964 18.6765H7.64068ZM17.314 1.84792L17.4843 1.3278L17.6514 1.84792H18.1985L17.7562 2.17079L17.9265 2.69091L17.4843 2.36804L17.0389 2.69091L17.2091 2.17079L16.7669 1.84792H17.314ZM21.4115 15.6669L21.5818 15.1436L21.7489 15.6669H22.297L21.8548 15.9866L22.024 16.5098L21.5818 16.187L21.1374 16.5098L21.3067 15.9866L20.8644 15.6669H21.4115ZM21.4115 10.9899L21.5818 10.4698L21.7489 10.9899H22.297L21.8548 11.3128L22.024 11.8329L21.5818 11.5101L21.1374 11.8329L21.3067 11.3128L20.8644 10.9899H21.4115ZM21.4115 6.41686L21.5818 5.89674L21.7489 6.41686H22.297L21.8548 6.73972L22.024 7.25984L21.5818 6.94009L21.1374 7.25984L21.3067 6.73972L20.8644 6.41686H21.4115ZM21.4115 1.84792L21.5818 1.3278L21.7489 1.84792H22.297L21.8548 2.17079L22.024 2.69091L21.5818 2.36804L21.1374 2.69091L21.3067 2.17079L20.8644 1.84792H21.4115ZM5.46476 11.3128L5.63397 11.8329L5.19069 11.5101L4.74844 11.8329L4.91766 11.3128L4.47438 10.9899H5.02147L5.19173 10.4698L5.36094 10.9899H5.90908L5.46579 11.3128H5.46476ZM5.46476 15.9866L5.63397 16.5098L5.19069 16.187L4.74844 16.5098L4.91766 15.9866L4.47438 15.6669H5.02147L5.19173 15.1436L5.36094 15.6669H5.90908L5.46579 15.9866H5.46476ZM5.63397 20.9718L5.19069 20.649L4.74844 20.9718L4.91766 20.4517L4.47334 20.1289H5.02043L5.19069 19.6087L5.3599 20.1289H5.90908L5.46579 20.4517L5.63501 20.9718H5.63397ZM3.41341 13.5064L3.58366 14.0266L3.14038 13.7037L2.69813 14.0266L2.86735 13.5064L2.42407 13.1836H2.9722L3.14038 12.6635L3.31063 13.1836H3.85773L3.41444 13.5064H3.41341ZM3.54317 18.5955L3.10093 18.2726L2.65557 18.5955L2.82582 18.0754L2.38358 17.7525H2.93067L3.10093 17.2324L3.26807 17.7525H3.81724L3.37292 18.0754L3.54317 18.5955ZM1.53542 20.9718L1.09318 20.649L0.649898 20.9718L0.819113 20.4517L0.376869 20.1289H0.925003L1.09422 19.6087L1.26447 20.1289H1.80949L1.36725 20.4517L1.53646 20.9718H1.53542ZM23.5781 0.236698C23.3767 0.205554 21.8828 0.0415244 21.6814 0.0176468L17.9971 0.153646C14.1778 0.623931 10.5962 2.16456 7.64691 4.53571L7.72269 4.76826L7.53064 4.62811C6.85274 5.18145 6.2091 5.77943 5.6049 6.4179H5.907L5.46372 6.74076L5.63293 7.26088L5.18965 6.94113L5.01317 7.06882C4.59999 7.54534 4.20758 8.04158 3.838 8.55754H3.89925L3.77052 8.65098C3.68124 8.77763 3.59196 8.90532 3.5058 9.03405L3.62415 9.40053L3.38019 9.22404C2.13339 11.1176 1.18038 13.25 0.605258 15.5755C0.597991 15.6056 0.590724 15.6367 0.583457 15.6669H0.922926L1.09214 15.1436L1.2624 15.6669H1.80742L1.36517 15.9866L1.53439 16.5098L1.09214 16.187L0.648859 16.5098L0.818075 15.9866L0.554389 15.7956C0.049857 17.9321 -0.100672 20.0707 0.0664671 22.1491H23.5781V0.236698Z" fill="#223C72"/>
</g>
<defs>
<clipPath id="clip0_7_71">
<rect width="41" height="41" fill="white"/>
</clipPath>
</defs>
</svg>
